<mxfile host="app.diagrams.net" agent="Mozilla/5.0 (Windows NT 10.0; Win64; x64) AppleWebKit/537.36 (KHTML, like Gecko) Chrome/133.0.0.0 Safari/537.36" version="26.0.16">
  <diagram name="PÃ¡gina-1" id="AOoxG9emba1PZu-KzrP7">
    <mxGraphModel grid="0" page="1" gridSize="10" guides="1" tooltips="0" connect="1" arrows="1" fold="1" pageScale="1" pageWidth="827" pageHeight="1169" background="#000000" math="0" shadow="1">
      <root>
        <mxCell id="0" />
        <mxCell id="1" parent="0" />
        <mxCell id="Ix6NV4y1JHLAgD5sUN_N-1" value="" style="whiteSpace=wrap;html=1;fillColor=default;strokeColor=default;gradientColor=none;gradientDirection=radial;" vertex="1" parent="1">
          <mxGeometry x="52" y="31.43" width="601" height="329.29" as="geometry" />
        </mxCell>
        <mxCell id="Ix6NV4y1JHLAgD5sUN_N-2" value="" style="rounded=0;whiteSpace=wrap;html=1;" vertex="1" parent="1">
          <mxGeometry x="50" y="30" width="110" height="70" as="geometry" />
        </mxCell>
        <mxCell id="Ix6NV4y1JHLAgD5sUN_N-4" value="" style="rounded=0;whiteSpace=wrap;html=1;direction=south;" vertex="1" parent="1">
          <mxGeometry x="160" y="100" width="10" height="260" as="geometry" />
        </mxCell>
        <mxCell id="Ix6NV4y1JHLAgD5sUN_N-5" value="" style="rounded=0;whiteSpace=wrap;html=1;" vertex="1" parent="1">
          <mxGeometry x="450" y="30" width="200" height="70" as="geometry" />
        </mxCell>
        <mxCell id="Ix6NV4y1JHLAgD5sUN_N-9" value="" style="rounded=0;whiteSpace=wrap;html=1;" vertex="1" parent="1">
          <mxGeometry x="50" y="300" width="70" height="60" as="geometry" />
        </mxCell>
        <mxCell id="Ix6NV4y1JHLAgD5sUN_N-16" value="&lt;div&gt;&lt;br&gt;&lt;/div&gt;" style="rounded=0;whiteSpace=wrap;html=1;" vertex="1" parent="1">
          <mxGeometry x="270" y="30" width="80" height="70" as="geometry" />
        </mxCell>
        <mxCell id="Ix6NV4y1JHLAgD5sUN_N-17" value="" style="rounded=0;whiteSpace=wrap;html=1;" vertex="1" parent="1">
          <mxGeometry x="170" y="30" width="80" height="70" as="geometry" />
        </mxCell>
        <mxCell id="Ix6NV4y1JHLAgD5sUN_N-18" value="" style="rounded=0;whiteSpace=wrap;html=1;" vertex="1" parent="1">
          <mxGeometry x="270" y="289.28" width="80" height="70.72" as="geometry" />
        </mxCell>
        <mxCell id="Ix6NV4y1JHLAgD5sUN_N-19" value="" style="rounded=0;whiteSpace=wrap;html=1;" vertex="1" parent="1">
          <mxGeometry x="370" y="290" width="80" height="70" as="geometry" />
        </mxCell>
        <mxCell id="Ix6NV4y1JHLAgD5sUN_N-20" value="" style="rounded=0;whiteSpace=wrap;html=1;" vertex="1" parent="1">
          <mxGeometry x="170" y="290" width="80" height="70.72" as="geometry" />
        </mxCell>
        <mxCell id="Ix6NV4y1JHLAgD5sUN_N-21" value="" style="rounded=0;whiteSpace=wrap;html=1;" vertex="1" parent="1">
          <mxGeometry x="370" y="30" width="80" height="70" as="geometry" />
        </mxCell>
        <mxCell id="Ix6NV4y1JHLAgD5sUN_N-23" value="" style="rounded=0;whiteSpace=wrap;html=1;" vertex="1" parent="1">
          <mxGeometry x="540" y="210" width="110" height="150" as="geometry" />
        </mxCell>
        <mxCell id="Ix6NV4y1JHLAgD5sUN_N-31" value="" style="rounded=0;whiteSpace=wrap;html=1;" vertex="1" parent="1">
          <mxGeometry x="470" y="309.29" width="70" height="50" as="geometry" />
        </mxCell>
        <mxCell id="2IUhI4EKlEKc684zUrsK-2" value="" style="shape=image;verticalLabelPosition=bottom;labelBackgroundColor=default;verticalAlign=top;aspect=fixed;imageAspect=0;image=data:image/jpeg,/9j/4AAQSkZJRgABAQAAAQABAAD/2wBDAAsJCQcJCQcJCQkJCwkJCQkJCQsJCwsMCwsLDA0QDBEODQ4MEhkSJRodJR0ZHxwpKRYlNzU2GioyPi0pMBk7IRP/2wBDAQcICAsJCxULCxUsHRkdLCwsLCwsLCwsLCwsLCwsLCwsLCwsLCwsLCwsLCwsLCwsLCwsLCwsLCwsLCwsLCwsLCz/wAARCAD+AP4DASIAAhEBAxEB/8QAHAABAAIDAQEBAAAAAAAAAAAAAAcIAQUGBAMC/8QAQhAAAQQBAQUGAwUFBgUFAAAAAQACAwQFEQYSITFBBxNRYXGRFCKBMkJSYqEVI3KisSQzgpKT8ENjc7LDJTSzxOH/xAAUAQEAAAAAAAAAAAAAAAAAAAAA/8QAFBEBAAAAAAAAAAAAAAAAAAAAAP/aAAwDAQACEQMRAD8AltERAREQEREBERAREQEREBERAREQEREBERAREQEREBERAREQEREBERAREQEREBERAREQEREBERAREQEREBERAREQEREBERAREQEREBERAREQEREBERAREQEREBERAREQEREBERAREQEREBERAREQEREBERAREQEREBERAREQEREBERARFoM3tds1gN5l62HWgNRTq6TWjyI3mAgN8i5zUG/Xzmnr1o3TWJYoYmcXSTPbGxvq55AUM5ftS2gtl8eKghx0J4CRwbZtkctd547of5D6rh7l/I5GTvr9uzbl6OtTPlI8mh5IA9AEE8Xu0DYmiXtOTbakadNzHxyWdfSRg7r+dc7a7XMWwkUsNdmHQ2p4K/6R96VECwgkqbtbzRJ7jEY+MdO+msTH+XcXmPavtYeVPCgf9C2f/sKPllBII7V9qhpvUcM4eUNtp/8AnP8AReyDtcyLdPicJUkHX4e1LEfpvxvUYrKCZanazgJNBcxuSrOPWLubLB6kOa/+VdNQ2z2NyJDa+YqtkOn7u2XVZNT0AsBup9NVXNPI6EeB5ILVgggEEEEAgjiCD1BWVWbGZ3P4dzTjclarNDg7umSF1dx/NBJrGf8AKu+w3avOzciztASN4A2sd8sg8315Hbp89Hj0QS2i1uKzeEzcJnxl2GywAd41hLZYieksT9Hj6hbJAREQEREBERAREQEREBERAREQF4cplsVhqr7uStR14GndaXnV8j+jImN+Zzj4Af0Wl2r2wxmzMAYdLGUmZrWpNdoQDw72dw+yzw6nkORLYMy+Zy2cuPu5Kw6aY6tjaBuxQM6RwxjgG/qeZJPFB1u0faTmcmZa2H7zG0Tq3vQR8fM3Xm6RpIYPJp1/Nx0XBEklxJJLiXOJOpJPMknjqiICLB0GmvXgPM+AXU4jYPbDMBkjKXwVZ3ET5MugBHiyEAynXp8oHmg5ZZ5cSQPU6KYsd2TYaINdlMjctvHEx1g2pBx6H7Uh/wAwXVU9jdi6Ab8Pg6BI5Osx/FP18d+yXn9UFcgQ4hrSXOPIMBcfZq9LaOReNWUrrh4trWCP0YrPxQV4G7sMUUTRwDYmNYNPRoC+n++qCrT6l2IayVbbB+evO3+rV8N5n4gD4E6H9Vaz/fVeexRx9tpbaqVbDTzbYgilB9Q9pQVcRWEu7BbEXt4uxEEDzro+g6SqRr+WEhnu0rkcn2SM0c/DZZ4IB3YMmwPaT4d/AAR/plBFCyt1mNl9psHvOyOPlZXadPioP39UjXQEyx8tfzALS/0Qfatat0547NSeavYiOsc1eR0cjfIObx08QpP2a7UDrFU2kYOOjW5KuzQetqFn/c0f4eqipEFp4Z4LMUU9eWOWGVgkilhe18cjDycxzSQQvoq77M7XZjZqYCBxsY+R+9YoyuIjcTzfCTruv8wND1B01E64XOYnP0mXsdNvxn5ZY3gNmgk01MczNTo4ex5gkHVBs0REBERAREQEREBERAXIbZ7Y19m64r1tybL2Yy6vEeLK8Z1HfzAdPwjqR4Ake/araSrs1jH23hkluYmHH1nHTvptNS52nHcbzcfQc3DWvl25cyFqzduTPntWZDLPK/TVzjw4AcABwAA4AAAcAg/Nq1auWJ7VqaSezYeZJpZTq97j1J/QeHLkF8FlACSAASSQAANSSeAAA4oHj5Lp9m9ic9tHuzRtFPG68b1pji2QDgfhouBefPUDgeOvBdfsf2cN0gye0kOriWyVsW8ataBxD7o6n8nIddeLWyo1rWNa1oDWtaGtDQAABwAAHBBzmB2M2a2fEclasJ7rRxu3N2Wxr/y+G60fwgepXSLS53afAbPRh2RtATObvQ1YAJLUw5atjB4DzJA81Fea7Ttob5kixbGYysdQHs3Zrjhy4yuG43/C3UfiKCZLmQxuOi76/cq1YuOj7U0cLSRx0bvkalcpd7TNi6hLYZ7d1w1B+CrO3df47Bjb7EqDbFi1alfYtTzTzvOr5bEj5ZXHzfIS79V8+KCWJ+16AFwq4KVw+66zdZGfq2ON/wD3Lwv7W8wT8mHoNHg+xO4+4aP6KNFlBJkfa5lAR3uFpPHXu7UzD/NG5bKt2uY1zgLmFuQt6uq2IbH6SCP+qiFEE/0O0HYm+WN/aXwkrjoI8jE+vp6yEGL+ddRDNBYjZNBLFLC8askhe18bh4hzCR+qqxxXsx+Ty2Kl77G3bNSTUFxryFrX6HXR7PsEeoKCzxAIIIBBBBBHAg9CFxG0HZxs9lu8noAYu8dXb1Zg+Fldz/e1xoB6tI+q5vB9qtqMxwbQVBMzg03KLQyYectcndPnukfwlSfjspi8tWbbx1uGzXcdN+J3Fp/C9h0cD5EAoK7ZvZ/N7P2BXyVYsDiRBYjJfVsAdYpdBx8iAfJapWiu0aGRrTU71aGxVmG7JFM0OafAjqCOhHEKFNsNg7mAMmQx/eWcOXav3vmno69JtObPB3TkfxODiFtMHncps/ejvUJNHDRs8Lye5sxa6mOUDp4HmOY89WiCyuAz2N2hoR3qTtOIjsQPI72tMBqY5APcHqOPptlW7ZvaG/s3kor1bV8TtI7tYu0ZZg14tPQOHNh6HyJBsNjshSylKpkKUolq2oxJE8cDproWuHRwOocOhHkg9aIiAiIgIiICIsEAggjgQQfQ8EFcdqc9Y2hzFu69x+GY51fHx9IqrHEN4eLvtO8z4AaaJe7LYy1h8jfxtlpbLUmfGCQQHx6kxyN16OGhHr5LxIMEgAk8AOZUy7BbDtx7IM1mIdci8CSlWlH/ALJhGofI0/8AFP8AL6/Z0fZvsm29M3aHIRB1OtLpi4njUT2GHQ2Drw3WHg3xPH7nzTFyQOCjHa3tJZXM2O2cfHJMCWT5LRskMZHAiq06tcfzHUeAdrq3UbdbdPyL7GGw0xbjml0V21ETrdPJ0cbh/wALoSPtfw/3kdIPpPPYsyyz2JZZp5nF8ssz3SSSOPV73Ek+6+aLBIA1J0CAsrrMJ2f7V5kRzOgbj6btCJ8iHNke3XnFXA7w+I13QfFSDjeyzZeqGOyElzJS6DeEkhrVyfFsVch3vIUEIktHAkD1ICxvs/EPpx/orL1Nm9l6IHwuGxsThye2rCZPrI8F36rZsjijAayNjQOjWtaPYBBVXfZ+Jv1On9VkaHkQfTirTy160w3ZoIZGnmJI2PHs4LT3NkNjr4cLGDx+rub4IRWkPn3lfdd+qCuOiwphynZPipQ9+IyFmpJxIhtj4mufBodwlA+rlHeb2U2k2f3nZCmfht7dbcqkzVDrwGrwAW69A5rUGiXvxeWyuGtNuY21JXnGgeWcWSs57k0Z+VzfIj2PEeBZQTzslt1jtogynaEdPLhv9xvHubO6NS6q53HzLSdR5gajsHNZI1zHta5jmlrmuALXNcNCCDw0Kquxz43skY5zJI3tfG9ji17HtOoc1w4gjoVNOwu3AzAZics9oyzGH4eY6NbfYwangOHeAcSOo4jkQA5PbvYk4V8mWxcZ/ZEjx38I1PwEjzoNOvdOPAeBOnIhcCrTzQwWIZoJ42SwzRviljkaHMkjeN1zXA8NCOar7tjsxLs1kzFGHuxtvelx0r9SQ0fage78TP1BB6nQOaUhdmOenqZX9hyuLqeT72Su08obkTDISPJ7QQfMDx4x6uz7N8XZvbS1LjWH4XEsls2ZNDu95JE+GKMHxJJPo0oJ4REQEREBERAREQaXO7MYDaJjG5KsTNE0thswOMVmIHU6NkbzHkQR5LnqfZbshWnbNO/JXWtIIhtzxiE6HUbwrxscf8y7tEH4iiigjjhhYyOKJjI4o42tYyNjRuhrWt4ADooz7SdrDAx+zmOlImmjH7WlYdDHDINRWaRx1eOL/Igff+Xtdp85Fs9h7mScGumaBDTidrpLak1EbTp0HFzuPJpVcp557M09ixI6WeeWSaaR5+aSSRxc5x9Sg+SIvficVkM1fq42hHv2LBPzO1EUMTeL5pXDk1vX2GpOhBisTlM1cioY2u6axJ8zukcMYOhlmfyDR/8Ag1J0M2bMbBYXACGzOG3sqPmNmZn7uB3hVidqBp+I6nzGug3GzuzuM2boMp0270j919yy9oEtqYD7b9OQHHdGvAeZJdufdARc3m9tdlcG6SGzc7+4wkOqUQJ52kcCJCCI2nyc4LgMj2sZiUvZi8dUqsPASW3PszfxBrdyMH/MgmNPdV1tbbbbXCTLm7jB0FTuqrQPL4drT+q1z83tDISX5jLOJ4/Nftn/AMiCzfuirNHn9pYTrFm8uw/lv2v6F+i21Tb7binugZZ9hgOpZdhgnDvIuLRJ/OgsGvy5jXtcx7Q5j2lrmuALXNI0IIPDRRVjO1l+rWZnFDd+9PjHnUD/AKE5/wDJ9FIOI2i2fzrN7GX4Z3taHSQEmOzGOH24ZAH6eemnmg4rans1q2Wy3dnGMr2vme/HkhlWc8/7OTwY7y13f4eZiKaGevLLBPFJFPC90c0UrSySN7eBa9ruIKtQuL212Mg2hgdcpNZHmoI/3bjo1txjeUExPDX8DunI8DwCB1+45JYpIpYnvjlieyWKSNxa+ORhDmvY4cQQeIR8ckT5I5GPZLG90cjJGlr2PYS1zXNPEEHUFflBYDYralm0mNPfljcpS3Ir8bQGiTX7FhgHDdfx18CCOWmu/wAljMZl6stLI1o7FaQglkgOrXAEB7HNIcHDjoQQVXbZ7N2dn8tTycO85kZ7u3E0/wB/UeR3kfhrwBb5gKyFaxXt161qvIJILMMc8MjeT45Gh7XD1BQcIeyjZPvu8+KzAj3t7uRZh3P4d/ue80/xfVdnjMXi8PUjpY2rHWrMJcGR6kucdAXve4lxcepJJ9l7UQEREBERAREQEREBERBG3a3HYdisJK3XuIsk9s2nIPfA4Rk+zh9fNQ6rP5PG0cvRtY69H3layzckbro4EEOa9h6OaQCD5KIch2V7SwTvGOsUrlUuPdulkNedrfCRpaWa+Yd9ByQR6SACTyCnvYLZgYDFtntR6ZXItZNbLvtQR846w8N3m7zJ57o00Wy/Zm+jbr5HOzV5pK72zV6VUufCJG8WvnkeBruniGgaagcSOB7nO5zHbP4+bIXXHRpDIIWEd7YmIJbFHr1PMnoAT0QfbLZfF4WnLeyNhsEDPlbrxklkPKOJg4lx8B68ANRDG0vaFm806atRdJjsYS5vdwv0tTs5fv5mcQD+Fp046EuXP57PZXaG8+7fk103m14GE9zWiJ13Imn6anmfpoNUgcOQ5IiwdBpqeJ5DqfQICLe0dktsciA6phLpY7QtkstbVjcD1a6yW6j0W6j7MdtngF0eNiP4ZLhJH+nG4fqg4hF2c3ZrtzECWVaVgjpBcjBPp3wYP1XP5DA7RYredkcVerxt5yviLoP9aLej/mQa1fuKWaGSKaGSSKaJwfFLC90ckbhyLHsIcD9V8+mo4jyWUEnbMdptiExU9oyZoPlYzIxt/fRjl/aY2D5h+YDXhxDtdRLMM9ezFFPXljmgmY2SKWJzXxyMcNQ5jm8CCqsLrdjtsruzdhtecvnw00mtiDiXVy48Zq48erm8j68UHT9p2zDWabSUowAXMhyzGDhqfkjtacvBj/8ACfEqK1aD/wBOy9A6GG3j79Yjgd6KeCVunMeI/wB8FE2X7KsxFYkfhbNazUc4mOK5IYbMQP3XODSx2njw9EEcDQcT04qxOxEViHZPZpljUSfAtkAdzEcj3SR/ylq4fAdllsWYrG0M9b4aNwf8FTe97p9OO7NKWtAb4hoOviFLLQGta0AANAAAAAAA0AACDKIiAiIgIiICIiAiIgIiICIiD5zzQ1oZ7E8jY4K8Uk00j/sxxxtL3OPkAFXjavaSztLk5LTi9lKAvix0DuHdQE/bcBw336Au+g5NUudo77LNkst3IOj5aMc5HSF1lgd9DwB9VAaDCymi7rYLYwZ6b9p5KN37HrSljIzq346dnNo69237x6nh0O6Hg2X2HzG0m5ZcTSxW9obcrCXz7p4tqxnTXwLidOfMjRTFhNktmcA1ho0mGyAA65Z0mtvOmhPeOHDXqGho8lvGRxxsZHGxrI42tYxjAGta1o0DWtHDQdF+kBET6ICwQCCCAQeBB5EeayiDjs92fbM5kSywQtx15wJFikxrY3O/51caMd56bp81Due2czWzloV8jCNyTX4azFq6tYA57jjxBHVpAI9OJsmvHksZj8vTsUL8DZq07dHNdwLXDk9jhxDh0IQVgWFv9qNm7mzORdTmJkrTB0tCzpoJ4QdCHacA9vAOHmDyctCgkLs42qdjbjMFdlP7PvzaU3PPCrbf93j9yQ8PJ2h+8SppVUyS1rnAkEAlpB0IcOIIIVpKTrD6dJ9huk7q1d04PAiUxtLx76oPQiIgIiICIiAiIgIiICIiAiIgIiIPPdp1MhUt0bcYkrWoZIJmHqx40Oh5g9Qen0UHZvs72oxk8nwNaTJ0SSYZau6bAb0bNASHb3m3UemugnlEECYTs92pyliIXKs2MohwNie2Gsm3OrYYdd4uPQkAD9DOdGnUx9SpSqRCKtVhZDDG37rGDQak8STzJ6k69V6EQFhzmMa573Na1rS5znEBrWgakknhosqOO1HPSU6NXCVpC2XJtfLcLTo4Uozu936PdwPHk0j7yDWbT9pth0ktLZstjiYSx+RkY175Ty/s0bxuhv5iDr0A01dHFvJZW+8yXr1yy89bNiWT6AOdoB6BeVEHrp5PLY94ko37tZ4617ErNfVoO6fqFJGy3abMZYaO0hYWSEMjyTGNj3HHgPi2N0bp+YAadRp8wixEFqmkOAIIIIBBHEEHjqFlR52YZ6W/jbGHsyF8+JEZrOcdXOoyahrOPH5CC30LR0UhoNHtPs9U2kxctGYiOZrhNTsBu86Cdo0B06tPJw6g+IBEJXNiNtKU7oXYe1Y0cQ2agBYgePxNc06gerQVYlEEQbJ9nGRdbrZHaGFsFavIyaGiXNkmsSNO83v9wloYOBI1JOmhA6y+iICIiAiIgIiICIiB7p7oiB7p7oiB7p7oiB7p7oiB7p7oiB7p7oiB7qCO0yWSTau0xxJbBRoRReTCx0p0+rip3UN9q+MfDlMZlWt/c3anwkjhyFis5zhvHza7h/AUEbosogwiyiDuOy+R8e1Ia0nSbF3Y5PNrXRSD9QFOfuoe7JsbJJkMvl3NPc1qwx0LiPldPM5s0m6fFoa3X+NTCge6e6Ige6e6Ige6e6Ige6e6Ige6e6Ige6e6IgIiICIiAiIgIiICIiAiIgLV53C0s/jbWNt6tZKA+KVoBfBOziyVmvUdfEEjqtoiCs+aweWwFx1LIw7jvmMErNTBZjB034XnmPEcx1C1itDex+OyVd9W/Vr2a7+LorDGvbr0cNeRHQjiuMt9leyM7y+vLkqYPKOCwySIegsMe7+ZBCK2uCwOV2hutp4+IkAj4mw4H4eqwnTeld489BzOntLNTsr2QrvD7EmSujrHYsMjiPqKzGO/mXaUqOPx1eOrRrQVq8epbFXjbGwE8zo3qepQebCYejgsbTxlMHuq7TvSP07yaVx3nyyHxcfbgOQWyREBERAREQEREBERAREQEREBERAREQEREBERAREQEREBERAREQEREBERAREQEREBERAREQEREBERAREQEREBERAREQEREBERAREQEREBERAREQEREBERAREQEREBERAREQEREBERAREQEREBERAREQEREBERAREQEREBERAREQEREBERAREQEREH/9k=;" vertex="1" parent="1">
          <mxGeometry x="50" y="33" width="14" height="14" as="geometry" />
        </mxCell>
        <mxCell id="2IUhI4EKlEKc684zUrsK-5" value="" style="verticalLabelPosition=bottom;verticalAlign=top;html=1;shape=mxgraph.basic.rect;fillColor2=none;strokeWidth=0;size=0;indent=68;direction=west;fillColor=#333333;" vertex="1" parent="1">
          <mxGeometry x="60" y="260" width="60" height="10" as="geometry" />
        </mxCell>
        <mxCell id="2IUhI4EKlEKc684zUrsK-12" value="" style="sketch=0;pointerEvents=1;shadow=0;dashed=0;html=1;aspect=fixed;labelPosition=center;verticalLabelPosition=bottom;verticalAlign=top;align=center;outlineConnect=0;shape=mxgraph.vvd.administrator;fillColor=#f5f5f5;fontColor=#333333;strokeColor=#666666;" vertex="1" parent="1">
          <mxGeometry x="79.12" y="270" width="12.9" height="30" as="geometry" />
        </mxCell>
        <mxCell id="2IUhI4EKlEKc684zUrsK-15" value="" style="sketch=0;pointerEvents=1;shadow=0;dashed=0;html=1;aspect=fixed;labelPosition=center;verticalLabelPosition=bottom;verticalAlign=top;align=center;outlineConnect=0;shape=mxgraph.vvd.laptop;" vertex="1" parent="1">
          <mxGeometry x="79.12" y="240" width="27.78" height="20" as="geometry" />
        </mxCell>
        <mxCell id="2IUhI4EKlEKc684zUrsK-17" value="" style="sketch=0;pointerEvents=1;shadow=0;dashed=0;html=1;aspect=fixed;labelPosition=center;verticalLabelPosition=bottom;verticalAlign=top;align=center;outlineConnect=0;shape=mxgraph.vvd.administrator;direction=north;fillColor=#f5f5f5;fontColor=#333333;strokeColor=#666666;" vertex="1" parent="1">
          <mxGeometry x="130" y="160" width="30" height="12.9" as="geometry" />
        </mxCell>
        <mxCell id="2IUhI4EKlEKc684zUrsK-19" value="" style="sketch=0;pointerEvents=1;shadow=0;dashed=0;html=1;aspect=fixed;labelPosition=center;verticalLabelPosition=bottom;verticalAlign=top;align=center;outlineConnect=0;shape=mxgraph.vvd.laptop;direction=north;" vertex="1" parent="1">
          <mxGeometry x="100" y="152.56" width="20" height="27.78" as="geometry" />
        </mxCell>
        <mxCell id="2IUhI4EKlEKc684zUrsK-20" value="" style="verticalLabelPosition=bottom;verticalAlign=top;html=1;shape=mxgraph.basic.rect;fillColor2=none;strokeWidth=0;size=0;indent=68;direction=north;fillColor=#333333;" vertex="1" parent="1">
          <mxGeometry x="120" y="136.45" width="10" height="60" as="geometry" />
        </mxCell>
        <mxCell id="2IUhI4EKlEKc684zUrsK-22" value="" style="shape=image;verticalLabelPosition=bottom;labelBackgroundColor=default;verticalAlign=top;aspect=fixed;imageAspect=0;image=data:image/jpeg,/9j/4AAQSkZJRgABAQAAAQABAAD/2wBDAAsJCQcJCQcJCQkJCwkJCQkJCQsJCwsMCwsLDA0QDBEODQ4MEhkSJRodJR0ZHxwpKRYlNzU2GioyPi0pMBk7IRP/2wBDAQcICAsJCxULCxUsHRkdLCwsLCwsLCwsLCwsLCwsLCwsLCwsLCwsLCwsLCwsLCwsLCwsLCwsLCwsLCwsLCwsLCz/wAARCADqAWQDASIAAhEBAxEB/8QAFwABAQEBAAAAAAAAAAAAAAAAAAECB//EABQQAQAAAAAAAAAAAAAAAAAAAAD/xAAUAQEAAAAAAAAAAAAAAAAAAAAA/8QAFBEBAAAAAAAAAAAAAAAAAAAAAP/aAAwDAQACEQMRAD8A62AAAAAAAAAAAAAAAAAAAAAAAAAAAAAAAAAAAAAAAAAAAAAAAAAAAAAAAAAAAAAAAAAAAAAAAAAAAAAAAAAAAAAAAAAAAAAAAAAAAAAAAAAAAAAAAAAAAAAAAAAAqAAAAAAAAAAAAAAAAAAAAAAAAAAAAAAAAAAAAAAAAAAAAAAAAAAAAAAAAAAAAAAAAAAAAAAAAAAAAAAAAAAAAAAAAAAAAAAAAAAAAAAAAAAAAAAAAAAAAAAAAAAAAAAAAAAAAAAAAAAKCAAAAAAAAAAAAAAAAAAAAAAAAAAAAAAAAAAAAAAAAAAAAAAAAAAAAAAAAAAAAAAAAAAAAAAAAAAAAAAAAAAAAAAAAAAAoIAAAAAAAAAAAAAAAAAAAAAAAAAAAAAAAAAAAAAAAAAAAAAAAAAAAAAAAAAAAAAAAAAAAAAAAAAAAAAAAAAAAAAAAAAAqAAAAAAAAAAAAAAAAAAAAAAAAAAAAAAAAAAAAAAAAAAAAAAAAAAAAAAAAAAAAAAAAAAAAAAAAAAAAAAAAAAAAAAAAAAAAKCAAAAAAAAAAAAAAAAAAAAAAAAAAAAAAAAAAAAAAAAAAAAKgAAAqAAAAAAAAAAAAAAAAAAAAAAAAAAAAAAAAAAAAAAAAACoAAAAAAAAAAAAAAACKAIoAICiKAAAIAoAAgCiKACAoICiKAIAoICiKArKgCAKAAIAogCggKAAIA//2Q==;" vertex="1" parent="1">
          <mxGeometry x="46.97999999999999" y="170" width="36.51" height="24" as="geometry" />
        </mxCell>
        <mxCell id="2IUhI4EKlEKc684zUrsK-23" value="" style="verticalLabelPosition=bottom;html=1;verticalAlign=top;align=center;shape=mxgraph.floorplan.doorOverhead;direction=north;" vertex="1" parent="1">
          <mxGeometry x="56.995000000000005" y="43.375" width="20" height="53.25" as="geometry" />
        </mxCell>
        <mxCell id="2IUhI4EKlEKc684zUrsK-25" value="" style="verticalLabelPosition=bottom;html=1;verticalAlign=top;align=center;shape=mxgraph.floorplan.room;fillColor=strokeColor;" vertex="1" parent="1">
          <mxGeometry x="140" y="60" width="10" height="30" as="geometry" />
        </mxCell>
        <mxCell id="2IUhI4EKlEKc684zUrsK-24" value="" style="verticalLabelPosition=bottom;html=1;verticalAlign=top;align=center;shape=mxgraph.floorplan.flat_tv;direction=south;" vertex="1" parent="1">
          <mxGeometry x="140" y="50" width="10" height="50" as="geometry" />
        </mxCell>
        <mxCell id="2IUhI4EKlEKc684zUrsK-26" value="" style="verticalLabelPosition=bottom;html=1;verticalAlign=top;align=center;shape=mxgraph.floorplan.toilet;direction=west;" vertex="1" parent="1">
          <mxGeometry x="63.49000000000001" y="333" width="20" height="27" as="geometry" />
        </mxCell>
        <mxCell id="2IUhI4EKlEKc684zUrsK-31" value="" style="shape=image;verticalLabelPosition=bottom;labelBackgroundColor=default;verticalAlign=top;aspect=fixed;imageAspect=0;image=data:image/jpeg,/9j/4AAQSkZJRgABAQAAAQABAAD/2wBDAAsJCQcJCQcJCQkJCwkJCQkJCQsJCwsMCwsLDA0QDBEODQ4MEhkSJRodJR0ZHxwpKRYlNzU2GioyPi0pMBk7IRP/2wBDAQcICAsJCxULCxUsHRkdLCwsLCwsLCwsLCwsLCwsLCwsLCwsLCwsLCwsLCwsLCwsLCwsLCwsLCwsLCwsLCwsLCz/wAARCADqAWQDASIAAhEBAxEB/8QAFwABAQEBAAAAAAAAAAAAAAAAAAECB//EABQQAQAAAAAAAAAAAAAAAAAAAAD/xAAUAQEAAAAAAAAAAAAAAAAAAAAA/8QAFBEBAAAAAAAAAAAAAAAAAAAAAP/aAAwDAQACEQMRAD8A62AAAAAAAAAAAAAAAAAAAAAAAAAAAAAAAAAAAAAAAAAAAAAAAAAAAAAAAAAAAAAAAAAAAAAAAAAAAAAAAAAAAAAAAAAAAAAAAAAAAAAAAAAAAAAAAAAAAAAAAAAAqAAAAAAAAAAAAAAAAAAAAAAAAAAAAAAAAAAAAAAAAAAAAAAAAAAAAAAAAAAAAAAAAAAAAAAAAAAAAAAAAAAAAAAAAAAAAAAAAAAAAAAAAAAAAAAAAAAAAAAAAAAAAAAAAAAAAAAAAAAKCAAAAAAAAAAAAAAAAAAAAAAAAAAAAAAAAAAAAAAAAAAAAAAAAAAAAAAAAAAAAAAAAAAAAAAAAAAAAAAAAAAAAAAAAAAAoIAAAAAAAAAAAAAAAAAAAAAAAAAAAAAAAAAAAAAAAAAAAAAAAAAAAAAAAAAAAAAAAAAAAAAAAAAAAAAAAAAAAAAAAAAAqAAAAAAAAAAAAAAAAAAAAAAAAAAAAAAAAAAAAAAAAAAAAAAAAAAAAAAAAAAAAAAAAAAAAAAAAAAAAAAAAAAAAAAAAAAAAKCAAAAAAAAAAAAAAAAAAAAAAAAAAAAAAAAAAAAAAAAAAAAKgAAAqAAAAAAAAAAAAAAAAAAAAAAAAAAAAAAAAAAAAAAAAACoAAAAAAAAAAAAAAACKAIoAICiKAAAIAoAAgCiKACAoICiKAIAoICiKArKgCAKAAIAogCggKAAIA//2Q==;" vertex="1" parent="1">
          <mxGeometry x="91.74" y="90" width="36.51" height="24" as="geometry" />
        </mxCell>
        <mxCell id="2IUhI4EKlEKc684zUrsK-32" value="" style="shape=image;verticalLabelPosition=bottom;labelBackgroundColor=default;verticalAlign=top;aspect=fixed;imageAspect=0;image=data:image/jpeg,/9j/4AAQSkZJRgABAQAAAQABAAD/2wBDAAsJCQcJCQcJCQkJCwkJCQkJCQsJCwsMCwsLDA0QDBEODQ4MEhkSJRodJR0ZHxwpKRYlNzU2GioyPi0pMBk7IRP/2wBDAQcICAsJCxULCxUsHRkdLCwsLCwsLCwsLCwsLCwsLCwsLCwsLCwsLCwsLCwsLCwsLCwsLCwsLCwsLCwsLCwsLCz/wAARCADqAWQDASIAAhEBAxEB/8QAFwABAQEBAAAAAAAAAAAAAAAAAAECB//EABQQAQAAAAAAAAAAAAAAAAAAAAD/xAAUAQEAAAAAAAAAAAAAAAAAAAAA/8QAFBEBAAAAAAAAAAAAAAAAAAAAAP/aAAwDAQACEQMRAD8A62AAAAAAAAAAAAAAAAAAAAAAAAAAAAAAAAAAAAAAAAAAAAAAAAAAAAAAAAAAAAAAAAAAAAAAAAAAAAAAAAAAAAAAAAAAAAAAAAAAAAAAAAAAAAAAAAAAAAAAAAAAqAAAAAAAAAAAAAAAAAAAAAAAAAAAAAAAAAAAAAAAAAAAAAAAAAAAAAAAAAAAAAAAAAAAAAAAAAAAAAAAAAAAAAAAAAAAAAAAAAAAAAAAAAAAAAAAAAAAAAAAAAAAAAAAAAAAAAAAAAAKCAAAAAAAAAAAAAAAAAAAAAAAAAAAAAAAAAAAAAAAAAAAAAAAAAAAAAAAAAAAAAAAAAAAAAAAAAAAAAAAAAAAAAAAAAAAoIAAAAAAAAAAAAAAAAAAAAAAAAAAAAAAAAAAAAAAAAAAAAAAAAAAAAAAAAAAAAAAAAAAAAAAAAAAAAAAAAAAAAAAAAAAqAAAAAAAAAAAAAAAAAAAAAAAAAAAAAAAAAAAAAAAAAAAAAAAAAAAAAAAAAAAAAAAAAAAAAAAAAAAAAAAAAAAAAAAAAAAAKCAAAAAAAAAAAAAAAAAAAAAAAAAAAAAAAAAAAAAAAAAAAAKgAAAqAAAAAAAAAAAAAAAAAAAAAAAAAAAAAAAAAAAAAAAAACoAAAAAAAAAAAAAAACKAIoAICiKAAAIAoAAgCiKACAoICiKAIAoICiKArKgCAKAAIAogCggKAAIA//2Q==;" vertex="1" parent="1">
          <mxGeometry x="100" y="320.72" width="28.25" height="18.57" as="geometry" />
        </mxCell>
        <mxCell id="2IUhI4EKlEKc684zUrsK-34" value="" style="verticalLabelPosition=bottom;html=1;verticalAlign=top;align=center;shape=mxgraph.floorplan.water_cooler;" vertex="1" parent="1">
          <mxGeometry x="76.99000000000001" y="300.72" width="20" height="20" as="geometry" />
        </mxCell>
        <mxCell id="2IUhI4EKlEKc684zUrsK-40" value="" style="verticalLabelPosition=bottom;html=1;verticalAlign=top;align=center;shape=mxgraph.floorplan.chair;shadow=0;" vertex="1" parent="1">
          <mxGeometry x="200" y="30" width="15.64" height="20" as="geometry" />
        </mxCell>
        <mxCell id="2IUhI4EKlEKc684zUrsK-42" value="" style="shape=rect;shadow=0;html=1;" vertex="1" parent="1">
          <mxGeometry x="180.64" y="43.38" width="50" height="6.62" as="geometry" />
        </mxCell>
        <mxCell id="2IUhI4EKlEKc684zUrsK-44" value="" style="sketch=0;pointerEvents=1;shadow=0;dashed=0;html=1;strokeColor=none;fillColor=#434445;aspect=fixed;labelPosition=center;verticalLabelPosition=bottom;verticalAlign=top;align=center;outlineConnect=0;shape=mxgraph.vvd.monitor;direction=west;" vertex="1" parent="1">
          <mxGeometry x="195.64" y="49.99999999999999" width="17.74" height="16.5" as="geometry" />
        </mxCell>
        <mxCell id="2IUhI4EKlEKc684zUrsK-46" value="" style="sketch=0;pointerEvents=1;shadow=0;dashed=0;html=1;strokeColor=none;fillColor=#434445;aspect=fixed;labelPosition=center;verticalLabelPosition=bottom;verticalAlign=top;align=center;outlineConnect=0;shape=mxgraph.vvd.monitor;direction=west;" vertex="1" parent="1">
          <mxGeometry x="401.13" y="49.99999999999999" width="17.74" height="16.5" as="geometry" />
        </mxCell>
        <mxCell id="2IUhI4EKlEKc684zUrsK-48" value="" style="sketch=0;pointerEvents=1;shadow=0;dashed=0;html=1;strokeColor=none;fillColor=#434445;aspect=fixed;labelPosition=center;verticalLabelPosition=bottom;verticalAlign=top;align=center;outlineConnect=0;shape=mxgraph.vvd.monitor;direction=west;" vertex="1" parent="1">
          <mxGeometry x="301.13" y="50" width="17.74" height="16.5" as="geometry" />
        </mxCell>
        <mxCell id="2IUhI4EKlEKc684zUrsK-54" value="" style="verticalLabelPosition=bottom;html=1;verticalAlign=top;align=center;shape=mxgraph.floorplan.chair;shadow=0;direction=east;" vertex="1" parent="1">
          <mxGeometry x="301.13" y="29.999999999999996" width="15.64" height="20" as="geometry" />
        </mxCell>
        <mxCell id="2IUhI4EKlEKc684zUrsK-50" value="" style="shape=rect;shadow=0;html=1;" vertex="1" parent="1">
          <mxGeometry x="285" y="43.38" width="50" height="6.62" as="geometry" />
        </mxCell>
        <mxCell id="2IUhI4EKlEKc684zUrsK-55" value="&lt;span style=&quot;color: rgba(0, 0, 0, 0); font-family: monospace; font-size: 0px; text-align: start;&quot;&gt;%3CmxGraphModel%3E%3Croot%3E%3CmxCell%20id%3D%220%22%2F%3E%3CmxCell%20id%3D%221%22%20parent%3D%220%22%2F%3E%3CmxCell%20id%3D%222%22%20value%3D%22%22%20style%3D%22verticalLabelPosition%3Dbottom%3Bhtml%3D1%3BverticalAlign%3Dtop%3Balign%3Dcenter%3Bshape%3Dmxgraph.floorplan.chair%3Bshadow%3D0%3Bdirection%3Dwest%3B%22%20vertex%3D%221%22%20parent%3D%221%22%3E%3CmxGeometry%20x%3D%22195.64%22%20y%3D%2270%22%20width%3D%2215.64%22%20height%3D%2220%22%20as%3D%22geometry%22%2F%3E%3C%2FmxCell%3E%3C%2Froot%3E%3C%2FmxGraphModel%3E&lt;/span&gt;" style="verticalLabelPosition=bottom;html=1;verticalAlign=top;align=center;shape=mxgraph.floorplan.chair;shadow=0;direction=east;" vertex="1" parent="1">
          <mxGeometry x="401.13" y="29.999999999999996" width="15.64" height="20" as="geometry" />
        </mxCell>
        <mxCell id="2IUhI4EKlEKc684zUrsK-49" value="" style="shape=rect;shadow=0;html=1;" vertex="1" parent="1">
          <mxGeometry x="385" y="43.38" width="50" height="6.62" as="geometry" />
        </mxCell>
        <mxCell id="2IUhI4EKlEKc684zUrsK-58" value="" style="verticalLabelPosition=bottom;html=1;verticalAlign=top;align=center;shape=mxgraph.floorplan.chair;shadow=0;direction=west;" vertex="1" parent="1">
          <mxGeometry x="401.13" y="339.28999999999996" width="15.64" height="20" as="geometry" />
        </mxCell>
        <mxCell id="2IUhI4EKlEKc684zUrsK-59" value="" style="verticalLabelPosition=bottom;html=1;verticalAlign=top;align=center;shape=mxgraph.floorplan.chair;shadow=0;direction=west;" vertex="1" parent="1">
          <mxGeometry x="200" y="340.72" width="15.64" height="20" as="geometry" />
        </mxCell>
        <mxCell id="2IUhI4EKlEKc684zUrsK-60" value="" style="verticalLabelPosition=bottom;html=1;verticalAlign=top;align=center;shape=mxgraph.floorplan.chair;shadow=0;direction=west;" vertex="1" parent="1">
          <mxGeometry x="302.17999999999995" y="340.72" width="15.64" height="20" as="geometry" />
        </mxCell>
        <mxCell id="2IUhI4EKlEKc684zUrsK-63" value="" style="sketch=0;pointerEvents=1;shadow=0;dashed=0;html=1;strokeColor=none;fillColor=#434445;aspect=fixed;labelPosition=center;verticalLabelPosition=bottom;verticalAlign=top;align=center;outlineConnect=0;shape=mxgraph.vvd.monitor;direction=east;" vertex="1" parent="1">
          <mxGeometry x="302.18" y="322.79" width="17.74" height="16.5" as="geometry" />
        </mxCell>
        <mxCell id="2IUhI4EKlEKc684zUrsK-64" value="" style="sketch=0;pointerEvents=1;shadow=0;dashed=0;html=1;strokeColor=none;fillColor=#434445;aspect=fixed;labelPosition=center;verticalLabelPosition=bottom;verticalAlign=top;align=center;outlineConnect=0;shape=mxgraph.vvd.monitor;direction=east;" vertex="1" parent="1">
          <mxGeometry x="396" y="322.79" width="17.74" height="16.5" as="geometry" />
        </mxCell>
        <mxCell id="2IUhI4EKlEKc684zUrsK-65" value="" style="sketch=0;pointerEvents=1;shadow=0;dashed=0;html=1;strokeColor=none;fillColor=#434445;aspect=fixed;labelPosition=center;verticalLabelPosition=bottom;verticalAlign=top;align=center;outlineConnect=0;shape=mxgraph.vvd.monitor;direction=east;" vertex="1" parent="1">
          <mxGeometry x="201.13" y="321.76" width="17.74" height="16.5" as="geometry" />
        </mxCell>
        <mxCell id="2IUhI4EKlEKc684zUrsK-66" value="" style="shape=rect;shadow=0;html=1;" vertex="1" parent="1">
          <mxGeometry x="191.11999999999998" y="339.29" width="50" height="6.62" as="geometry" />
        </mxCell>
        <mxCell id="2IUhI4EKlEKc684zUrsK-67" value="" style="shape=rect;shadow=0;html=1;" vertex="1" parent="1">
          <mxGeometry x="290" y="339.29" width="50" height="6.62" as="geometry" />
        </mxCell>
        <mxCell id="2IUhI4EKlEKc684zUrsK-68" value="" style="shape=rect;shadow=0;html=1;" vertex="1" parent="1">
          <mxGeometry x="389" y="339.29" width="50" height="6.62" as="geometry" />
        </mxCell>
        <mxCell id="2IUhI4EKlEKc684zUrsK-69" value="" style="verticalLabelPosition=bottom;html=1;verticalAlign=top;align=center;shape=mxgraph.floorplan.toilet;direction=west;" vertex="1" parent="1">
          <mxGeometry x="495" y="329.1" width="20" height="27" as="geometry" />
        </mxCell>
        <mxCell id="2IUhI4EKlEKc684zUrsK-70" value="" style="verticalLabelPosition=bottom;html=1;verticalAlign=top;align=center;shape=mxgraph.floorplan.water_cooler;" vertex="1" parent="1">
          <mxGeometry x="470" y="309.29" width="20" height="20" as="geometry" />
        </mxCell>
        <mxCell id="2IUhI4EKlEKc684zUrsK-71" value="" style="shape=image;verticalLabelPosition=bottom;labelBackgroundColor=default;verticalAlign=top;aspect=fixed;imageAspect=0;image=data:image/jpeg,/9j/4AAQSkZJRgABAQAAAQABAAD/2wBDAAsJCQcJCQcJCQkJCwkJCQkJCQsJCwsMCwsLDA0QDBEODQ4MEhkSJRodJR0ZHxwpKRYlNzU2GioyPi0pMBk7IRP/2wBDAQcICAsJCxULCxUsHRkdLCwsLCwsLCwsLCwsLCwsLCwsLCwsLCwsLCwsLCwsLCwsLCwsLCwsLCwsLCwsLCwsLCz/wAARCADqAWQDASIAAhEBAxEB/8QAFwABAQEBAAAAAAAAAAAAAAAAAAECB//EABQQAQAAAAAAAAAAAAAAAAAAAAD/xAAUAQEAAAAAAAAAAAAAAAAAAAAA/8QAFBEBAAAAAAAAAAAAAAAAAAAAAP/aAAwDAQACEQMRAD8A62AAAAAAAAAAAAAAAAAAAAAAAAAAAAAAAAAAAAAAAAAAAAAAAAAAAAAAAAAAAAAAAAAAAAAAAAAAAAAAAAAAAAAAAAAAAAAAAAAAAAAAAAAAAAAAAAAAAAAAAAAAqAAAAAAAAAAAAAAAAAAAAAAAAAAAAAAAAAAAAAAAAAAAAAAAAAAAAAAAAAAAAAAAAAAAAAAAAAAAAAAAAAAAAAAAAAAAAAAAAAAAAAAAAAAAAAAAAAAAAAAAAAAAAAAAAAAAAAAAAAAKCAAAAAAAAAAAAAAAAAAAAAAAAAAAAAAAAAAAAAAAAAAAAAAAAAAAAAAAAAAAAAAAAAAAAAAAAAAAAAAAAAAAAAAAAAAAoIAAAAAAAAAAAAAAAAAAAAAAAAAAAAAAAAAAAAAAAAAAAAAAAAAAAAAAAAAAAAAAAAAAAAAAAAAAAAAAAAAAAAAAAAAAqAAAAAAAAAAAAAAAAAAAAAAAAAAAAAAAAAAAAAAAAAAAAAAAAAAAAAAAAAAAAAAAAAAAAAAAAAAAAAAAAAAAAAAAAAAAAKCAAAAAAAAAAAAAAAAAAAAAAAAAAAAAAAAAAAAAAAAAAAAKgAAAqAAAAAAAAAAAAAAAAAAAAAAAAAAAAAAAAAAAAAAAAACoAAAAAAAAAAAAAAACKAIoAICiKAAAIAoAAgCiKACAoICiKAIAoICiKArKgCAKAAIAogCggKAAIA//2Q==;" vertex="1" parent="1">
          <mxGeometry x="184.36" y="278" width="21.3" height="14" as="geometry" />
        </mxCell>
        <mxCell id="2IUhI4EKlEKc684zUrsK-72" value="" style="shape=image;verticalLabelPosition=bottom;labelBackgroundColor=default;verticalAlign=top;aspect=fixed;imageAspect=0;image=data:image/jpeg,/9j/4AAQSkZJRgABAQAAAQABAAD/2wBDAAsJCQcJCQcJCQkJCwkJCQkJCQsJCwsMCwsLDA0QDBEODQ4MEhkSJRodJR0ZHxwpKRYlNzU2GioyPi0pMBk7IRP/2wBDAQcICAsJCxULCxUsHRkdLCwsLCwsLCwsLCwsLCwsLCwsLCwsLCwsLCwsLCwsLCwsLCwsLCwsLCwsLCwsLCwsLCz/wAARCADqAWQDASIAAhEBAxEB/8QAFwABAQEBAAAAAAAAAAAAAAAAAAECB//EABQQAQAAAAAAAAAAAAAAAAAAAAD/xAAUAQEAAAAAAAAAAAAAAAAAAAAA/8QAFBEBAAAAAAAAAAAAAAAAAAAAAP/aAAwDAQACEQMRAD8A62AAAAAAAAAAAAAAAAAAAAAAAAAAAAAAAAAAAAAAAAAAAAAAAAAAAAAAAAAAAAAAAAAAAAAAAAAAAAAAAAAAAAAAAAAAAAAAAAAAAAAAAAAAAAAAAAAAAAAAAAAAqAAAAAAAAAAAAAAAAAAAAAAAAAAAAAAAAAAAAAAAAAAAAAAAAAAAAAAAAAAAAAAAAAAAAAAAAAAAAAAAAAAAAAAAAAAAAAAAAAAAAAAAAAAAAAAAAAAAAAAAAAAAAAAAAAAAAAAAAAAKCAAAAAAAAAAAAAAAAAAAAAAAAAAAAAAAAAAAAAAAAAAAAAAAAAAAAAAAAAAAAAAAAAAAAAAAAAAAAAAAAAAAAAAAAAAAoIAAAAAAAAAAAAAAAAAAAAAAAAAAAAAAAAAAAAAAAAAAAAAAAAAAAAAAAAAAAAAAAAAAAAAAAAAAAAAAAAAAAAAAAAAAqAAAAAAAAAAAAAAAAAAAAAAAAAAAAAAAAAAAAAAAAAAAAAAAAAAAAAAAAAAAAAAAAAAAAAAAAAAAAAAAAAAAAAAAAAAAAKCAAAAAAAAAAAAAAAAAAAAAAAAAAAAAAAAAAAAAAAAAAAAKgAAAqAAAAAAAAAAAAAAAAAAAAAAAAAAAAAAAAAAAAAAAAACoAAAAAAAAAAAAAAACKAIoAICiKAAAIAoAAgCiKACAoICiKAIAoICiKArKgCAKAAIAogCggKAAIA//2Q==;" vertex="1" parent="1">
          <mxGeometry x="217.17000000000002" y="95" width="21.3" height="14" as="geometry" />
        </mxCell>
        <mxCell id="2IUhI4EKlEKc684zUrsK-73" value="" style="shape=image;verticalLabelPosition=bottom;labelBackgroundColor=default;verticalAlign=top;aspect=fixed;imageAspect=0;image=data:image/jpeg,/9j/4AAQSkZJRgABAQAAAQABAAD/2wBDAAsJCQcJCQcJCQkJCwkJCQkJCQsJCwsMCwsLDA0QDBEODQ4MEhkSJRodJR0ZHxwpKRYlNzU2GioyPi0pMBk7IRP/2wBDAQcICAsJCxULCxUsHRkdLCwsLCwsLCwsLCwsLCwsLCwsLCwsLCwsLCwsLCwsLCwsLCwsLCwsLCwsLCwsLCwsLCz/wAARCADqAWQDASIAAhEBAxEB/8QAFwABAQEBAAAAAAAAAAAAAAAAAAECB//EABQQAQAAAAAAAAAAAAAAAAAAAAD/xAAUAQEAAAAAAAAAAAAAAAAAAAAA/8QAFBEBAAAAAAAAAAAAAAAAAAAAAP/aAAwDAQACEQMRAD8A62AAAAAAAAAAAAAAAAAAAAAAAAAAAAAAAAAAAAAAAAAAAAAAAAAAAAAAAAAAAAAAAAAAAAAAAAAAAAAAAAAAAAAAAAAAAAAAAAAAAAAAAAAAAAAAAAAAAAAAAAAAqAAAAAAAAAAAAAAAAAAAAAAAAAAAAAAAAAAAAAAAAAAAAAAAAAAAAAAAAAAAAAAAAAAAAAAAAAAAAAAAAAAAAAAAAAAAAAAAAAAAAAAAAAAAAAAAAAAAAAAAAAAAAAAAAAAAAAAAAAAKCAAAAAAAAAAAAAAAAAAAAAAAAAAAAAAAAAAAAAAAAAAAAAAAAAAAAAAAAAAAAAAAAAAAAAAAAAAAAAAAAAAAAAAAAAAAoIAAAAAAAAAAAAAAAAAAAAAAAAAAAAAAAAAAAAAAAAAAAAAAAAAAAAAAAAAAAAAAAAAAAAAAAAAAAAAAAAAAAAAAAAAAqAAAAAAAAAAAAAAAAAAAAAAAAAAAAAAAAAAAAAAAAAAAAAAAAAAAAAAAAAAAAAAAAAAAAAAAAAAAAAAAAAAAAAAAAAAAAKCAAAAAAAAAAAAAAAAAAAAAAAAAAAAAAAAAAAAAAAAAAAAKgAAAqAAAAAAAAAAAAAAAAAAAAAAAAAAAAAAAAAAAAAAAAACoAAAAAAAAAAAAAAACKAIoAICiKAAAIAoAAgCiKACAoICiKAIAoICiKArKgCAKAAIAogCggKAAIA//2Q==;" vertex="1" parent="1">
          <mxGeometry x="316.77" y="95" width="21.3" height="14" as="geometry" />
        </mxCell>
        <mxCell id="2IUhI4EKlEKc684zUrsK-74" value="" style="shape=image;verticalLabelPosition=bottom;labelBackgroundColor=default;verticalAlign=top;aspect=fixed;imageAspect=0;image=data:image/jpeg,/9j/4AAQSkZJRgABAQAAAQABAAD/2wBDAAsJCQcJCQcJCQkJCwkJCQkJCQsJCwsMCwsLDA0QDBEODQ4MEhkSJRodJR0ZHxwpKRYlNzU2GioyPi0pMBk7IRP/2wBDAQcICAsJCxULCxUsHRkdLCwsLCwsLCwsLCwsLCwsLCwsLCwsLCwsLCwsLCwsLCwsLCwsLCwsLCwsLCwsLCwsLCz/wAARCADqAWQDASIAAhEBAxEB/8QAFwABAQEBAAAAAAAAAAAAAAAAAAECB//EABQQAQAAAAAAAAAAAAAAAAAAAAD/xAAUAQEAAAAAAAAAAAAAAAAAAAAA/8QAFBEBAAAAAAAAAAAAAAAAAAAAAP/aAAwDAQACEQMRAD8A62AAAAAAAAAAAAAAAAAAAAAAAAAAAAAAAAAAAAAAAAAAAAAAAAAAAAAAAAAAAAAAAAAAAAAAAAAAAAAAAAAAAAAAAAAAAAAAAAAAAAAAAAAAAAAAAAAAAAAAAAAAqAAAAAAAAAAAAAAAAAAAAAAAAAAAAAAAAAAAAAAAAAAAAAAAAAAAAAAAAAAAAAAAAAAAAAAAAAAAAAAAAAAAAAAAAAAAAAAAAAAAAAAAAAAAAAAAAAAAAAAAAAAAAAAAAAAAAAAAAAAKCAAAAAAAAAAAAAAAAAAAAAAAAAAAAAAAAAAAAAAAAAAAAAAAAAAAAAAAAAAAAAAAAAAAAAAAAAAAAAAAAAAAAAAAAAAAoIAAAAAAAAAAAAAAAAAAAAAAAAAAAAAAAAAAAAAAAAAAAAAAAAAAAAAAAAAAAAAAAAAAAAAAAAAAAAAAAAAAAAAAAAAAqAAAAAAAAAAAAAAAAAAAAAAAAAAAAAAAAAAAAAAAAAAAAAAAAAAAAAAAAAAAAAAAAAAAAAAAAAAAAAAAAAAAAAAAAAAAAKCAAAAAAAAAAAAAAAAAAAAAAAAAAAAAAAAAAAAAAAAAAAAKgAAAqAAAAAAAAAAAAAAAAAAAAAAAAAAAAAAAAAAAAAAAAACoAAAAAAAAAAAAAAACKAIoAICiKAAAIAoAAgCiKACAoICiKAIAoICiKArKgCAKAAIAogCggKAAIA//2Q==;" vertex="1" parent="1">
          <mxGeometry x="416.53" y="90" width="21.3" height="14" as="geometry" />
        </mxCell>
        <mxCell id="2IUhI4EKlEKc684zUrsK-75" value="" style="shape=image;verticalLabelPosition=bottom;labelBackgroundColor=default;verticalAlign=top;aspect=fixed;imageAspect=0;image=data:image/jpeg,/9j/4AAQSkZJRgABAQAAAQABAAD/2wBDAAsJCQcJCQcJCQkJCwkJCQkJCQsJCwsMCwsLDA0QDBEODQ4MEhkSJRodJR0ZHxwpKRYlNzU2GioyPi0pMBk7IRP/2wBDAQcICAsJCxULCxUsHRkdLCwsLCwsLCwsLCwsLCwsLCwsLCwsLCwsLCwsLCwsLCwsLCwsLCwsLCwsLCwsLCwsLCz/wAARCADqAWQDASIAAhEBAxEB/8QAFwABAQEBAAAAAAAAAAAAAAAAAAECB//EABQQAQAAAAAAAAAAAAAAAAAAAAD/xAAUAQEAAAAAAAAAAAAAAAAAAAAA/8QAFBEBAAAAAAAAAAAAAAAAAAAAAP/aAAwDAQACEQMRAD8A62AAAAAAAAAAAAAAAAAAAAAAAAAAAAAAAAAAAAAAAAAAAAAAAAAAAAAAAAAAAAAAAAAAAAAAAAAAAAAAAAAAAAAAAAAAAAAAAAAAAAAAAAAAAAAAAAAAAAAAAAAAqAAAAAAAAAAAAAAAAAAAAAAAAAAAAAAAAAAAAAAAAAAAAAAAAAAAAAAAAAAAAAAAAAAAAAAAAAAAAAAAAAAAAAAAAAAAAAAAAAAAAAAAAAAAAAAAAAAAAAAAAAAAAAAAAAAAAAAAAAAKCAAAAAAAAAAAAAAAAAAAAAAAAAAAAAAAAAAAAAAAAAAAAAAAAAAAAAAAAAAAAAAAAAAAAAAAAAAAAAAAAAAAAAAAAAAAoIAAAAAAAAAAAAAAAAAAAAAAAAAAAAAAAAAAAAAAAAAAAAAAAAAAAAAAAAAAAAAAAAAAAAAAAAAAAAAAAAAAAAAAAAAAqAAAAAAAAAAAAAAAAAAAAAAAAAAAAAAAAAAAAAAAAAAAAAAAAAAAAAAAAAAAAAAAAAAAAAAAAAAAAAAAAAAAAAAAAAAAAKCAAAAAAAAAAAAAAAAAAAAAAAAAAAAAAAAAAAAAAAAAAAAKgAAAqAAAAAAAAAAAAAAAAAAAAAAAAAAAAAAAAAAAAAAAAACoAAAAAAAAAAAAAAACKAIoAICiKAAAIAoAAgCiKACAoICiKAIAoICiKArKgCAKAAIAogCggKAAIA//2Q==;" vertex="1" parent="1">
          <mxGeometry x="379.83" y="278" width="21.3" height="14" as="geometry" />
        </mxCell>
        <mxCell id="2IUhI4EKlEKc684zUrsK-76" value="" style="shape=image;verticalLabelPosition=bottom;labelBackgroundColor=default;verticalAlign=top;aspect=fixed;imageAspect=0;image=data:image/jpeg,/9j/4AAQSkZJRgABAQAAAQABAAD/2wBDAAsJCQcJCQcJCQkJCwkJCQkJCQsJCwsMCwsLDA0QDBEODQ4MEhkSJRodJR0ZHxwpKRYlNzU2GioyPi0pMBk7IRP/2wBDAQcICAsJCxULCxUsHRkdLCwsLCwsLCwsLCwsLCwsLCwsLCwsLCwsLCwsLCwsLCwsLCwsLCwsLCwsLCwsLCwsLCz/wAARCADqAWQDASIAAhEBAxEB/8QAFwABAQEBAAAAAAAAAAAAAAAAAAECB//EABQQAQAAAAAAAAAAAAAAAAAAAAD/xAAUAQEAAAAAAAAAAAAAAAAAAAAA/8QAFBEBAAAAAAAAAAAAAAAAAAAAAP/aAAwDAQACEQMRAD8A62AAAAAAAAAAAAAAAAAAAAAAAAAAAAAAAAAAAAAAAAAAAAAAAAAAAAAAAAAAAAAAAAAAAAAAAAAAAAAAAAAAAAAAAAAAAAAAAAAAAAAAAAAAAAAAAAAAAAAAAAAAqAAAAAAAAAAAAAAAAAAAAAAAAAAAAAAAAAAAAAAAAAAAAAAAAAAAAAAAAAAAAAAAAAAAAAAAAAAAAAAAAAAAAAAAAAAAAAAAAAAAAAAAAAAAAAAAAAAAAAAAAAAAAAAAAAAAAAAAAAAKCAAAAAAAAAAAAAAAAAAAAAAAAAAAAAAAAAAAAAAAAAAAAAAAAAAAAAAAAAAAAAAAAAAAAAAAAAAAAAAAAAAAAAAAAAAAoIAAAAAAAAAAAAAAAAAAAAAAAAAAAAAAAAAAAAAAAAAAAAAAAAAAAAAAAAAAAAAAAAAAAAAAAAAAAAAAAAAAAAAAAAAAqAAAAAAAAAAAAAAAAAAAAAAAAAAAAAAAAAAAAAAAAAAAAAAAAAAAAAAAAAAAAAAAAAAAAAAAAAAAAAAAAAAAAAAAAAAAAKCAAAAAAAAAAAAAAAAAAAAAAAAAAAAAAAAAAAAAAAAAAAAKgAAAqAAAAAAAAAAAAAAAAAAAAAAAAAAAAAAAAAAAAAAAAACoAAAAAAAAAAAAAAACKAIoAICiKAAAIAoAAgCiKACAoICiKAIAoICiKArKgCAKAAIAogCggKAAIA//2Q==;" vertex="1" parent="1">
          <mxGeometry x="279.83" y="278" width="21.3" height="14" as="geometry" />
        </mxCell>
        <mxCell id="2IUhI4EKlEKc684zUrsK-81" value="" style="shape=image;verticalLabelPosition=bottom;labelBackgroundColor=default;verticalAlign=top;aspect=fixed;imageAspect=0;image=data:image/jpeg,/9j/4AAQSkZJRgABAQAAAQABAAD/2wBDAAsJCQcJCQcJCQkJCwkJCQkJCQsJCwsMCwsLDA0QDBEODQ4MEhkSJRodJR0ZHxwpKRYlNzU2GioyPi0pMBk7IRP/2wBDAQcICAsJCxULCxUsHRkdLCwsLCwsLCwsLCwsLCwsLCwsLCwsLCwsLCwsLCwsLCwsLCwsLCwsLCwsLCwsLCwsLCz/wAARCAECAQIDASIAAhEBAxEB/8QAHAABAAICAwEAAAAAAAAAAAAAAAYHBQgBAwQC/8QAQxAAAQMDAgMGAwUFBQcFAAAAAQACAwQFEQYhBxJBEyIxUWGRFDJxFSNCgaFScoKisSRiY3OSFjNTk7LBw0WUo9Hh/8QAFAEBAAAAAAAAAAAAAAAAAAAAAP/EABQRAQAAAAAAAAAAAAAAAAAAAAD/2gAMAwEAAhEDEQA/ALbREQEREBERAREQEREBERAREQEREBERAREQEREBERAREQEREBERAREQERED2T2RED2T2RED2T2RED2T2RED2T2RED2T2RED2T2RED2T2RRLUOvtMWAyQOnNbXtJaaShLXmNw2xNITyN9Rkn0QS32T2Vd2jivpyvnEFxp57YXnEcsjxUU59JHsaHN/0EeZCsCGaCoiimgljlhlaHxSQva+N7T4Fj2Egj80HZ7J7IiB7J7IiB7J7IiB7J7IiB7J7IiB7J7IiB7J7IiB7IiICIiAiIgIiICIiAiIgIiwV91XpzTrCbjVt7ct5o6SnxLVyeWIwRgHoXED1QZ1RrUGtNNadD46up7atA7tFScsk+enab8rR9SPQFVTqHibqG7drT27NroXZaeweXVkjf78+xH0aB44yVAy5ziS4kkkkknJJPUkoJnqLiLqW+drBBJ9nW9+Qaeje7tZGnO01Rs8+RA5QfIqFovuKKWaSKGKN8ksr2xxxxtL3ve44DWtbuSeiD4Wasep9Q6el57bWPZEXc0tNL95Sy/vxO2z6jB9V5rvZLxYqllJc6V8Ez4mTMzhzHseAe49vdOPB2DsQQscgvbT3FGw3Psqa7NFsrXYb2j3c1DI7wyJTu3+LYftFWA17HtY9jmuY9rXsc0gtc0jILSNsLUlSGwaw1JpxzW0NVz0nNl9FU5kpXZOSWtzlpPUtI/NBsuig+nuJOmrz2UFY4WyudhvZ1Tx8NI7/CqNm/k4N8eqm+Qceu6DlERAREQEREBERAREQEREBERAREQEREBERAWJvOorBYIe2ulbHCXNLooB36mbx/3cLe8R0zjHmQotxH1dX6ep6KhtjhHX3ASyPqCA409Owhv3bXDHM4nAO+ADtkgtouoqKqqmlqKmeaeeV3NLLPI6SR7vNz3kk+6CwdRcU71cO1prIx1tpDlvbkh1dI3wzzDus/LJ/vKu5JJZnvlle+SSRxfI+Rxc97juS5ztyV8ogIiIJLoe12286kt1vuMJmpJo6x0kYkkj5jHTvkb3oiHeIHVX3atM6Zsjue2Wymp5cFvbBrpJ+U7EdtMXSYPXvKkeGZA1jZskbx3AD1Pwkuy2GQeSuttsucJp7hR09VATkR1ETZGtd4czeYZB9Qqk4laW0zYrbbaq1UApp6i4GGVzZ6iRpj7Fz+UMle5o3HQK5lWfGAj7GsgyMm5uIHXAp35QUmiIgKU6e11qbT3Zwwz/FUDcA0VYXPia3yhdnnb18DjzBUWRBsTp3iBpm/dlAZfgLg/A+FrHNAe49IJtmO9BsfRS/P1Wo6sTQWtrzSXO2WavqZaq21s0VFCJ3F8lLLIQyMxPd3uXOAWk4AO2MbheiIiAiIgIiICIiAiIgIiICIiAiIgIiIIBxI0lW3+lpLhbW9pX25krHU+QHVNO8hxEZO3M0jIHXJ6gB1EPY+N72Pa5r2OLHtcC1zXNOCHA75HVbbFQbWWgaDULZa6hEdLeWtyZMYhrMDZtQB+LydjPQ5GOUKARd1VTVFHUVNJUxmKopppIJ43EEsljcWOaSNtiPNdKAiIg91nudTZ7nbrnTAGWiqGTBpOBI0bPjcR0cCWn6rZeyXu13+ggr7fMHxvAEkZI7WnlwCYpm9HD9fEZBydWl77XeLxZakVVrrJqWbADjGQWSNBzyyxuBY4ehBQbTvkjiZJJI9jI42Okke9waxjGgkuc47ADqtf+IeqoNRXOCCicXWy2tljp5DkfETSEdpMB48uwDc+WfxYGKvustUahYIa+sxSgN/stK3sadzhjvPa05J67k46YUeQEREBERAVg8O9H3C5XG33yqjdDa6CoZUwveC11XUQu5mCEH8LXAFzvDbA3zy+3QvDwXJlLe72B8A8CWjowe9VDO0k5HgzyHieuB890MjjjZHHGxjI42tZGxjQ1jGNGA1rRsAOiD6REQEREBcrhEBERAREQEREBERAREQEREBEWPvVc622e83BuOeioKupjyAQZI43OYCD64QVBq61aVl15S0stbK2G6lpuj6aWA/BVsxdEwHLCAMhrng794nI6e2s4O1g5jb71BJ48rKynfFj0L4nP8A+lVXJJJLJJLK5z5JHOfI95LnPe45LnE75PVXxw+1nFfKOO118oF5o4w0F5wa6BgwJWk+LwPnH8XU8gV5U8L9dU+ezpaSqAGc0tXEP0qOzP6LET6L1vTZ7Sw3E4/4EPbj3gLlswiDViSxajh/3tmusf8AmUNS3/qYvO6gubPmoqtv70Eo/q1bX+6e6DU8UVwdsKSqJ9IZD/2Xcyz32UgR2u4vJ8AykqHH9Grar3T3QaxQ6T1jOQI7Bdt+slHPG3/VI0BZSn4b6+qMZtQhacd6pqaVmPq0PL/5VsSiCkqPhBqCTBrrnbqZp8ewbNUvA9QWxt/mWO1PpLTum6vTtukudTNU11RHJcJ3CKKKmoDI2LtGx4ccnvkEvPyeHndN+vtt09bp7hXvw1g5YImkCSpmIPLFGPM9fIb9FrZebtXXu5VtzrHAz1UnPytzyRMHdZEwH8LRgD6eZ3DZ63Q0dNb7dT0T2vo4KSnhpXte17XwRxhrHB7O6cgA5C9SrjhLcpqqyV9BK8u+zawdjn8EFS0yBg9OYPP5qx0BERAREQEREBERAREQEREBERAREQEREBYDWTHSaV1O1viLZUv/ACY3nP8ARZ9dFZTRVtJW0cpPZVdNPSyY8eSZhjP9UGpy7IJ6immhqKeWSKeF7ZIpYnFkkb2nIc1zdwQuyuo6m31lZQ1LCyopJ5KeZp6PjcWnHofELzoLn0rxRpKhsVFqQtp6nZjLgxuKeboDOxnyuPUgcv7uN7OilhnjjmhkjlhkaHRyRPa9j2nwLXNJBH5rUpZW06i1FY3F1ruNRTtJ5nRNcHwPPm+GQGMn+FBtGipa38YLvEGtuVqpKrAAMlLLJSvPq4OEjc/QBSCHi/phzR8RbrvE7yibTSt9zK0/ogslFXT+LukQCWUd6c7oDDStHv8AEf8AZYit4xjDm26yd78MlbU7D6xQt/8AIgtxRHUuvdO6ebLCJG1tzbkNo6Z4PZvG2KiUZa31G59Oop68a91jeWyRTV5pqZ+Qae3j4eMg7FrnNJlI9C8qLIMtftQXfUda6tuM3MRlsEMeWwU8ZOeSJhJwPM5JONyViURBcHBtjhDqmU/K6S2xt8uZrZ3H+oVsKD8MbVLbdMwzzNLZbrUPuADhhwgc1scX5EN5h+8pwgIiICIiAiIgIiICIiAiIgIiICIiAiIgIiIINxB0xbLnZrvdIqOL7Xo6dtQyoYC2R8VOQ6RknKcO7gOMg+AVALbZ4Y5rmvaHMcC1zSMhwOxBB2WsuqbJJYL5cbcWu7Bshmo3HP3lJKS6MgnxwO6fVpQYNERAREQERc8rsc2Dy5xnG2fLKDhFkog0RRFgHIWAvcAMA47xfsevQ9PrleCQNEknLjl5jjG4/JB8Kx+GGmLbeZ7pcLpSMqaWiEEFNHNzGJ1S89o4uaCAeUAZByO/4eVcta5zmtaC5ziA0NBJJOwAAWy+j7H/ALP2C20D2gVJaamtI61U2HPBI/ZGGD91BnwAAAAAAAAB4ALlEQEREBERAREQEREBERAREQEREBERAREQEREHUSTkk9QoVxB0y6+Wz4yjhEl0tkT3xMAy6opiOaSEAblw+ZnqCPxKccrc5wucDOeqDVQMiDN2ggYzgZJHiemcnpuP/vraGtjDuXJJ32BIGSOoPhj9VafEDQ00Tqm/2SHmjcXTXKjjZl0bju6oga3flPi8dNyNieSqBNIC45GXFxOw2J8SEHd2bGvecDZucY2B3zgH6fquQGHlBaO+M/K0YGGnxAz1XQZpSXHI7zeU7Dw3QTSDs/DuAhuWjG/mg+42ACVxbnlyGkjyBJIzt08l2NPMwFrfE45RjABd4nIPh9Oq85lkLeUkYxg7DJGc4yjZHsBAwQd8OAIz+aDvc1vLUd1g+XHKNsYBBGQvrlYHcgaO6AfladskdRnK83aSYeM/OcuyBn3Up0jpW66prSQXQW2EtZXVYY3AGObsocjBkP6ZyegcGd4b6YFyuDL9Uw4oba9ppQ4DFRWgcwIGPCPYk7b48irrZ45J265K6aGhordSU1FRxNipaaJsMMbfBrG+ZO5J8ST4k56r0cjd/HfZB9bEZG49EXAAaAB4BcoCIiAiIgIiICIiAiIgIiICIiAiIgJ7rw3S7WuzUctdcqllPTxkN5n7ue8gkRxsHeLj0AHT02pXU3Ey9XZ01LaDJbbeS5vOwgV07fOSRp7o9Gn+IoLXvesdLWDnZXVzHVLQf7JS/f1OfJzG7N9OZwVdXTi/cZC9lntkEDNwJq5zp5SOjhHGWsB/NyhNj0vqPUcpFvpXOi5yJqucmOljPXnlIOT6AE+itCi4R2KOieyvrqyaukYfv6flihhd05InBxIHXLt/JqCt6zXOuK4ky3usjB8G0bm0jQPL+zBp/VWPwv1ZLcIZrFcah8lbTB9RQyzvLpJ6cnL4y95yXMJyN/A+TFUN1t1TabjcLbU47ejqJIHlvyv5Ts9voRgj6r4t9fWWuto7hRv5KmkmZNC7xHM0/K4dQdwR1BQbXKvNV8M7bd3TV1nfFQXB5L5YnAiiqXnqWsGWOPUgEemTlS+w3mjv1qornS7MnZ97HnLoZ27SRO9QfDzGD1WUQau3fTuobHI5lzt9RA0Ow2bl56d+fDkmZlh+mc+ixK22e1j2ua9oc1ww5rgC0g9CDso/WaZ0FUSP+KtVnbL4v5WQ08mSM5d2RaUGtK9FJRV1dMynoqaepnd8sVNG+V59eVgJWw0Wk+HELuZtstJI/wCLIJR7SyEfopFSUtvpImx0NPTU8BAc1lLFHFGQfAgRgBBUGm+FNdO6Oq1G/wCGgBDhQ072uqJMb4llblrQeuCTv+E7q36Ojo6CngpKOCOCmgZyRQwtDWMHjsB1PiT18eq9CEgeJ90GD1TqCn03Z6u4ycrpx9zRQuJ++qng8jT4bDdzt/Bp/OgItX6yglfNHfbmHvkfK4OqHviL3nmJ7KTMf8qyevtT/wC0d4c2mfm124yU9Dj5ZTn7yo/iIGPQDqSoegsK28WNWUpa2vio7hHkcxfH8POR5NfBhn/xlT6y8TNJXQxxVMklsqXYHLXFvw5cejahvdx6uDVHNMcMLTXWOlrrvNWCsuMLamFtNIxjaaGQB0Rw5hy4jBdnzxjbJjGouHGo7J2lRSt+0re3JMtKw9vE3/Gpxl31LeYbb4QbAMeyRrHscHse1rmOYQ5rmkZBaRthfS1p0/q/UWm5GiiqTJSF2ZKKpLpKV+fEtbnLT6tI9c+Cu/S+tLJqeLlgd8NcGM5pqGdwMgA8XxOwA5vqBkdQM7hJ0REBcrhEBERAREQEREBERAWG1DqG2abt8lfXOJJyymp2ECWpmxkMZnp+0eg9jka2tpLfSVdbWSCKmpYXzzPPRjBk4HUnwA6k46rWzVGo63U10mrpy5kDcxUNPnu09ODkN/ePi89T6AAB1ag1Fd9R1rqy4SkhvM2mgYSIKaM/gib7ZPif6TvhzoqwXihdernmrLKuSnio+flgYYgx3NOG94k5yBnGPEHPdqxZ7T2q79pl9S62yxGOpDRNBUxmSFzm5DX4BBBGTuD9c42DZCWW2Wqj55X0tFQ0rA0Fxjgp4WDYNaNmj0AVZ6i4sU8Xa0unIO2fu019Wwthb6wQHDj6F2PD5SFWN4v99v0/b3StlnLSTFGSGwQg7YiiZhg9dsnqSsWg7qqqqq2pqKuqldLU1Mr5p5H/ADPkecknGy6URBPOG2p/sW6/Z1VJy226vZGS44bBV/LHL5AO+V35H8KvxajrYLh3qf7etApqqTNztbY4KguPenh8Ip9987cr/UZ/Egm3l+S1Suckktyuksr3Pkkrap8j3nLnOdK4kknqtrfL8lqndIpoLldIpo3xyx1tS17JAWua4SO2IKDxrYjhq+R+jrKXvc4tfXMbzHOGNqpAGjPQdFrutiOG8csWjrKJGOYXurZWh4LSWPqZHNcAehG4/wD1BMFXnE3VH2VbRZqSTFfdY3CYtPegoSS1x+smC0enN4EBTa63Kjs9vrrlWP5aejidK/HzOOzWsbn8TiQ0epWsl5u1Ze7nXXOrP31VKX8oJLYmDusjZno0YA+nqgx6IiCwNLcSrpZIaW33GH462wNbDCWkMq6eJuwaxx7rgB4A/TmAGFcNk1HYNQQ9tbKyOZzWh0sDu5Uw9PvInd4DpnceRK1eXbT1NVSTRVFLPLBURO5opYHujkYfNrmkFBsHqfQumr7HVVTo46G4dnJJ8bDyxsc5rS7mqmfK4ftHY+q18gqKilniqKaaSGeF7ZIZYnOZIx7fBzXDdSiu4g6wuNqktNTVRGGZhiqJ44WsqZ4j4xyPaeXB8Dhoz1O5zEkF9aE13HqBjbbc3MivMTCWOADY69jBkvjaNg8eLmj6jbIZPlqZBPPTTwVFPK+KeCRksMkZLXxyMPM1zSOoWxeitUxantTZpCxtxpOSC4xN2HOQeWZg/ZfgkeRBHTJCUIiICIiAiIgIiICFF8ySRxRySyODY42PkkcfBrGjmJKCo+LOoXF1LpymeQ0Njrblyn5nHeGF2PL5yPVvkqlXvvNymu91ulzlzz1tVLOGk55GOPcYD5NGAPovAgIiICIiAiIgLMabvlVp270Vzgy5sbuzqYgcdvTPI7SM/XxHkQD0WHRBtjR1dLX0tLWUsjZKaqhjnhe38THjIyPPzCiWp9eWXTVxbb6q31NTM6miqS+HsOUCRz2hp7Q5zt+qiPCrU/ZSv01WSfdzF89rc47Nl3fLB/Fu5vqD+0o3xMm7XWF3aDkQRUMI/wDbRyEe7igntDxSsFdXW+hZaKthraunpBJIablYZpBGHOAycDO6sjYbLU6lmdTVNLUN+aCeKZv1jeHj+i2H1xqdmnLK+aB4+0a8Op7a3bIcQC+fHkwEHruWjqgrvijqj7Qrm2GkkzR22Umsc07TVwBaW/SPcfUn9kFVsuXOc9znOJc5xLnOcSSSdySSuEBERAREQEREBSPRuoH6dvlFWOcRRyuFLcGjOHU0hALsDqw4cPpjqo4iDbdpDgCCCCMgjBBB3BC5US4e3V110tbHSO5p6Hnts5zk5p8dnnO+eQsypagIiICIiAiIgKO63q3UOlNSTtOHOonUoPXNU9tNt/qUiUA4sVPYaYjhB3rLnSwkebI2STn9WhBQyIiAiIgIiICIiAiIg7IZpqeaCoge6OaCRk0MjDhzJGODmuafMHBC9l5uk96udddJ42Ry1kjZJGRkljSGNZhvNvjZY9EBZnUN+rNQVkNTPlsdPS09HSwl3MI44mAE5wN3HLifXyG2GRAREQEREBERAREQEREFu8HKtxbqSgcTytNFWRN8ie0ief0YrcVDcJ6kQ6nkhJ2rLZVQgeb43Rzj9GuV8ICIiAiIgIiICjWr9KQaro6anfWzUstLJJLA9jGyRF72hp7WM4J8NsOHj1UlRBrreeHusLOZH/B/HUrd+3t3NNt/eiwJR693HqokWuaS1wIc0kEEYII2IIK23WIuumtNXoO+0rZSzyEY7bk7OoA9JoiJP5kGryK57nwgtkpc+03OopnbkQ1jG1EWf2WvZyvA+ocoZceGmt6DmdHRxV0bc9+gma84/wAuXlk9mlBC0Xpq6C5UD+zrqOqpXnwbVQyQuP0EgC8yAiIgIiICIiAiIgIiICIiAiL6jjlle2OJj5JHHDWRtLnOPkA3dB8opLb9C62uXKYbPUxRuI+8rg2kaB+1ictcR9GlTG2cH6t3K+73aKIeLobfG6VxH+dNygH+AoKpWZtGmNTXwt+zbbUSxE4M7gIqYb4OZpcM28gSfRXratAaLtPI6O2sqZ24+/uJ+JeSNw4MeOyB+jApSGtAAAAAAAAGAANtgEFcaP4by2Kvo7xcLiJK2mEhip6JuIGmSN0Tu0lkHM4YJ2DW79SrIREBERAREQEREBERAREQEREHy+OORrmSMa9jhhzXgOaR6h2ywVZozRdfzfEWOgBcSXOp4/hnknqXUxYf1WfRBAKvhRo2fJgdcqQ9BBUNkZ+YqGOd/MsLUcG4Tk0l+kb5NqKMP93xyj/pVsogpGbhBqVp/s9ytUo/xXVMR9hE4fqvBLwr1vHnkjoJv8qraM/81rVfqINdn8NuIDDtaA8ebKyhI/WUFdR4ecQB42SX8qmiP9JVsciDXEcPdfn/ANEm/Ooox/WVfbeHPEFxx9jOHq6soB/5lsWiDX6Phfrt+OakpYv8ysgOP+WXL2xcI9WvwZayzxg+P31S9w/JsOP1V6Igp+Dg3UnBqb9EzzEFE+TP0c+Vv9FmKXhFpiPlNVXXSocMZDHQQxn6gRud/MrIRBFaTh9oSjLXMs8Mrx4urJZqjP1ZK8s/lUipaG30LOzoqSlpo8Y5KWGOFuPpGAvQiBhERAREQEREBERAREQEREBERAREQEREBERAREQEREBERAREQEREBERAREQEREBERAREQEREBERAREQEREBERAREQEREBERAREQEREBERAREQEREBERAREQEREBERAREQEREH//Z;" vertex="1" parent="1">
          <mxGeometry x="190.87" y="246" width="28" height="28" as="geometry" />
        </mxCell>
        <mxCell id="2IUhI4EKlEKc684zUrsK-82" value="" style="rounded=0;whiteSpace=wrap;html=1;" vertex="1" parent="1">
          <mxGeometry x="250" y="133.67999999999998" width="219" height="86.77" as="geometry" />
        </mxCell>
        <mxCell id="2IUhI4EKlEKc684zUrsK-90" value="&lt;span style=&quot;color: rgba(0, 0, 0, 0); font-family: monospace; font-size: 0px; text-align: start;&quot;&gt;%3CmxGraphModel%3E%3Croot%3E%3CmxCell%20id%3D%220%22%2F%3E%3CmxCell%20id%3D%221%22%20parent%3D%220%22%2F%3E%3CmxCell%20id%3D%222%22%20value%3D%22%22%20style%3D%22verticalLabelPosition%3Dbottom%3Bhtml%3D1%3BverticalAlign%3Dtop%3Balign%3Dcenter%3Bshape%3Dmxgraph.floorplan.chair%3Bshadow%3D0%3Bdirection%3Dwest%3B%22%20vertex%3D%221%22%20parent%3D%221%22%3E%3CmxGeometry%20x%3D%22195.64%22%20y%3D%2270%22%20width%3D%2215.64%22%20height%3D%2220%22%20as%3D%22geometry%22%2F%3E%3C%2FmxCell%3E%3C%2Froot%3E%3C%2FmxGraphModel%3E&lt;/span&gt;" style="verticalLabelPosition=bottom;html=1;verticalAlign=top;align=center;shape=mxgraph.floorplan.chair;shadow=0;direction=west;" vertex="1" parent="1">
          <mxGeometry x="400.64" y="186.99999999999997" width="15.64" height="20" as="geometry" />
        </mxCell>
        <mxCell id="2IUhI4EKlEKc684zUrsK-91" value="&lt;span style=&quot;color: rgba(0, 0, 0, 0); font-family: monospace; font-size: 0px; text-align: start;&quot;&gt;%3CmxGraphModel%3E%3Croot%3E%3CmxCell%20id%3D%220%22%2F%3E%3CmxCell%20id%3D%221%22%20parent%3D%220%22%2F%3E%3CmxCell%20id%3D%222%22%20value%3D%22%22%20style%3D%22verticalLabelPosition%3Dbottom%3Bhtml%3D1%3BverticalAlign%3Dtop%3Balign%3Dcenter%3Bshape%3Dmxgraph.floorplan.chair%3Bshadow%3D0%3Bdirection%3Dwest%3B%22%20vertex%3D%221%22%20parent%3D%221%22%3E%3CmxGeometry%20x%3D%22195.64%22%20y%3D%2270%22%20width%3D%2215.64%22%20height%3D%2220%22%20as%3D%22geometry%22%2F%3E%3C%2FmxCell%3E%3C%2Froot%3E%3C%2FmxGraphModel%3E&lt;/span&gt;" style="verticalLabelPosition=bottom;html=1;verticalAlign=top;align=center;shape=mxgraph.floorplan.chair;shadow=0;direction=west;" vertex="1" parent="1">
          <mxGeometry x="427.05" y="184.64999999999998" width="15.64" height="20" as="geometry" />
        </mxCell>
        <mxCell id="2IUhI4EKlEKc684zUrsK-92" value="&lt;span style=&quot;color: rgba(0, 0, 0, 0); font-family: monospace; font-size: 0px; text-align: start;&quot;&gt;%3CmxGraphModel%3E%3Croot%3E%3CmxCell%20id%3D%220%22%2F%3E%3CmxCell%20id%3D%221%22%20parent%3D%220%22%2F%3E%3CmxCell%20id%3D%222%22%20value%3D%22%22%20style%3D%22verticalLabelPosition%3Dbottom%3Bhtml%3D1%3BverticalAlign%3Dtop%3Balign%3Dcenter%3Bshape%3Dmxgraph.floorplan.chair%3Bshadow%3D0%3Bdirection%3Dwest%3B%22%20vertex%3D%221%22%20parent%3D%221%22%3E%3CmxGeometry%20x%3D%22195.64%22%20y%3D%2270%22%20width%3D%2215.64%22%20height%3D%2220%22%20as%3D%22geometry%22%2F%3E%3C%2FmxCell%3E%3C%2Froot%3E%3C%2FmxGraphModel%3E&lt;/span&gt;" style="verticalLabelPosition=bottom;html=1;verticalAlign=top;align=center;shape=mxgraph.floorplan.chair;shadow=0;direction=south;" vertex="1" parent="1">
          <mxGeometry x="445.74" y="171.62999999999997" width="20" height="15.64" as="geometry" />
        </mxCell>
        <mxCell id="2IUhI4EKlEKc684zUrsK-94" value="&lt;span style=&quot;color: rgba(0, 0, 0, 0); font-family: monospace; font-size: 0px; text-align: start;&quot;&gt;%3CmxGraphModel%3E%3Croot%3E%3CmxCell%20id%3D%220%22%2F%3E%3CmxCell%20id%3D%221%22%20parent%3D%220%22%2F%3E%3CmxCell%20id%3D%222%22%20value%3D%22%22%20style%3D%22verticalLabelPosition%3Dbottom%3Bhtml%3D1%3BverticalAlign%3Dtop%3Balign%3Dcenter%3Bshape%3Dmxgraph.floorplan.chair%3Bshadow%3D0%3Bdirection%3Dwest%3B%22%20vertex%3D%221%22%20parent%3D%221%22%3E%3CmxGeometry%20x%3D%22195.64%22%20y%3D%2270%22%20width%3D%2215.64%22%20height%3D%2220%22%20as%3D%22geometry%22%2F%3E%3C%2FmxCell%3E%3C%2Froot%3E%3C%2FmxGraphModel%3E&lt;/span&gt;" style="verticalLabelPosition=bottom;html=1;verticalAlign=top;align=center;shape=mxgraph.floorplan.chair;shadow=0;direction=north;" vertex="1" parent="1">
          <mxGeometry x="376" y="171.62999999999994" width="20" height="15.64" as="geometry" />
        </mxCell>
        <mxCell id="2IUhI4EKlEKc684zUrsK-95" value="&lt;span style=&quot;color: rgba(0, 0, 0, 0); font-family: monospace; font-size: 0px; text-align: start;&quot;&gt;%3CmxGraphModel%3E%3Croot%3E%3CmxCell%20id%3D%220%22%2F%3E%3CmxCell%20id%3D%221%22%20parent%3D%220%22%2F%3E%3CmxCell%20id%3D%222%22%20value%3D%22%22%20style%3D%22verticalLabelPosition%3Dbottom%3Bhtml%3D1%3BverticalAlign%3Dtop%3Balign%3Dcenter%3Bshape%3Dmxgraph.floorplan.chair%3Bshadow%3D0%3Bdirection%3Dwest%3B%22%20vertex%3D%221%22%20parent%3D%221%22%3E%3CmxGeometry%20x%3D%22195.64%22%20y%3D%2270%22%20width%3D%2215.64%22%20height%3D%2220%22%20as%3D%22geometry%22%2F%3E%3C%2FmxCell%3E%3C%2Froot%3E%3C%2FmxGraphModel%3E&lt;/span&gt;" style="verticalLabelPosition=bottom;html=1;verticalAlign=top;align=center;shape=mxgraph.floorplan.chair;shadow=0;direction=east;" vertex="1" parent="1">
          <mxGeometry x="400.89" y="152.56" width="15.64" height="20" as="geometry" />
        </mxCell>
        <mxCell id="2IUhI4EKlEKc684zUrsK-96" value="&lt;span style=&quot;color: rgba(0, 0, 0, 0); font-family: monospace; font-size: 0px; text-align: start;&quot;&gt;%3CmxGraphModel%3E%3Croot%3E%3CmxCell%20id%3D%220%22%2F%3E%3CmxCell%20id%3D%221%22%20parent%3D%220%22%2F%3E%3CmxCell%20id%3D%222%22%20value%3D%22%22%20style%3D%22verticalLabelPosition%3Dbottom%3Bhtml%3D1%3BverticalAlign%3Dtop%3Balign%3Dcenter%3Bshape%3Dmxgraph.floorplan.chair%3Bshadow%3D0%3Bdirection%3Dwest%3B%22%20vertex%3D%221%22%20parent%3D%221%22%3E%3CmxGeometry%20x%3D%22195.64%22%20y%3D%2270%22%20width%3D%2215.64%22%20height%3D%2220%22%20as%3D%22geometry%22%2F%3E%3C%2FmxCell%3E%3C%2Froot%3E%3C%2FmxGraphModel%3E&lt;/span&gt;" style="verticalLabelPosition=bottom;html=1;verticalAlign=top;align=center;shape=mxgraph.floorplan.chair;shadow=0;direction=east;" vertex="1" parent="1">
          <mxGeometry x="424" y="152.55999999999997" width="15.64" height="20" as="geometry" />
        </mxCell>
        <mxCell id="2IUhI4EKlEKc684zUrsK-89" value="" style="shape=ellipse;shadow=0;html=1;" vertex="1" parent="1">
          <mxGeometry x="388.87" y="162.45000000000002" width="61.13" height="34" as="geometry" />
        </mxCell>
        <mxCell id="2IUhI4EKlEKc684zUrsK-97" value="" style="verticalLabelPosition=bottom;html=1;verticalAlign=top;align=center;shape=mxgraph.floorplan.flat_tv;direction=north;" vertex="1" parent="1">
          <mxGeometry x="260" y="149.70000000000002" width="10" height="50.64" as="geometry" />
        </mxCell>
        <mxCell id="2IUhI4EKlEKc684zUrsK-98" value="" style="verticalLabelPosition=bottom;html=1;verticalAlign=top;align=center;shape=mxgraph.floorplan.doorOverhead;" vertex="1" parent="1">
          <mxGeometry x="294.82" y="135.3" width="75" height="20" as="geometry" />
        </mxCell>
        <mxCell id="2IUhI4EKlEKc684zUrsK-105" value="" style="shape=image;verticalLabelPosition=bottom;labelBackgroundColor=default;verticalAlign=top;aspect=fixed;imageAspect=0;image=data:image/jpeg,/9j/4AAQSkZJRgABAQAAAQABAAD/2wBDAAsJCQcJCQcJCQkJCwkJCQkJCQsJCwsMCwsLDA0QDBEODQ4MEhkSJRodJR0ZHxwpKRYlNzU2GioyPi0pMBk7IRP/2wBDAQcICAsJCxULCxUsHRkdLCwsLCwsLCwsLCwsLCwsLCwsLCwsLCwsLCwsLCwsLCwsLCwsLCwsLCwsLCwsLCwsLCz/wAARCADqAWQDASIAAhEBAxEB/8QAFwABAQEBAAAAAAAAAAAAAAAAAAECB//EABQQAQAAAAAAAAAAAAAAAAAAAAD/xAAUAQEAAAAAAAAAAAAAAAAAAAAA/8QAFBEBAAAAAAAAAAAAAAAAAAAAAP/aAAwDAQACEQMRAD8A62AAAAAAAAAAAAAAAAAAAAAAAAAAAAAAAAAAAAAAAAAAAAAAAAAAAAAAAAAAAAAAAAAAAAAAAAAAAAAAAAAAAAAAAAAAAAAAAAAAAAAAAAAAAAAAAAAAAAAAAAAAqAAAAAAAAAAAAAAAAAAAAAAAAAAAAAAAAAAAAAAAAAAAAAAAAAAAAAAAAAAAAAAAAAAAAAAAAAAAAAAAAAAAAAAAAAAAAAAAAAAAAAAAAAAAAAAAAAAAAAAAAAAAAAAAAAAAAAAAAAAKCAAAAAAAAAAAAAAAAAAAAAAAAAAAAAAAAAAAAAAAAAAAAAAAAAAAAAAAAAAAAAAAAAAAAAAAAAAAAAAAAAAAAAAAAAAAoIAAAAAAAAAAAAAAAAAAAAAAAAAAAAAAAAAAAAAAAAAAAAAAAAAAAAAAAAAAAAAAAAAAAAAAAAAAAAAAAAAAAAAAAAAAqAAAAAAAAAAAAAAAAAAAAAAAAAAAAAAAAAAAAAAAAAAAAAAAAAAAAAAAAAAAAAAAAAAAAAAAAAAAAAAAAAAAAAAAAAAAAKCAAAAAAAAAAAAAAAAAAAAAAAAAAAAAAAAAAAAAAAAAAAAKgAAAqAAAAAAAAAAAAAAAAAAAAAAAAAAAAAAAAAAAAAAAAACoAAAAAAAAAAAAAAACKAIoAICiKAAAIAoAAgCiKACAoICiKAIAoICiKArKgCAKAAIAogCggKAAIA//2Q==;" vertex="1" parent="1">
          <mxGeometry x="290" y="196.45" width="36.51" height="24" as="geometry" />
        </mxCell>
        <mxCell id="2IUhI4EKlEKc684zUrsK-106" value="" style="shape=image;verticalLabelPosition=bottom;labelBackgroundColor=default;verticalAlign=top;aspect=fixed;imageAspect=0;image=data:image/jpeg,/9j/4AAQSkZJRgABAQAAAQABAAD/2wBDAAsJCQcJCQcJCQkJCwkJCQkJCQsJCwsMCwsLDA0QDBEODQ4MEhkSJRodJR0ZHxwpKRYlNzU2GioyPi0pMBk7IRP/2wBDAQcICAsJCxULCxUsHRkdLCwsLCwsLCwsLCwsLCwsLCwsLCwsLCwsLCwsLCwsLCwsLCwsLCwsLCwsLCwsLCwsLCz/wAARCADqAWQDASIAAhEBAxEB/8QAFwABAQEBAAAAAAAAAAAAAAAAAAECB//EABQQAQAAAAAAAAAAAAAAAAAAAAD/xAAUAQEAAAAAAAAAAAAAAAAAAAAA/8QAFBEBAAAAAAAAAAAAAAAAAAAAAP/aAAwDAQACEQMRAD8A62AAAAAAAAAAAAAAAAAAAAAAAAAAAAAAAAAAAAAAAAAAAAAAAAAAAAAAAAAAAAAAAAAAAAAAAAAAAAAAAAAAAAAAAAAAAAAAAAAAAAAAAAAAAAAAAAAAAAAAAAAAqAAAAAAAAAAAAAAAAAAAAAAAAAAAAAAAAAAAAAAAAAAAAAAAAAAAAAAAAAAAAAAAAAAAAAAAAAAAAAAAAAAAAAAAAAAAAAAAAAAAAAAAAAAAAAAAAAAAAAAAAAAAAAAAAAAAAAAAAAAKCAAAAAAAAAAAAAAAAAAAAAAAAAAAAAAAAAAAAAAAAAAAAAAAAAAAAAAAAAAAAAAAAAAAAAAAAAAAAAAAAAAAAAAAAAAAoIAAAAAAAAAAAAAAAAAAAAAAAAAAAAAAAAAAAAAAAAAAAAAAAAAAAAAAAAAAAAAAAAAAAAAAAAAAAAAAAAAAAAAAAAAAqAAAAAAAAAAAAAAAAAAAAAAAAAAAAAAAAAAAAAAAAAAAAAAAAAAAAAAAAAAAAAAAAAAAAAAAAAAAAAAAAAAAAAAAAAAAAKCAAAAAAAAAAAAAAAAAAAAAAAAAAAAAAAAAAAAAAAAAAAAKgAAAqAAAAAAAAAAAAAAAAAAAAAAAAAAAAAAAAAAAAAAAAACoAAAAAAAAAAAAAAACKAIoAICiKAAAIAoAAgCiKACAoICiKAIAoICiKArKgCAKAAIAogCggKAAIA//2Q==;" vertex="1" parent="1">
          <mxGeometry x="510" y="303.72" width="21.3" height="14" as="geometry" />
        </mxCell>
        <mxCell id="2IUhI4EKlEKc684zUrsK-107" value="" style="shape=image;verticalLabelPosition=bottom;labelBackgroundColor=default;verticalAlign=top;aspect=fixed;imageAspect=0;image=data:image/jpeg,/9j/4AAQSkZJRgABAQAAAQABAAD/2wBDAAsJCQcJCQcJCQkJCwkJCQkJCQsJCwsMCwsLDA0QDBEODQ4MEhkSJRodJR0ZHxwpKRYlNzU2GioyPi0pMBk7IRP/2wBDAQcICAsJCxULCxUsHRkdLCwsLCwsLCwsLCwsLCwsLCwsLCwsLCwsLCwsLCwsLCwsLCwsLCwsLCwsLCwsLCwsLCz/wAARCADqAWQDASIAAhEBAxEB/8QAFwABAQEBAAAAAAAAAAAAAAAAAAECB//EABQQAQAAAAAAAAAAAAAAAAAAAAD/xAAUAQEAAAAAAAAAAAAAAAAAAAAA/8QAFBEBAAAAAAAAAAAAAAAAAAAAAP/aAAwDAQACEQMRAD8A62AAAAAAAAAAAAAAAAAAAAAAAAAAAAAAAAAAAAAAAAAAAAAAAAAAAAAAAAAAAAAAAAAAAAAAAAAAAAAAAAAAAAAAAAAAAAAAAAAAAAAAAAAAAAAAAAAAAAAAAAAAqAAAAAAAAAAAAAAAAAAAAAAAAAAAAAAAAAAAAAAAAAAAAAAAAAAAAAAAAAAAAAAAAAAAAAAAAAAAAAAAAAAAAAAAAAAAAAAAAAAAAAAAAAAAAAAAAAAAAAAAAAAAAAAAAAAAAAAAAAAKCAAAAAAAAAAAAAAAAAAAAAAAAAAAAAAAAAAAAAAAAAAAAAAAAAAAAAAAAAAAAAAAAAAAAAAAAAAAAAAAAAAAAAAAAAAAoIAAAAAAAAAAAAAAAAAAAAAAAAAAAAAAAAAAAAAAAAAAAAAAAAAAAAAAAAAAAAAAAAAAAAAAAAAAAAAAAAAAAAAAAAAAqAAAAAAAAAAAAAAAAAAAAAAAAAAAAAAAAAAAAAAAAAAAAAAAAAAAAAAAAAAAAAAAAAAAAAAAAAAAAAAAAAAAAAAAAAAAAKCAAAAAAAAAAAAAAAAAAAAAAAAAAAAAAAAAAAAAAAAAAAAKgAAAqAAAAAAAAAAAAAAAAAAAAAAAAAAAAAAAAAAAAAAAAACoAAAAAAAAAAAAAAACKAIoAICiKAAAIAoAAgCiKACAoICiKAIAoICiKArKgCAKAAIAogCggKAAIA//2Q==;" vertex="1" parent="1">
          <mxGeometry x="294.82000000000005" y="210" width="28.26" height="18.58" as="geometry" />
        </mxCell>
        <mxCell id="2IUhI4EKlEKc684zUrsK-114" value="" style="rounded=0;whiteSpace=wrap;html=1;direction=south;" vertex="1" parent="1">
          <mxGeometry x="583.02" y="100" width="66.98" height="110" as="geometry" />
        </mxCell>
        <mxCell id="2IUhI4EKlEKc684zUrsK-115" value="" style="shape=image;verticalLabelPosition=bottom;labelBackgroundColor=default;verticalAlign=top;aspect=fixed;imageAspect=0;image=data:image/jpeg,/9j/4AAQSkZJRgABAQAAAQABAAD/2wBDAAsJCQcJCQcJCQkJCwkJCQkJCQsJCwsMCwsLDA0QDBEODQ4MEhkSJRodJR0ZHxwpKRYlNzU2GioyPi0pMBk7IRP/2wBDAQcICAsJCxULCxUsHRkdLCwsLCwsLCwsLCwsLCwsLCwsLCwsLCwsLCwsLCwsLCwsLCwsLCwsLCwsLCwsLCwsLCz/wAARCADqAWQDASIAAhEBAxEB/8QAFwABAQEBAAAAAAAAAAAAAAAAAAECB//EABQQAQAAAAAAAAAAAAAAAAAAAAD/xAAUAQEAAAAAAAAAAAAAAAAAAAAA/8QAFBEBAAAAAAAAAAAAAAAAAAAAAP/aAAwDAQACEQMRAD8A62AAAAAAAAAAAAAAAAAAAAAAAAAAAAAAAAAAAAAAAAAAAAAAAAAAAAAAAAAAAAAAAAAAAAAAAAAAAAAAAAAAAAAAAAAAAAAAAAAAAAAAAAAAAAAAAAAAAAAAAAAAqAAAAAAAAAAAAAAAAAAAAAAAAAAAAAAAAAAAAAAAAAAAAAAAAAAAAAAAAAAAAAAAAAAAAAAAAAAAAAAAAAAAAAAAAAAAAAAAAAAAAAAAAAAAAAAAAAAAAAAAAAAAAAAAAAAAAAAAAAAKCAAAAAAAAAAAAAAAAAAAAAAAAAAAAAAAAAAAAAAAAAAAAAAAAAAAAAAAAAAAAAAAAAAAAAAAAAAAAAAAAAAAAAAAAAAAoIAAAAAAAAAAAAAAAAAAAAAAAAAAAAAAAAAAAAAAAAAAAAAAAAAAAAAAAAAAAAAAAAAAAAAAAAAAAAAAAAAAAAAAAAAAqAAAAAAAAAAAAAAAAAAAAAAAAAAAAAAAAAAAAAAAAAAAAAAAAAAAAAAAAAAAAAAAAAAAAAAAAAAAAAAAAAAAAAAAAAAAAKCAAAAAAAAAAAAAAAAAAAAAAAAAAAAAAAAAAAAAAAAAAAAKgAAAqAAAAAAAAAAAAAAAAAAAAAAAAAAAAAAAAAAAAAAAAACoAAAAAAAAAAAAAAACKAIoAICiKAAAIAoAAgCiKACAoICiKAIAoICiKArKgCAKAAIAogCggKAAIA//2Q==;direction=south;" vertex="1" parent="1">
          <mxGeometry x="495.44" y="82.12000000000002" width="19.56" height="29.76" as="geometry" />
        </mxCell>
        <mxCell id="2IUhI4EKlEKc684zUrsK-142" value="" style="sketch=0;pointerEvents=1;shadow=0;dashed=0;html=1;strokeColor=none;fillColor=#434445;aspect=fixed;labelPosition=center;verticalLabelPosition=bottom;verticalAlign=top;align=center;outlineConnect=0;shape=mxgraph.vvd.datacenter;direction=west;" vertex="1" parent="1">
          <mxGeometry x="591.51" y="126.79999999999998" width="50" height="37" as="geometry" />
        </mxCell>
        <mxCell id="2IUhI4EKlEKc684zUrsK-143" value="" style="sketch=0;pointerEvents=1;shadow=0;dashed=0;html=1;strokeColor=none;fillColor=#434445;aspect=fixed;labelPosition=center;verticalLabelPosition=bottom;verticalAlign=top;align=center;outlineConnect=0;shape=mxgraph.vvd.datacenter;direction=west;" vertex="1" parent="1">
          <mxGeometry x="591.51" y="170" width="50" height="37" as="geometry" />
        </mxCell>
        <mxCell id="2IUhI4EKlEKc684zUrsK-144" value="" style="verticalAlign=top;verticalLabelPosition=bottom;labelPosition=center;align=center;html=1;outlineConnect=0;gradientDirection=north;strokeWidth=2;shape=mxgraph.networks.printer;shadow=1;direction=south;" vertex="1" parent="1">
          <mxGeometry x="128.25" y="114" width="27.98" height="23.23" as="geometry" />
        </mxCell>
        <mxCell id="2IUhI4EKlEKc684zUrsK-146" value="" style="shape=image;verticalLabelPosition=bottom;labelBackgroundColor=default;verticalAlign=top;aspect=fixed;imageAspect=0;image=data:image/jpeg,/9j/4AAQSkZJRgABAQAAAQABAAD/2wBDAAsJCQcJCQcJCQkJCwkJCQkJCQsJCwsMCwsLDA0QDBEODQ4MEhkSJRodJR0ZHxwpKRYlNzU2GioyPi0pMBk7IRP/2wBDAQcICAsJCxULCxUsHRkdLCwsLCwsLCwsLCwsLCwsLCwsLCwsLCwsLCwsLCwsLCwsLCwsLCwsLCwsLCwsLCwsLCz/wAARCADqAWQDASIAAhEBAxEB/8QAFwABAQEBAAAAAAAAAAAAAAAAAAECB//EABQQAQAAAAAAAAAAAAAAAAAAAAD/xAAUAQEAAAAAAAAAAAAAAAAAAAAA/8QAFBEBAAAAAAAAAAAAAAAAAAAAAP/aAAwDAQACEQMRAD8A62AAAAAAAAAAAAAAAAAAAAAAAAAAAAAAAAAAAAAAAAAAAAAAAAAAAAAAAAAAAAAAAAAAAAAAAAAAAAAAAAAAAAAAAAAAAAAAAAAAAAAAAAAAAAAAAAAAAAAAAAAAqAAAAAAAAAAAAAAAAAAAAAAAAAAAAAAAAAAAAAAAAAAAAAAAAAAAAAAAAAAAAAAAAAAAAAAAAAAAAAAAAAAAAAAAAAAAAAAAAAAAAAAAAAAAAAAAAAAAAAAAAAAAAAAAAAAAAAAAAAAKCAAAAAAAAAAAAAAAAAAAAAAAAAAAAAAAAAAAAAAAAAAAAAAAAAAAAAAAAAAAAAAAAAAAAAAAAAAAAAAAAAAAAAAAAAAAoIAAAAAAAAAAAAAAAAAAAAAAAAAAAAAAAAAAAAAAAAAAAAAAAAAAAAAAAAAAAAAAAAAAAAAAAAAAAAAAAAAAAAAAAAAAqAAAAAAAAAAAAAAAAAAAAAAAAAAAAAAAAAAAAAAAAAAAAAAAAAAAAAAAAAAAAAAAAAAAAAAAAAAAAAAAAAAAAAAAAAAAAKCAAAAAAAAAAAAAAAAAAAAAAAAAAAAAAAAAAAAAAAAAAAAKgAAAqAAAAAAAAAAAAAAAAAAAAAAAAAAAAAAAAAAAAAAAAACoAAAAAAAAAAAAAAACKAIoAICiKAAAIAoAAgCiKACAoICiKAIAoICiKArKgCAKAAIAogCggKAAIA//2Q==;direction=south;" vertex="1" parent="1">
          <mxGeometry x="575" y="104" width="16.51" height="25.12" as="geometry" />
        </mxCell>
        <mxCell id="2IUhI4EKlEKc684zUrsK-145" value="" style="fontColor=#0066CC;verticalAlign=top;verticalLabelPosition=bottom;labelPosition=center;align=center;html=1;outlineConnect=0;fillColor=#CCCCCC;strokeColor=#000000;gradientColor=none;gradientDirection=north;strokeWidth=2;shape=mxgraph.networks.secured;" vertex="1" parent="1">
          <mxGeometry x="578.25" y="109" width="10" height="15" as="geometry" />
        </mxCell>
        <mxCell id="2IUhI4EKlEKc684zUrsK-147" value="" style="rounded=0;whiteSpace=wrap;html=1;direction=south;" vertex="1" parent="1">
          <mxGeometry x="450" y="35.81" width="30.45" height="54.19" as="geometry" />
        </mxCell>
        <mxCell id="2IUhI4EKlEKc684zUrsK-148" value="" style="shape=mxgraph.signs.animals.fish_hatchery;html=1;pointerEvents=1;fillColor=#000000;strokeColor=none;verticalLabelPosition=bottom;verticalAlign=top;align=center;sketch=0;direction=north;" vertex="1" parent="1">
          <mxGeometry x="452.72" y="45.120000000000005" width="25" height="37" as="geometry" />
        </mxCell>
        <mxCell id="2IUhI4EKlEKc684zUrsK-158" value="" style="verticalLabelPosition=bottom;html=1;verticalAlign=top;align=center;shape=mxgraph.floorplan.chair;shadow=0;direction=south;" vertex="1" parent="1">
          <mxGeometry x="563.02" y="50" width="26.98" height="23.02" as="geometry" />
        </mxCell>
        <mxCell id="2IUhI4EKlEKc684zUrsK-155" value="" style="shape=rect;shadow=0;html=1;direction=south;" vertex="1" parent="1">
          <mxGeometry x="540" y="37.91" width="28.31" height="50" as="geometry" />
        </mxCell>
        <mxCell id="2IUhI4EKlEKc684zUrsK-156" value="" style="fontColor=#0066CC;verticalAlign=top;verticalLabelPosition=bottom;labelPosition=center;align=center;html=1;outlineConnect=0;fillColor=#FFFFFF;strokeColor=#000000;gradientColor=none;gradientDirection=north;strokeWidth=2;shape=mxgraph.networks.monitor;direction=north;" vertex="1" parent="1">
          <mxGeometry x="523.44" y="62.09" width="25" height="27.91" as="geometry" />
        </mxCell>
        <mxCell id="2IUhI4EKlEKc684zUrsK-157" value="" style="fontColor=#0066CC;verticalAlign=top;verticalLabelPosition=bottom;labelPosition=center;align=center;html=1;outlineConnect=0;fillColor=#FFFFFF;strokeColor=#000000;gradientColor=none;gradientDirection=north;strokeWidth=2;shape=mxgraph.networks.desktop_pc;direction=south;" vertex="1" parent="1">
          <mxGeometry x="520" y="40" width="31.88" height="20" as="geometry" />
        </mxCell>
        <mxCell id="2IUhI4EKlEKc684zUrsK-160" value="" style="shape=image;verticalLabelPosition=bottom;labelBackgroundColor=default;verticalAlign=top;aspect=fixed;imageAspect=0;image=data:image/jpeg,/9j/4AAQSkZJRgABAQAAAQABAAD/2wBDAAsJCQcJCQcJCQkJCwkJCQkJCQsJCwsMCwsLDA0QDBEODQ4MEhkSJRodJR0ZHxwpKRYlNzU2GioyPi0pMBk7IRP/2wBDAQcICAsJCxULCxUsHRkdLCwsLCwsLCwsLCwsLCwsLCwsLCwsLCwsLCwsLCwsLCwsLCwsLCwsLCwsLCwsLCwsLCz/wAARCADqAWQDASIAAhEBAxEB/8QAFwABAQEBAAAAAAAAAAAAAAAAAAECB//EABQQAQAAAAAAAAAAAAAAAAAAAAD/xAAUAQEAAAAAAAAAAAAAAAAAAAAA/8QAFBEBAAAAAAAAAAAAAAAAAAAAAP/aAAwDAQACEQMRAD8A62AAAAAAAAAAAAAAAAAAAAAAAAAAAAAAAAAAAAAAAAAAAAAAAAAAAAAAAAAAAAAAAAAAAAAAAAAAAAAAAAAAAAAAAAAAAAAAAAAAAAAAAAAAAAAAAAAAAAAAAAAAqAAAAAAAAAAAAAAAAAAAAAAAAAAAAAAAAAAAAAAAAAAAAAAAAAAAAAAAAAAAAAAAAAAAAAAAAAAAAAAAAAAAAAAAAAAAAAAAAAAAAAAAAAAAAAAAAAAAAAAAAAAAAAAAAAAAAAAAAAAKCAAAAAAAAAAAAAAAAAAAAAAAAAAAAAAAAAAAAAAAAAAAAAAAAAAAAAAAAAAAAAAAAAAAAAAAAAAAAAAAAAAAAAAAAAAAoIAAAAAAAAAAAAAAAAAAAAAAAAAAAAAAAAAAAAAAAAAAAAAAAAAAAAAAAAAAAAAAAAAAAAAAAAAAAAAAAAAAAAAAAAAAqAAAAAAAAAAAAAAAAAAAAAAAAAAAAAAAAAAAAAAAAAAAAAAAAAAAAAAAAAAAAAAAAAAAAAAAAAAAAAAAAAAAAAAAAAAAAKCAAAAAAAAAAAAAAAAAAAAAAAAAAAAAAAAAAAAAAAAAAAAKgAAAqAAAAAAAAAAAAAAAAAAAAAAAAAAAAAAAAAAAAAAAAACoAAAAAAAAAAAAAAACKAIoAICiKAAAIAoAAgCiKACAoICiKAIAoICiKArKgCAKAAIAogCggKAAIA//2Q==;" vertex="1" parent="1">
          <mxGeometry x="520" y="212" width="42.6" height="28" as="geometry" />
        </mxCell>
        <mxCell id="2IUhI4EKlEKc684zUrsK-165" value="" style="verticalLabelPosition=bottom;html=1;verticalAlign=top;align=center;shape=mxgraph.floorplan.refrigerator;direction=west;" vertex="1" parent="1">
          <mxGeometry x="335" y="193" width="30" height="25" as="geometry" />
        </mxCell>
        <mxCell id="2IUhI4EKlEKc684zUrsK-166" value="" style="verticalLabelPosition=bottom;html=1;verticalAlign=top;align=center;shape=mxgraph.floorplan.bed_single;direction=west;" vertex="1" parent="1">
          <mxGeometry x="605.22" y="297.23" width="36.29" height="54.29" as="geometry" />
        </mxCell>
        <mxCell id="2IUhI4EKlEKc684zUrsK-164" value="" style="shape=image;verticalLabelPosition=bottom;labelBackgroundColor=default;verticalAlign=top;aspect=fixed;imageAspect=0;image=data:image/jpeg,/9j/4AAQSkZJRgABAQACWAJYAAD/2wBDAAgGBgcGBQgHBwcJCQgKDBQNDAsLDBkSEw8UHRofHh0aHBwgJC4nICIsIxwcKDcpLDAxNDQ0Hyc5PTgyPC4zNDL/wAALCAPUAywBASIA/8QAHAABAAMAAwEBAAAAAAAAAAAAAAYHCAEEBQMC/8QAWBAAAQMCAgIJEAYIBQMDAwUBAAECAwQFBhEHMRIYITdBcXSR0QgTFRciUVJUVmGBk5ShsbIUQmKiwdIjMjU2VXJzsxYzQ5LhU4LCJERjJXWDJic0RYTw/9oACAEBAAA/AL/AAAAAAAAAAAAAAAAAAAAAB85po4I1kle2NjUzVz1yRPSQi+6X8GWJXMkurauZv+lRp11c+NNz3ldXjqkO6cyzWHc4JKuX/wAW9JC7jp0xxXZpFW09G1eCngTNPS7NSMVmPcWV6r9JxDcXovAk6tTmQ8aa41tSqrPWVEqrwvlcvxU66qqrmu6p+mSyR/qPc1fsuVD0aXEd7olT6Nd66HLVsKhyfie/QaWMcW9U61iCpkRPqzo2RPvIS219UPiamVqXCgoK1qa1RqxOXm3PcT2y9UNhqt2LLnR1lveut2SSs503fcWPZsV2LEEaPtN0par7McibJONutD2QAAAAAAAAAAAAAAAAAAAAAAAAAAAAAAAAAAAAAAAAAADyr5iS0Ybo1qrvXw0sXBs3brvMia19BSuK+qJyc+DDFvzTdRKqrT3oxPxX0FPX7GWIMTSq+7XWoqGqv+WrsmJxNTcPCAAAAAPpBPLTTNmglfFI3dR7HK1U9KFiYZ02YssKsiqKhtzpU/06rdcieZ6bvPmXdhLTRhjEqsp55Vtla7c61VORGuX7L9S+nIsZrke1HNVFRdSocgAAAAAAAAAAAAAAAAAAAAAAAAAAAAAAAAAAAAAAAA+FZW01BTSVNXNHBBGmyfJI5GtannVSjcc6fY4nSUOE4kkembXV0ze5T+RvDxrzFE3W8XG+Vrqy51k1VUO1vldmvo7yHRAAAAAAABO8G6V8RYQfHCyda23prpKhyqiJ9ldbfh5jR+CtJdgxpTtbRzdYrkTN9HMqI9OLwk4iZIuaHIAAAAAAAAAAAAAAAAAAAAAAAAAAAAAAAAAAAAAAC7iEWxpj6zYJtyz3CbZVD0XrNLGv6SReLgTzqZaxtpFveN6tVrZliomrnFRxLkxveVfCXzqRAAAA+0FLPUu2MEMkq95jFd8D1qfBuJqtM4LBcpEXhSmf0Hdbo3xo5M0wzcvTCqHyl0fYwhTOTDdzRPNTuX4Hl1Viu9Fn9KtdbBlr65A5vxQ6CoqbipkpwAAD609RNSVEc9PK+KWNdkx7HZK1e+il9aOtOiq6G14sfrybHXon9xP/AC5y+4Zo6iFksT2vjemya5q5oqd9FP2AAAAAAAAAAAAAAAAAAAAAAAAAAAAAAAAAAAAADhVyTMrjSXpVocFUzqOj2FVeZG9xDnm2JPCf+CcJli73ivvtzmuNyqZKiqlXNz3r7k7yeY6IAOUTMlWG9HGKsU7F9utcqU6/+4n/AEcfOuv0ZlsWHqcYUayS/Xlz14YaNmScWyd0FiWnRLgqzo1YbHBNI3/UqlWVffue4ltLb6OiYjKWlggampIo0anuOyAcOa1yZORFTvKh41ywjh67oqXCy0FRnwvgbnz5ZkFvOgLCNxRzqFKm2yrq6y/Zs/2uz+JWGItAGJrXs5bVNBdIU3diz9HJ/tXcX0KVhcLZXWqpdTXCkmpZ27ismYrV951AACzNGelquwdUR2+4OkqrK9clYq5ug87PN5jUtsulHd7fDXUFQyoppm7JkjFzRUO4AAAAAAAAAAAAAAAAAAAAAAAAAAAAAAAAAAAAAq5IVfpW0ow4Oo1t9tcyW8zt7lM80p2r9Z3n7yGWKurnrquWqqpnzTyuV75HrmrlXhU+IAJpgzRliHGcjX0tP9Hoc+6rJ0VGf9vC70Gg8I6GcM4YSOeeBLnXt3ev1LUVrV+yzUnpzUsVrWtajWtRGpuIiJqOQAAAAeXe8O2jEVItLdrfT1cS6uuMzVvEutPQUfjTqfZIWyVmFKlZETd+hVDu6/7X8PEvOUhX22ttVXJSV9NLTVEa5PjlarXIdUAE90a6Sq3A1ybFKr57TM9OvwZ/q/bb3l+JrS13Oku9ugr6Gds9NO1HxyNXNFQ7gAAAAAAAAAAAAAAAAAAAAAAAAAAAAAAAAAAABBdJukCnwLY1exWyXOpRW0sKrw+GvmT3mRbhX1V0r562snfNUTPV8kj13XKp1gD70lJUV1THTUsL5p5HbFkbG5ucveRDQejzQTBStiumK2tmn3HMoEXNjP514V82rjLvhhjp4mxRRsjjYmxa1iZIid5EPoAAAAAAMkIzi7AlkxnRLBdKVqyomUdSzckjXzL3vMu4Zfx7oyvOBqtXTN+k217soqyNu5xOT6qkIABZuiTSXLg+6Nt1xlc6y1L02ea59Ycv1083fT0mrYpY54myxPa+N6I5rmrmiovCh+wAAAAAAAAAAAAAAAAAAAAAAAAAAAAAAAAAADysRX+iw1Yqq618mwgp2bLLhcvA1POq7hjPFmJ6/F2Iam7V71V8i5Rx57kbE1NTiPDAPQstlr8QXWC222ndPUzOya1qau+q95E75qzRxovt2CKNtRIjKq7vblLUKm4z7LO8nn1qWCiImpAAAAAAAADr11DS3KjlpKyCOeCVqtfHI3NHIZj0p6IqjC0kt3srHz2hy5vZrdTcffb5+DhKmVMgAaC0F6RVlRmE7pNuon/oJHrrTWsf4pzF9IuZyAAAAAAAAAAAAAAAAAAAAAAAAAAAAAAAAAAcKuSGXNN+PVxDiBbJQzKttt7lRytXclm4V4k1J6SpgDuWu2Vl4uVPQUEDp6md6MZG3Wq9BrjRvo7osDWdE2LJrpOiLU1GXD4Le81PeTkAAAAAAAAA+c0Mc8T45GNex6bFzXJmioutFMvaXdFr8LVb7zaIldZ5nd2xN36O5eD+VeDmKnVMlAPtS1U9HVRVNPK6OaJ6PY9q5K1yLmimx9G+NIcaYTgrlVqVsf6KqjT6sicPEusmAAAAAAAAAAAAAAAAAAAAAAAAAAAAAAAAAABAdLWMv8IYOnfBJlX1mcFMme61VTunehPfkZBc5XOVyqqqq5qq8JwDlqZuRETNVXLI1Lob0btwxam3m4wp2Wq2Zo1ybsEa/V414eYtdEyAAAAAAAAAAOvXUNPcaGejq4WzQTsVkjHJmjkUx9pKwHUYGxG+nRHPt1RnJSTLwt4Wr50IWAWBoixmuEcZQ9fk2NurlSCpRV3G5r3L/QvuVTXiKjkzRc0OQAAAAAAAAAAAAAAAAAAAAAAAAAAAAAAAADhy5IZF0xYt/wAUY3qGQybKioM6aBEXcVUXunelfghXoGstvQfgJMQ31b5cIkdbre9Ng1ybks2tE4k18xqFERE3DkAAAAAAAAAAEXx7g+mxphiptsyNSdE65TSqn+XImr0LqXjMZV9FPbq+eiqoliqIHrHIx2tHIuSnXByimu9DuLf8UYGgbPJsq6gVKafNd12Sdy70p8FLBAAAAAAAAAAAAAAAAAAAAAAAAAAAAAAAAAIlpKxKmFsCXK4MciVDmdZg/qO3E5t1fQYwcqucrlVVVVzVV4TgHbtluqbtc6W30bFfUVMrYo2pwqq5G18J4dpcL4aorRStTY07MnO4XvX9Zy8antgAAAAAAAAAABUzTJTOvVB4MbS1sGKaOLKOoVIavJNT/qu9KbnoQowAs/QXiVbJjtlDK/KlubesORV3Eem6xefNPSauRcwAAAAAAAAAAAAAAAAAAAAAAAAAAAAAAAADPHVG39ZK+2WCN/cwtWpmRPCXcb7kXnKJALr6nrCyV18q8RVEecVE3rMGaa5HJur6G/E0lqAAAAAAAAAAAAPHxTYafE2Gq+0VCJsamJWtXwXa2r6FyMRV9HNbq+ooqhismgkdG9q8DkXJTrg+1JVS0VZDVQOVssMjZGOTgVFzQ3Hh27RX3DtvusS9xVQMl4lVN1OfM9QAAAAAAAAAAAAAAAAAAAAAAAAAAAAAAAA4VckMX6Sb0t+0gXmt2WyjSdYo/wCVncp8PeRMBNZs3Rjh1MNYAtdG5mxnkj6/P/O/dXmTJPQTAAAAAAAAAAAAA4XUZW084eS0Y8W4Rs2MNziSbcTc64m478F9JVgBqXqf712QwC+gkdnJb6h0aJ9h3dJ71UtgAAAAAAAAAAAAAAAAAAAAAAAAAAAAAAAA8zEdwS04audwcuX0amkkTjRq5e8wvI90kjnuXNzlVVXzqfkHv4Js/Z7GtotqtzZNUs2f8qLm73IptxiIjEREyRNxEP0AAAAAAAAAAAACouqEsyV2B4Lk1uclBUIqr9h/cr79iZfALp6nK59ZxPdLY53c1NMkrU+0x3Q5TSgAAAAAAAAAAAAAAAAAAAAAAAAAAAAAAABAdM9f9B0W3dUXJ0yMhT/ucmfuzMgAFsdT7bUrNIT6tzc20dI96L3nOVGp7lU1Km4AAAAAAAAAAAAARvH1s7L4DvlFsc1fRvVv8zU2Se9DEwBPdDNctDpStC55JO58C/8Ac1fxyNgAAAAAAAAAAAAAAAAAAAAAAAAAAAAAAAAFRdUPU9awBTQov+dXMTma5TL4Bf8A1NVImV/rFTd/RRIv+5V/Av4AAAAAAAAAAAAA+c8aTU8sTkzR7FaqcaGDq+D6NcKmBUy61K5nMqodcHv4IqfoeOrFPnlsK6L5kQ28AAAAAAAAAAAAAAAAAAAAAAAAAAAAAAAAUl1SL8sM2Zm73VY5eZn/ACZvANJ9TfGjcK3eThdWonMxOkuoAAAAAAAAAAAAAGG8WxJDjG9RpqbXTIn+9Txgd+ySLHf7c9NbaqJfvIbtTUcgAAAAAAAAAAAAAAAAAAAAAAAAAAAAAAApHqk0X/DtkXgSrf8AIZwANLdTg5FwfdG8KV3/AINLnAAAAAAAAAAAAABh7Gb9nje+u79fN86nhg7tnarr3QImtamP5kN3t1HIAAAAAAAAAAAAAAAAAAAAAAAAAAAAAAAKb6o2BZMF26ZP9OuRF9LHdBmYA0R1NdSi2q+0ue62eKTLjaqfgXqAAAAAAAAAAAAAcOVGtVy6kTMwle5/pV+uNRnn12pkfzuVToA9fCkC1OLrNAiZ7OthTL/vQ3MAAAAAAAAAAAAAAAAAAAAAAAAAAAAAAAAVrp2ovpWi+skRM1p54peJNll+JkwAujqcbgkOK7pQOXL6RSI9qd9WO6HKaVAAAAAAAAAAAAAPLxHXttmGrpWuXJIKWSTPzo1cjC7nbJyuXWu6pwCY6K6Na3SdYYss0bUpIvE1Fd+BswAAAAAAAAAAAAAAAAAAAAAAAAAAAAAAAAjmPrat2wDfKJEzdJSPVqedE2Se9DEoBNtEt3SzaTLPM52xjmkWnevmemxT35Gx0AAAAAAAAAAAAAK503XZLXozr40dlJWuZTN86Kua+5FMkAFsdT7bvpekKSrVM20dI9+fndk1PipqUAAAAAAAAAAAAAAAAAAAAAAAAAAAAAAAA/ErGyRujcmbXJsVTzKYaxNa32XFFztj0yWmqXxpxIu57sjygfSnmkpqmKeJ2xkiej2r3lRc0NyYau8d/wANW66xKitqoGyLlwLlupz5nqgAAAAAAAAAAABdxDOnVGX5J7rbLFG/NtPGtRKieE7cb7kXnKNANG9TjZ1hsd2u725LUztgYvmYma+93uLwAAAAAAAAAAAAAAAAAAAAAAAAAAAAAAAABlrqgLEttx2y5MZlDcYEeqp4be5d7tipU4BpHqeMTJWWOrw9O/8AS0T+vQoq643a09DviXYAAAAAAAAAAAAfKpnipaWWomejIomK97l1IiJmqmI8YX6TE2LLld5FXKomVY0X6rE3GpzIh4YGtdw2no3sf+HcAWm3ubsZUhSWVPtv7pfjl6CVAAAAAAAAAAAAAAAAAAAAAAAAAAAAAAAAAq/Tphtb3gOSthZsqi2P6+mSbuw1PTmyX0GUgCS4CxRJhDGFDdWqvWWv2FQ1PrRu3HdPoNp008VVTRVED0kilaj2Pbqci7qKfUAAAAAAAAAAAFSaecXJZMKpZqaTKsufcuyXdbCn6y+nVzmXQCWaNsOLifHdsoHM2UDZEmn80bN1efcT0m0GojUyTcQ5AAAAAAAAAAAAAAAAAAAAAAAAAAAAAAAAB8auniq6SamnYj4pWKx7V4UVMlQxLjDDs2FsVXC0SouUEq9bcv1o13WrzZHhAJuKaU0CY4S52lcM10v/AKqibsqZXLuvi73G34KXSAAAAAAAAAAAdW43CmtlvqK2rkbFTwRrJI9y7iIiGL8cYrqMY4pq7rNm2N67CCNfqRp+qn4r51I4AaR6nvCi0NjqsR1DMpa13WoM01RNXdX0u+BdgAAAAAAAAAAAAAAAAAAAAAAAAAAAAAAAAAKR6oHBy19sgxNSR5zUadaqdim6sSruO9C+5TOAB6FkvFZYbxS3OgkWOpp5Ee1e/wB9F8y6jZeDMW0WMcO090o1RHPTYzRZ7sT01tX8PMSIAAAAAAAAAA4VckzM6addIiV9Q7Ctrmzp4XZ1sjV3HvTUziTh8/EUcAezhXD1TinEtFZ6VF2dRIiOdl+oxN1zl4kzNsWu309ptdNb6RiMp6aNscbU4ERMjuAAAAAAAAAAAAAAAAAAAAAAAAAAAAAAAAAA69bSQV9DPSVMbZIJmLHIx2pzVTJUMY49wlUYNxVVWyVFWDPrlNIqfrxrq9Kal86EYAJlo6x7V4FvzahuyloJ1RtVAi/rN8JPtIa9tF0o71a4LjQTtnpp27Jj2rr6F8x3gAAAAAAAAAu4VPpf0nMwtQvs9qlR14qGd05q5/R2Lwr9peBPSZcke6R7nvcrnOXNVVc1VT8gGmtBGBVs1kdiKuj2NbXtyga5N2OHv/8Adr4si4wAAAAAAAAAAAAAAAAAAAAAAAAAAAAAAAAAAQHSrgJmNcNO+jtal0pM5KV3hd9i+ZfjkZEnikp55IZWOZJG5Wva5Mlaqa0U+YBYOjLSbWYGuCU8+zqLPO/9NBnuxr4bPP304TV1pvFDe7bDcLdUMqKWZuyY9i/HvL5jvAAAAAAAAHCrkmZWOlDStS4PpZLdbXMnvcjdxuebadF+s7z95DLFZW1NwrJqurmfNUTOV8kj1zVyrwqfAAsLRPgCTGeI2y1Ua9iaNyPqHKm49eBicfD5jXEUbYo2xsajWNREa1E3ETvH7AAAAAAAAAAAAAAAAAAAAAAAAAAAAAAAAAABwqZpkUJpv0aLJ13FVmgzeiZ10LE1/wDyJ+POZ+VMlABMMB6RLtgWv2dK9ZqGR36ekevcu86d53nNU4QxvZsZW5Kq2VGciJ+lp37kkS95U/HUSQAAAAAAA/L5Gxsc97ka1qZqqrkiIUfpK03w0TZrThWVs1Tutkrk3WR99Gd9fPqM8T1E1VUSTzyvlmkcrnveuauVeFVPmAe1hbDNwxbfae1W6PZSSL3b1TuY28Ll8yGyMKYaocJ4fp7TQMRI4kze9U7qR/C5fOp7YAAAAAAAAAAAAAAAAAAAAAAAAAAAAAAAAAAAPzJG2SNzHNRzXJkqKmaKhmPS9oqfh2plvtlhV1qldspompn9Gcv/AIr7ioNQAO9arxX2SvjrrbVy01TGubZI3ZLxedPMX7gfT7SViRUWKmJSz7jUrI0/Ru/mT6vHq4i6qStpq6mZUUk8c8D0zZJG5HNcnmVDsAAAAAHCrkmZFcXaRMO4Op3Lca1HVOXcUsK7KV3o4E86mcMdaXb5jLrlJG51Ba13Epon7r0+27h4tRXgAO/Z7PX366QW6207p6qZ2xYxvxXvInfNdaOtH9FgayJCzYy18yI6qqMv1l8FPsoTQAAAAAAAAAAAAAAAAAAAAAAAAAAAAAAAAAAAAHzngiqYHwzRskje1WuY9M0ci60UzNpV0QTYekmvVhidLa3LspYGpm6m4u+34FQKmSnAAPew3jO/4TqOu2i4ywNVc3RKuyjdxtXcLowz1RVLKjIMSW58D9S1NJ3TeNWLup6My2bJjXDeImItrvFLO5f9PZ7F6f8AauSnuouZyAAD41FXT0cKzVM8cMSbqvkejUT0qV/iLTXg+xNeyGsdcqhP9OkTZJn536viU5inTtiW+I+ntuxtNI7c/QrspVTzvXV6Mir5p5aiZ0s0j5JHrm573KqqvnVT5gA9Ow2C44kusNutdM6eokXUmpqcKqvAiGsdHWje34GtqKmwqLnM1PpFTl91veb8ScgAAAAAAAAAAAAAAAAAAAAAAAAAAAAAAAAAAAAA/L2NkYrXNRyKmSoqZopRGkvQglQ6a8YVia2Zc3S0CbiO88feXzcxQE9PNSzvgqInxSxqrXsemTmqnAqHyAAP017mORzXK1yalRclQk1o0i4usiNbRX6sSNuqOR/XG8zsyY0HVCYvpURKqG31iJwviVir/tX8D36fqlKlET6ThuJy9+KpVPi1Tut6pWky7rDc6L5qpPynzl6pWPL9Dhp+f26pPwaeTV9Uhe5EVKSyUMPeWR7n9BGLlpuxzcUVrbmykYvBTQtavOuakKuN6ul3lWS43Gqq3LwzSq74nQAABLcE6Pb1jivbFQw9ao2uymq5E7hifivmQ1Tg3AtowTa0pLdEjpXZLPUvTu5V868CeYk6JlqAAAAAAAAAAAAAAAAAAAAAAAAAAAAAAAAAAAAAABwqIpB8d6L7JjeJ0ssaUtxRMmVcSJnxOT6ye8zPjDR1iDBlS5K+lWSkVco6uFFdG708C+ZSJqmQAAAAAAAB9qalqKydkFNDJNM9cmxxtVznL5kQu3AWgSoqutXDFarBD+s2hY7u3fzr9VPMm7xGgLdbqO1UUVHQ00VPTxJkyONuSIh2gAAAAAAAAAAAAAAAAAAAAAAAAAAAAAAAAADjNDzrjiCzWlquuN0o6VE/60zWrzKpEbhppwLb807MfSXJwU0Tn+/LIjdX1RmGolVKW2XKo7yqjGIvvU8efqlY8/8A0+Gnqn/yVSfg06T+qUr8+4w5TJx1Dug4TqlLjmmeHaXLhyqHdBcuDcb2jGtobW26b9K3JJ6d/wCvE7vKne85JUXNAAfKopoKqB8E8McsT0ycyRqOa5POilQYw0A2m6rJV4fmS21K7vWHZuhcvm4W+jcKLxLgLEeFJVS6WyVkKLklRGmzid/3J+ORGgAAAAAD7U9LUVc7YKaGSaVy5NZG1XOVeJC08JaBsQXpY6i8uS1Ui7uxemymcnmbwenmL7wno/w/g2BG2yhb19UyfUy91K708HEmRKURE1AA/L3I1qqq5IiZ5lNYy0+UVjuy0Fko47n1pVSaZ0itZsu81UTd4yN7ZS5eTlJ7Q7oPvH1StRn+lw1EqfYqlT4tPSpuqTtjlRKrD9ZH31jma74oh7tDp/wZVZJO6vpFX/qQbJE9LVUldt0k4NuyolJiGiV66mSP62vM7Ik0U8M7EfDKyRi6nMciovpQ/aLmcgAAAAAAAAAAAAAAAAAAAAAAAAAAHGyQiOJNJuE8MbJlbdon1DddPT/pH8yavTkVRfuqOqXq6OwWhkTdSTVjtkv+1Nz3lbXrSbjG+q5Ku+1LI3f6UC9abzNyInJJJK9XyPc9y63OXNVPzmoAB6lgxBc8NXWK42qqfTzsXWmpyd5ycKeY1Fo80tWrGUUdJUubRXZE7qBy9zL52Lw8WssdFzAAPxJDHLG6OSNr2OTJWuTNF9BX2I9C+EMQK+VtE631Lv8AUo12KZ+duoqy+9TtfqNXSWavpq+NNTJP0Un4p7yurtgTFNjV3ZCxVsTW63pGr2/7m5oR9zVa5WuRUVOBdw4AAB2qO219wkSOioqipeupsMavX3E3suhjGt4VqrbEool+vWPRn3d1fcWXYOpzt1OrZb9dJapybqw0ydbZ/uXdX3Fr2HCdiw1TpFabXT0u5kr2tze7jcu6p7KIiajkAHTud0obPQS1twqY6amibm+SRckQzTpK0y1mJVltVjdJSWrda+XVJUcfeb5ucqVVVdZwAAehbr9d7RIkluudXSuTV1mVzfchYNj08YvtStZWSwXKFNaVDMn/AO5uXvzLPw91QOG7mrIrrBUWyVdxXKnXI+dN1OYtC23i23ilSpttdT1cK/XhkRye7Ud0AAAAAAAAAAAAAAAAAAAAAAAAA/LpGMarnuRrUTNVVckRCsMX6cMOYdV9Nb3dlq1u5sYXZRtXzv6MyjMU6WMVYpV8cte6kpHf+2pM2Ny86619KkHzVVVVXdXWcAAAAH7ilkhlZJHI5j2LsmuauSovfRS7tH+niehSK24q2dRTp3LK5qZvZ/On1k8+vjNAW26UN3oY6y31UVTTyJm2SJ2aKdwAAHGSd48uvwzYrqi/T7PQ1GetZIGqvPkRms0O4ErVVXWGKJV4YZHs+CnjzdT/AIKkVVYyvi/lqc/iinVXqdsJKu5V3RP/AMrfyn7j6nnB7P157m/jnanwaehTaCsC0+Sut9ROqf8AVqXbvNkSGg0b4NtqtWmw5QI5OF8ezX72ZI6ekpqRiMpqeKFifVjYjU9x9skQAAHGaZ5EFxxpTsOC43wyTJV3LLuaOFUVUX7a/VT3mZcZY9vmNa5ZrlUqlO1c4qWPcjj9HCvnUi+sAAAAHetl5uVlqm1Vsrp6SZPrQvVufH3y4cJ9ULcKRY6bEtKlZDuJ9JgRGyJ51bqX3F5YdxdY8VUn0m0XCKoaiZuZnk9n8zV3UPc1gAAAAAAAAAAAAAAAAAAAAAAHCqiayGY20mWHBMKtqp/pFeqZso4VRXr3tl4KcZm7GelPEWMZHxTVK0lvVe5pKdcm5faXW70kHAAAAAABIMMYzvuEa1Ki0Vz4kVc3wu7qN/8AM3V6dZoLBuneyXxY6W9olrrVyTZuXOF6+Z31fTzlrxTRTxNlhkZJG5M2vYuaKnmU+gAAAAAAAAVcjwMTY0sOEqRZ7vcI4XZdxCi7KR/E1N0oDG2ne73tJKPD7HWyjXcWbPOZ6cf1fRu+cqOSWSaR0kr3Pe5c3OcuaqvnU/AAAAAAB2qC5VtqrGVdBVS01Qxc2yROVqoXpgfT+7OKgxYxMtxEr4W6v52/inMXtQ3CkuVHHV0VTHUU8ibJkkbtk1U4zsgAAAAAAAAAAAAAAAAAAAAA+c08VPC+WaRkcbGq5z3rkjUThVSg9IunVc5bVhOTVm2S4Kn9tP8AyX0FDz1M1VO+eolfLNIuye965ucvfVT5AAHOS949yz4MxJflTsZZa2oav10iVGf7lyQnds6n3F9aiOrJKGhavBJLs3J6Gp+JLKLqbKdERa/EMrl4WwU6J71VT3abqeMIxInXqm5zr55mt+DTvs0DYFZro6t3ndVO/A+vaLwH/Daj2p/SO0XgP+Gz+1P6R2i8B/w2f2p/SO0XgP8Ahs/tT+kdovAf8Nn9qf0hNBmBE/8A62f2p/SSTDmCLThVdjaXVsUS64X1T3x/7VXJCSAAAAAAAAHyqYEqad8KySRo9MtlG7YuTiXgIFVaF8G11Q+oq6WsnneubpJa2Rzl9KqfHtF4D/hs/tT+kdovAf8ADZ/an9I7ReA/4bP7U/pHaLwH/DZ/an9I7ReA/wCGz+1P6Th2grAip+zqhOKqf0nWm0AYJkTuI6+Jfs1OfxRTyavqcMPyIv0S8XGBeDZox6fBCNXHqbrpGiut19pZ+82eJ0a86ZkMu2hzG9oRznWd1VGn16R6Se7X7iE1VDV0Myw1dNNTyprZKxWrzKfDIAAZ5ErwZpAvmCa1JLfUK+lcuctJIucb/RwL50NR4H0h2bHFDs6KTrNYxuc1JIvds86d9POhL0XNM0AAAAAAAAAAAAAAAAAAAAB594vNDYrbNcbjUsp6WFub3uX3J318xlrSTpZuONJ3UVGr6SzNXuYkXJ03nf0ait88wAD0rPYLrf6xKW1UE9XMvBEzNE411J6S38NdTtXVKMnxHcG0rF3Vp6bJ7/S5dxPRmW5h/RhhHDrWOpLPDJM3/XqU66/P07ieglzWNa1GtRERNSJwH6AAAAAAAAAAAAAAAAAAAOFTM6Vys1svECw3Kgp6uNUy2M0aO+JWWItAOGbqj5LU+e1TruojF65Fn/Ku6noUpzFOh7FeF0fM6j+n0bd36RSZuyTzt1oQFWqiqioqKnApwADt2251lor4q6gqZKepidsmSRrkqKaf0Y6XqTFzI7XdnR0t4amScDKjzt7y+bmLT1gAAAAAAAAAAAAAAAAAAA8y+3234dtE9zuVQ2Glhbm5V1qvAiJwqveMlaQtIlxxzdVe9zobbEq/R6VF3ETwnd9ykKAB27dbK261sdHQUstTUSrkyOJquVS88F9T8uUdbiuZU1KlDA753/gnOXha7LbbJRNpLZRQ0kDU3GRN2PP314zvgAAAAAAAAAAAAAAAAAAAAAHCoikFxhonw1i1j5ZKVKOvdqq6ZEa7P7SanfEzvjbRViHBiunlg+l29F3KuBFVqJ9pNbfgQXJUAB+4ppIJWSxPcyRio5r2rkrVThRTS+iTS43ELIrDfpmsujW5Qzu3EqETgX7fxLj1gAAAAAAAAAAAAAAAAAA6txuFLarfPXVs7IKaBivkkeu4iIZG0laRKzHN4XYOdFaYHKlNBnr+277S+4goAJzgPRfecc1CSRNWltjHZSVcjdziYn1l9xp/COBrHg2hSC10qJKqfpKl6ZySL51/BNwkoAAAAAAAAAAAAAAAAAAAAAAAB+JImTRujkaj2OTJzXJmip3lKU0haC6a4pLcsLMbTVW659Eq5Ryfy+Cvm1cRniuoaq21stHW08kFRE7Yvjkbk5qnXAP3FLJBMyWJ7mSMVHNc1clRU1KhqXRDpPbi2hbaLrK1t5p2bjl3PpDE+sn2k4U9JaqKipmgAAAAAAAAAAAAAAAAAOHORqKqqiZJwmYNM+kl2I7i6w2yb/6XSuyle1dyeRP/ABTg7+sqIAFw6LtDs2IFivN/jkhteeyigXcdUede834mlaSjp6CljpqWFkMEbUayNjcmtROBEPuAAAAAAAAAAAAAAAAAAAAAAAAAFTMhGkDRtasc0CrI1Ke5sT9DVtbup5nd9vwMo4kw1c8LXiW23SnWKdi7i62vbwOavCh44B2rbcaq1XGnrqKZ0NTA9HxyNXdRUNhaOcc02OMOR1bVbHWw5Mq4UX9V/fTzLrQmIAAAAAAAAAAAAAAAABUWm/H64es6WK3TbG5VzP0jmruwxcK8a6k9Jl9Vz1gAuvRBom7LrFiK/Qr9ARdlTUz0/wA9fCd9n48RpBjGxtRrERGomSIiZIiH6AAAAAAAAAAAAAAAAAAAAAAAAAABFscYGtmNrM+krWbCoairT1LU7qJ34p30MiYlw1ccK3qe2XOFY5413HJ+q9vA5q95TxgCUYCxjVYKxNBcYVc6mcvW6qJF/wAyNdfpTWhsu219NdLdT11HK2WnnYkkb28LVO0AAAAAAAAAAAAAAAAeXiG+UmHLFWXWtcjYKaNXr33LwNTzquSGKsRXyrxJfqu71z9lPUPVypnuNTganmRNw8sAtHRDo1di65dlLlE7sNSv3UX/AF3p9VPMnDzGqYomQRtjjajWNREa1EyRETgQ/YAAAAAAAAAAAAAAAAAAAAAAAAAAAIVpIwBSY5sTosmx3KBFdSz5al8Ffsr/AMmQLhQVVruE9DWwuhqYHqyRjk3Wqh1gEL70AY42Mr8J18u47OWic5dS63M/FPSaCAAAAAAAAAAAAAAAAXcQzn1QWMVqrhBhelk/RU2U1XsV1vVO5b6E3fSUcASDBmFavGOJaa00qK1HrsppctyONNbl/wD+1mzbJZ6Ow2imtlBCkVNTsRjGpw99V866z0AAAAAAAAAAAAAAAAAAAAAAAAAAAAAUrpz0epdaB2J7dF/6ylb/AOqYxN2WNPrcbfhxGbFAO1ba+otVypq+kkWOop5EkjcnAqLmbYwliGnxThegvFOqZVEaK9qL+o9NxzfQuZ7YAAAAAAAAAAAAAAB5mIbzBh+wV11qVRIqWF0i+dU1J6VyQxDdblUXi61Vxq3q+oqZXSvcvfVczpgIay0NYGbhbCra2qi2NzuDUklzTdYzW1n4r51LLAAAAAAAAAAAAAAAAAAAAAAAAAAAAAPxLG2WN0b0RzXJk5FTNFTvGQNK2ClwZi+aOBipbqvOalXgRF1s9C+7IggBefU74pWC41mGaiT9HUItRTIq6np+sicaZL6DRQAAAAAAAAAAAAAABSHVFYkWls1Bh6F+T6t/X50RfqN1J6XfAziAWBogwj/ivG0CTx7Kgocqioz1OyXuW+lfcimvETYpkcgAAAAAAAAAAAAAAAAAAAAAAAAAAAAAgelrB7cWYJqWxR7Kuo0WoplRN1VRO6b6U9+Rj9yZOVFOAeph28zYfxDQXWBVR9LM2Tc4Uz3U9KZobhoauKvoKesgcjoZ42yMVOFFTNDsAAAAAAAAAAAAAAHC6lMdaWr8t+0jXSVr9lDTP+ixd7Jm4vvzIQBwmsNB+GEseA4q2Vmxqrm76Q/NN1GamJzbvpLNAAAAAAAAAAAAAAAAAAAAAAAAAAAAAAOHJskyMc6V8Mf4Wx/X00TNjS1C/SafLVsXbqp6FzQhIBrLQZf+zOjqnppHbKa3SOpnbu7sdbfcuXoLLAAAAAAAAAAAAAAPMxFc22XDdyuT1ySmpnypxoi5e8wxNK+eZ80iqr3uVzlXhVVzU/APVw1Z5L/iS3WqP9aqqGxr5kVd1ebM3FSU8dJSxU8LUbFExGManAiJkh9gAAAAAAAAAAAAAAAAAAAAAAAAAAAAAAUp1RVgSqw9QXyNmclHN1mRU8B+rmcnvM2gF1dTleFp8SXK0Od3FVAkzE+0xeh3uNJgAAAAAAAAAAAAAFbac7l2P0ZVkbXZPq5Y4E4lXNfc0yWAWx1P1nSvx9JXPbmygpnPRftO7lPcqmpQAAAAAAAAAAAAAAAAAAAAAAAAAAAAAACO48tCX3At5t+x2TpKZzmfzNTZN96IYkVMlyXWATLRTc+xWkyyTbLJsk/WHcT0Vv4obKTUcgAAAAAAAAAAAAAozqkq3YWeyUKL/mTySqn8rURPmM6gGjepwt3WrBeLire6mqWxIvma3P4uLwAAAAAAAAAAAAAAAAAAAAAAAAAAAAAAAOHNRzFa5M0VMlQwxiag7F4outDll1irkjRPMjly9x5QO3a6laK70VU1clhnZIi8TkU3fDIksLJG6ntRyek/YAAAAAAAOFXI8O9Yyw7h1F7LXelpnf8ATc/N6/8Aam6Qur0/YKpnK2J9fU5cMdPki/7lQ6m2Iwj4pdPUt/MNsRhHxS6epb+YbYjCPil09S38w2xGEfFLp6lv5htiMI+KXT1LfzDbEYR8UunqW/mG2Iwj4pdPUt/MNsRhHxS6epb+YbYjCPil09S38xU+l7H1tx5X2ya1x1EcNLE9rknajVVyqmrJV7xWwBd+jHSzhzBWDo7VX09c+q6++V7oY2q3dXc3VVOBCZbYjCPil09S38w2xGEfFLp6lv5htiMI+KXT1LfzDbEYR8UunqW/mG2Iwj4pdPUt/MNsRhHxS6epb+YbYjCPil09S38w2xGEfFLp6lv5htiMI+KXT1LfzDbEYR8UunqW/mG2Iwj4pdPUt/MNsRhHxS6epb+YbYjCPil09S38w2xGEfFLp6lv5htiMI+KXT1LfzDbEYR8UunqW/mG2Iwj4pdPUt/MNsRhHxS6epb+YbYjCPil09S38w2xGEfFLp6lv5htiMI+KXT1LfzDbEYR8UunqW/mG2Iwj4pdPUt/MNsRhHxS6epb+YbYjCPil09S38w2xGEfFLp6lv5htiMI+KXT1LfzDbEYR8UunqW/mG2Iwj4pdPUt/MNsRhHxS6epb+YbYjCPil09S38w2xGEfFLp6lv5htiMI+KXT1LfzDbEYR8UunqW/mG2Iwj4pdPUt/MNsRhHxS6epb+YbYjCPil09S38w2xGEfFLp6lv5htiMI+KXT1LfzDbEYR8UunqW/mG2Iwj4pdPUt/MNsRhHxS6epb+YbYjCPil09S38w2xGEfFLp6lv5htiMI+KXT1LfzDbEYR8UunqW/mG2Iwj4pdPUt/MNsRhHxS6epb+YbYjCPil09S38w2xGEfFLp6lv5htiMI+KXT1LfzDbEYR8UunqW/mG2Iwj4pdPUt/MNsRhHxS6epb+YbYjCPil09S38w2xGEfFLp6lv5htiMI+KXT1LfzDbEYR8UunqW/mG2Iwj4pdPUt/MNsRhHxS6epb+YbYjCPil09S38w2xGEfFLp6lv5htiMI+KXT1LfzBeqIwiv/tLp6lv5jP2N7xRYgxndLtbmSMpaqXrjGypk5M0TPNOPMj4CazS9s6oHC1LaqOnqKa5LNFAxkitiaqK5Goi5d0drbEYR8UunqW/mG2Iwj4pdPUt/MNsRhHxS6epb+YbYjCPil09S38w2xGEfFLp6lv5htiMI+KXT1LfzDbEYR8UunqW/mG2Iwj4pdPUt/MfpnVD4Qc7J1Nc2p3+stX/AMj3bVplwPdXtY28JTPdqbVRrH713PeTemq6ethbNSzxzxOTNr43I5q+lD7AA82+X+24ctUtyulSynpok3XO1qveROFfMZsxxpxvV+klpLI6S2W79VHNX9NInfV31eJOcqqSWSaR0ksjnvcuaucuar6T8AAAAAAAAAAAAAAAAAAAAAAAAAAAAAAAAAAAAAAAAAAAAAAA9vDuLr5haqSe0XGanXPuo0dmx3G1dxTR2jrTLb8VOjtt1ayhuzkybu/o51+yq6l8ylqA6lyuVLaLbUXCulSKmp2LJI9eBEMfaQsfV2Ob26eRz46CFypS0+e41vfXvuUhwAAAAAAAAAAAAAAAAAAAAAAAAAAAAAAAAAAAAAAAAAAAAAAAB+mPdG9HtcrXNXNFRclRTTuhnSa/EtJ2Du8uyutOzOKVy7s8ad/7Se8t4oHqhMXuatLhamkVEciVFXkuvwGr8eYoAAAAAAAAAAAAAAAAAAAAAAAAAAAAAAAAAAAAAAAAAAAAAAAAAA79lu1VYrxSXOikVlRTSJIxU4cuDiXUbasF7p79YKG60y/oqqFsiJ3lXWnoXNDHOPbw6+46vFwV2bX1Lms8zG9ynuQjgOUTMtXBeg29YmoI7hX1LLZSSpso0exXSPTgXY7mScZMdrVReUlR7M3pOdrVQ+UlR7M3pG1qofKSo9mb0ja1UPlJUezN6RtaqHykqPZm9I2tVD5SVHszekbWqh8pKj2ZvSNrVQ+UlR7M3pG1qofKSo9mb0ja1UPlJUezN6RtaqHykqPZm9I2tVD5SVHszekbWqh8pKj2ZvSNrVQ+UlR7M3pG1qofKSo9mb0ja1UPlJUezN6RtaqHykqPZm9I2tVD5SVHszekbWqh8pKj2ZvSNrVQ+UlR7M3pG1qofKSo9mb0ja1UPlJUezN6RtaqHykqPZm9I2tVD5SVHszekbWqh8pKj2ZvSNrVQ+UlR7M3pG1qofKSo9mb0ja1UPlJUezN6RtaqHykqPZm9I2tVD5SVHszekbWqh8pKj2ZvSNrVQ+UlR7M3pG1qofKSo9mb0ja1UPlJUezN6RtaqHykqPZm9I2tVD5SVHszekbWqh8pKj2ZvSNrVQ+UlR7M3pG1qofKSo9mb0ja1UPlJUezN6RtaqHykqPZm9I2tVD5SVHszekbWqh8pKj2ZvSeVibQFSYfwzcruy/TzOpIHSpG6nREdkmrPMowAlmjvB8eOMUJZ5at9K1YHy9caxHL3OW5l6S3NrVQ+UlR7M3pG1qofKSo9mb0ja1UPlJUezN6RtaqHykqPZm9I2tVD5SVHszekbWqh8pKj2ZvSNrVQ+UlR7M3pG1qofKSo9mb0ja1UPlJUezN6RtaqHykqPZm9I2tVD5SVHszekbWqh8pKj2ZvSNrVQ+UlR7M3pG1qofKSo9mb0ja1UPlJUezN6RtaqHykqPZm9I2tVD5SVHszekbWqh8pKj2ZvSNrVQ+UlR7M3pG1qofKSo9mb0ja1UPlJUezN6RtaqHykqPZm9I2tVD5SVHszekbWqh8pKj2ZvSNrVQ+UlR7M3pG1qofKSo9mb0ja1UPlJUezN6RtaqHykqPZm9I2tVD5SVHszekbWqh8pKj2ZvSNrVQ+UlR7M3pG1qofKSo9mb0ja1UPlJUezN6RtaqHykqPZm9I2tVD5SVHszekbWqh8pKj2ZvSNrVQ+UlR7M3pG1qofKSo9mb0ja1UPlJUezN6RtaqHykqPZm9I2tVD5SVHszekbWqh8pKj2ZvScbWqh8pKj2ZvSfCr6mtqQOWixGqzZdyk1Pk1fSilNYpwpdcIXZ1uu1P1uTLZMe1c2SN77V4UPEAL40TaRYLHgpLdWORVhqX9bzXU1URfiqlEvesj1e7dc5VVT8gkGB7fDdcc2SgqGo6Gerja9q8KZ5qnuNuNa1jUa1qIiJkiJwHIAAAAAAAAAAAAAAAAAAAABF9I+9viHkMnwMVAFpaAN8xvI5fwNVgAAAAAAAAAAAAAAAAAAAAAqLqhbZTT4Chr3MT6RS1bEY/Ldydmip8OYy+Afpsj2Jk1yonmU/IBK9Ge+Zh3lrDaQAAAAAAAAAAAAAAAAAAAAAIvpH3t8Q8hk+BioAtLQBvmN5HL+BqsAAAAAAAAAAAAAAAAAAAAAFX6ft7CblcPxUykAAASvRnvmYd5aw2kAAAAAAAAAAAAAAAAAAAAACL6R97fEPIZPgYqALS0Ab5jeRy/garAAAAAAAAAAAAAAAAAAAAABV+n7ewm5XD8VMpAAAEr0Z75mHeWsNpAAAAAAAAAAh2O9ItowLRMfVq6eslRes0ka90/zr3k85Rdy6oLF9VUOdRMoaKHPuWNh2a5edXHqYd6om709QyPEFFBVU6rk6Wnb1uRqd/LUvuNAWO+W/EVqhuVsqGz0szc2uTgXhRU4FTvHogAA/EsjYonSPcjWNTNznLkiJ3yjsZdUFFQ1ctDhimjqljVWuq589gq/ZamtPOpB4tPuN2TpI+eikZn/lupkROdN0tXAmm+04mljobwxlruDtxqq79DKvmVdS+ZectZHIqIqLminIAAABF9I+9viHkMnwMVAFpaAN8xvI5fwNVgAAAA8vEGILbhmzz3O6VCQ08Sbq8Ll4GonCqmeMRdUJiGtqXsscEFvpUXJjnsSSRU7657icx5lr0840oqhr6qopq6LPuo5YEbmnmVuWRfOAdJNpx5Ru+j509fEiLNSPXdTztXhQmoAACrkVlpC0xW3BkzrfSRfT7qid1EjsmRfzr3/MhUFRp9xtLULJHNRQx57kbaZFTnXNSYYQ6oV1RVR0mJ6SKJj1y+mUyKiN/mavB505i96eoiqoI5oJGyRSNRzXtXNHIvCin1AAAAAAAAAKv0/b2E3K4fiplIAAAlejPfMw7y1htIAAAAAAAAA+c0rYIXyvXJjGq5y95ETMxHi/EVTinFFddah6u67IqRtXUyNNxrU9B4QLi6n/E89BiySwPkVaSvjc9jFXcbK1M8040zTmNNgAAqLT9iiez4SgtVLIsctzkVsjk19abkrk9Kqic5l9d0HKKqFjYJ0x4gwkkdLUP7JW5u51id3dMT7LtacS5oaCwlpPw1i9jGUla2CsXXS1Cox+fm4HegmeyReE5AAAIvpH3t8Q8hk+BioAtLQBvmN5HL+BqsAAAHGaIQrGek/D2DInsqKlKmuy7mjgVHPz+1wNTjMx440gXjHNx69XydbpY1/QUsa9xH5/OvnIoD3MI4hqML4ooLrTPVqwyps0Rf12KuTmrxobehkbNCyVq5te1HIvmXdP2AAeBja+rhrB1zu7clkp4FWNF4XruN96oYnqqqetqpampkdLNK9Xve5c1c5d1VU+INKdTziaa42KtsVTIr1t6tfAqrupG7PueJFT3l0gAAAAAAAAFX6ft7CblcPxUykAAASvRnvmYd5aw2kAAAAAAAAAdC+fsC48ll+RTCIBOdD2+rY/6j/kcbEAABQvVJ0Ez6axXBrVWGN8sLl7yrkqfBTPgAOWvcxyOa5UVN1FTWhYOFtMmK8NIyJ1WlxpG7nWavNyonmdrT3lxYd0+4Yu2wiujZrVULuKsibOPP+ZNXpQs233a3XanSe311PVRL9aGRHJ7jt7JO+cgAi+kfe3xDyGT4GKgC0tAG+Y3kcv4GqwADjNDrV1yobbAs1dWQU0SbqvmkRie8rnEOnbCVmR8dDLLdKhNTaduTM/O9fwzKdxVpuxTiJr4KWVtrpHbmwpVXZqnnfr5sitnyPke573q5zlzVzlzVVPyAfeipZa2tgpYWq6WaRsbEThVVyQ3dQwrTUNPAq5rFG1irxIiHYAAK+02b1V244v7jTIYBdnU2r/8Aqa9cjb85pEAAAAAAAAAq/T9vYTcrh+KmUgAACV6M98zDvLWG0gAAAAAAAADoXz9gXHksvyKYR4QCc6Ht9Wx/1H/I42IAADw8W4YosXYdqrRWoqMmTNkia43pqcnEZBxfgq8YNujqO50zkYqr1qoamccqd9F/DWRwAAalzO1RXKuts6TUNXPTSpqfDIrF9xPbLpvxpaUayWtir4m/Vq40cv8AuTJSe2rqkoHIjbvYZGLwvpZUcnM7L4kxt2nLA9fkklwmpHLwVEDky9KZoSiixzhW4on0XENtkVdSfSGovMp7MVbS1CZw1MMid9kiL8CPaR1RdG+IcvEZPgYqALS0AqiaS2qq5J9Dl/A1JJW0sKZy1MLE+1IiHnVOLMO0ef0i+26PLwqlnSeDWaWsDUSrs8Q0z1TghR0nwQjld1QeEKZFSmjr6x32IUYi+lykUuXVJ1LkVtrw/GzvOqZld7monxITd9NWN7qjmtubaKN31aSJGfeXNfeQauudfc5llr6yoqpF1umkV6+86oAByiKvAX1oU0YTtqYMVXmB0bGd1RQPTJXL/wBRU4E73OaCRMgAAV9ps3qrtxxf3GmQwC7Opt/ee9cjb85pEAAAAAAAAAq/T9vYTcrh+KmUgAACV6M98zDvLWG0gAAAAAAAADoXz9gXHksvyKYR4QCc6Ht9Wx/1H/I42IAAAdC7Wa3XygkorlRxVVPIndMkbmnGneXzlAY40A1lGsldhZ61UGtaOV36Rv8AKv1vTu8ZS9XR1NDUvp6qCSCaNcnRyNVrkXzop8AAAAD6R1E0S5xyyMX7LlQ7S3m6LA6FblVrE9Ni5izuVrk7ypmdEA/cU0sD9nDI+N2WWbHKi5eg5fPLIuckr3r9pyqfMAAAAHat9trbrWxUdBSy1FRIuTY42q5VNDaOdB0NqfDdcTtZUVaZOjo0XOONe+7wl82rjLsa1GJk1Mk7xyAACvtNm9VduOL+40yGAXZ1Nv7z3rkbfnNIgAAAAAAAAFX6ft7CblcPxUykAAASvRnvmYd5aw2kAAAAAAAAAdC+fsC48ll+RTCPCATnQ9vq2P8AqP8AkcbEAAAAI9ibBOH8W0yxXe3xzPRMmzN7mRnE5N0o3FXU93WhV9Rh2qbXwJu/R5lRkqJ3kXU73FRXO0XGzVbqW5UU9JM1d1kzFavv1nSAAAAAAAAAAGSnZorfWXKpbTUVLNUzOXJI4mK5y+hC2sJ6AL1c1jqcQTJbaZd3rLMnzO/Bvv4i+cMYLsWEqPrFpoWQuX9eZ3dSSfzO1+jUSBEyOQAACvtNm9VduOL+40yGAXZ1Nv7z3rkbfnNIgAAAAAAAAFX6ft7CblcPxUykAAASvRnvmYd5aw2kAAAAAAAAAdC+fsC48ll+RTCPCATnQ9vq2P8AqP8AkcbEAAAAAOhc7Lbb1TLTXOhgq4V+pMxHJ6M9RV2Iup8w7cVfJZ6me2Sruoz/ADI8+Jd1Ocq2+6DMY2jZPpqaK5Qp9alf3WX8q5LzZlf19rr7ZMsNdRVFNIn1Zo1YvvOoAAAAAABkMjuUFpuF0mSKgoamqev1YYlf8EJ5ZNB2NLurXTUcduhX61W/Jf8Aamalm4e6niyUSskvdfUXB6a44061H0rzoWpZ8OWfD9P1i026npI+HrTERV411r6T1ETIAAAAFfabN6q7ccX9xpkMAuzqbf3nvXI2/OaRAAAAAAAAAKv0/b2E3K4fiplIAAAlejPfMw7y1htIAAAAAAAAA6F8/YFx5LL8imEeEAnOh7fVsf8AUf8AI42IAAAAAADrVVvpK6JYqymhqI11tlYj095DbroewRdVc51mZTSL9elesfuTc9xC7l1N9qlVzrbe6un7zZ42yJzpkpFK/qdMSwZrRXK31SJqRyujVedFQj1XoTx3SZ5Whs6Jwwzsdn70PGqNG+M6XPruGrjknC2FXfA8uqwzfaKN8lVZq+GNiZufJTvRETvquR5QB2qC2111qUprfSTVU6orutwsV7sk4ckPfh0b4zqFTreGrlu+FCrfienTaG8eVK7lifGnfllY38T2aTqfsZz5deW306fbn2SpzIpIKLqbK1yotdiGCNOFIIFd71VCT27qdsMU+S1tfcKteFEc2NPcmfvJfbNFWCbTsVgsNNI9NT6jOVfvKpK6ejpqSJIqaCOFiamxsRqe4+6bgAAAAABX2mzequ3HF/caZDALs6m39571yNvzmkQAAAAAAAACr9P29hNyuH4qZSAAAJXoz3zMO8tYbSAAAAAAAAAOhfP2BceSy/IphHhAJzoe31bH/Uf8jjYgAAAAAAAAAItpHT/9uMQ7v/sZPgYrALS0Ab5jeRy/garAAAAAAAAABX2mzequ3HF/caZDALs6m39571yNvzmkQAAAAAAAACr9P29hNyuH4qZSAAAJXoz3zMO8tYbSAAAAAAAAAOhfP2BceSy/IphHhAJzoe31bH/Uf8jjYgAAB8amqp6OB01TPHDE3W+R6NRPSp48WNcMTzJDFiC2PlVckalSzP4nuMe17Ec1yK1d1FRc0U/QAAAAIvpH3t8Q8hk+BioAtLQBvmN5HL+BqsAAAAA8u7Yjs1iRFulzpKNF1JNKjVXiTWdO243wxd50hoL7QTyruIxsybJeJFJBmAAAV9ps3qrtxxf3GmQwC7Opt/ee9cjb85pEAAAAAAAAAq/T9vYTcrh+KmUgAACV6M98zDvLWG0gAAAAAAAADoXz9gXHksvyKYR4QCc6Ht9Wx/1H/I42IAADwcX4opMIYbqrvWd02JMo40XJZHr+q1DIeK8a3rF9xfU3Src6PP8AR07VVI407yJ+OsjnCTrA2lO+4MqWxtkdWW1V7ukmeqoid9i/VX3Gl8IaQ8P4zp2rbqtrKrLOSklXYyN9HCnnQlgAAABF9I+9viHkMnwMVAFpaAN8xvI5fwNVgAAAHCrkVRpT0tU2F6aW12aeOa9PTYuci7JtOnfX7XeTnMx11wq7lVyVVbUS1FRIub5JXK5yqfBrlYqK1clTdRULw0N6Va1t0p8N32pdPBOqMpKiR2bo3cDFXhRdSd5TRYAAK+02b1V244v7jTIYBdnU2/vPeuRt+c0iAAAAAAAAAVfp+3sJuVw/FTKQAABK9Ge+Zh3lrDaQAAAAAAAAB0L5+wLjyWX5FMI8IBOdD2+rY/6j/kcbEAABQnVJ10zaexUCKqQvdLM5O+qZInxUz6AfWnqZqWdk1PK+KVi5texytc1fMqFtYQ093u0dbpr7El0pW7nXc9jM1OPU7085eOGNJOF8WNY233KNtQ5N2mnXrciL3sl1+jMloAABF9I+9viHkMnwMVAFpaAN8xvI5fwNVgAAAjWJce4cwnE511uUTJUTNKeNdnK7ian4lCY2073i+JJR2KN1ronbiyZ5zPTj+r6OcqR73SPV73K5zlzVVXNVU/IPrTTyU1TFPE5WyRvR7VTgVFzQ3hQTOqLfTTP/AFpImvXjVEU7AABX2mzequ3HF/caZDALs6m39571yNvzmkQAAAAAAAACr9P29hNyuH4qZSAAAJXoz3zMO8tYbSAAAAAAAAAOhfP2BceSy/IphHhAJzoe31bH/Uf8jjYgAAKk0+YYnvWE4LnSRrJNbJFe9rUzVYnJk5fQqIvOZdUAA5a5WORzVVFRc0VFyVCcYc0t4vw5sI4bk6qpm/6FX+kTLzLrTnLVsPVF2uZGx321TUr11y0y9cZzLkqe8sizaQ8J35G/QL5SOkd/pyP62/mdkpJWPR7Uc1UVF1Kin6AIvpH3t8Q8hk+BioAtLQBvmN5HL+BqsAH4lmjgjV8sjGNTW5zkRCL3bSVg+ybJKy/UmzT/AE4X9cdzNzK/vnVF2ena9lmtdRWPTVJOqRM5t1V9xV2INM2Mb8j40rkoKd2uKjTYbnnd+t7yAyyvmkdJI9z3uXNznLmqrxn4ABIsD4ZqMWYtobXAxVY6RHTORNxkaLm5V9G56TbEUbYo2xtTJrURETzH7AAK+02b1V244v7jTIYBdnU2/vPeuRt+c0iAAAAAAAAAVfp+3sJuVw/FTKQAABK9Ge+Zh3lrDaQAAAAAAAAB0L5+wLjyWX5FMI8IBOdD2+rY/wCo/wCRxsQAAH5kjbLG5j2o5rkyVFTNFQoTSHoJWSSa54TREc5VdJb3Lkn/AONfwUoaro6igqpKargkgnjXJ8cjVa5q+dFPgAAAm4uZ7NsxZiCzKi26811Nlqayd2x5tRL7fpzxxQoiS1tPWNTgqIEVeduSkoouqRujMkrrDSS99YZXM+OZ71N1SVpcifSrBWRr/wDHK13xyPhijTlhnEGD7ra4KW4RVNVTPij65G3Y7JU4VRxngAmWjLFtHgrFyXetgmmhSnfFsIctlm7Lv8Rbc/VJWlqKkGH61/8APM1vSeTU9UnVLn9Fw3C3vLLUqvwRDw6zqhcWT5pTUttpu8qROeqc6kcr9L+Obhmj79NC1fq07Gx/BMyLV17utzcrq+5VdSq/9aZzvip0AAAD2cNYYuuK7rHb7VTOllcvdO1NjTvuXgQ1jo+0e2/Atp61CqTV8qItTUqm69e8neahMwAAV9ps3qrtxxf3GmQwC7Opt/ee9cjb85pEAAAAAAAAAq/T9vYTcrh+KmUgAACV6M98zDvLWG0gAAAAAAAADoXz9gXHksvyKYR4QCc6Ht9Wx/1H/I42IAAACL4twDYMZU6tulG3r6Jkypi7mVnp4U8ymfMYaD8Q2BZKm1p2VoU3c4m5StTzs4fQVfJG+GR0cjHMe1cnNcmSovEfkAAAAAAAAAAAH6Yx0j2sY1XOcuSNRM1VS1sD6D71iB0dXetla7euS7F7f00ieZv1eNeY0ZhzC1owpbWUNopGQRJ+s5EzdIvfcutVPZAAAK+02b1V244v7jTIYBdnU2/vPeuRt+c0iAAAAAAAAAVfp+3sJuVw/FTKQAABK9Ge+Zh3lrDaQAAAAAAAAB0L5+wLjyWX5FMI8IBOdD2+rY/6j/kcbEAAAABFsTaO8M4ta5bpbY1qFTcqYu4lT/uTX6cyl8T9TzdaNXzYero66LWkE/6OROJdS+4qe8YcvFgnWG622ppHp/1Y1RF4l1KeWAAAAAAAAADv2uyXO9VCQWygqKuRfqwxq7Lj7xaeGep+vtwVkt8qorZAu6sbf0kq824nOXZhXRphnCCNfQULZKpNdVUd3J6F1J6CXgAAAFfabN6q7ccX9xpkMAuzqbf3nvXI2/OaRAAAAAAAAAKv0/b2E3K4fiplIAAAlejPfMw7y1htIAAAAAAAAA6F8/YFx5LL8imEeEAnOh7fVsf9R/yONiAAAAAA+FVR09dC6GqginicmSslYjkX0KQC+aEsGXlXSR0T7fM769I7Yp/tXNCuL11OV0hVzrNeKepbwR1DFjdzpmhAbroqxrZ9ks9iqJWN+vT5Sp90idRSVNI/YVNPLC9NbZGK1U5z4gAAAAA79FZbpcXI2it1XUqvBFC53wQlls0O45ueStsr6di/Wqntj9y7vuJvZ+pwuE2xdd73BAnCymjV6865IWHZNB2DLRsXzUklwlT61W/NM/5UyQn9Fb6S206QUVLDTxN1MijRqcyHZAAAAAK+02b1V244v7jTIYBdnU2/vPeuRt+c0iAAAAAAAAAVfp+3sJuVw/FTKQAABK9Ge+Zh3lrDaQAAAAAAAAB0L5+wLjyWX5FMI8IBOdD2+rY/6j/kcbEAAAAAAAB1qu30dcxWVVLBO1eCWNHJ7yNV2jDBdxVVnw7Qoq8MTOtr93Ij1XoEwRUqqx09ZTL/APFULkn+7M8eo6nDDz1XrF4uMXeRyMd+CEbxRoDpsP4cuN3hv0s30OB03Wn06Jssk1ZopRoBLtHGEIcb4rS0T1b6ViwPl64xqOXuctzJeMueHqcMPtXOa83GT+VGN/BT1KfqfsFw5LL2Qn/nqMvgiHsUmhvAlJkqWKOVU4ZpXv8AipIKLBuG7dl9DsVuiVNStp258+R7UcbImo2NjWNTgamSH6AAAAAAAK+02b1V244v7jTIYBdnU2/vPeuRt+c0iAAAAAAAAAVfp+3sJuVw/FTKQAABK9Ge+Zh3lrDaQAAAAAAAAB0L5+wLjyWX5FMI8IBOdD2+rY/6j/kcbEAAAAAAAAABF9I+9viHkMnwMVAFpaAN8xvI5fwNVgAAAAAAAAAr7TZvVXbji/uNMhgF2dTb+8965G35zSIAAAAAAAABV+n7ewm5XD8VMpAAAEr0Z75mHeWsNpAAAAAAAAAHQvn7AuPJZfkUwjwgE50Pb6tj/qP+RxsQAAHCrkmZV2M9N9hwzVSUNDE+6Vsa7F6RPRsbF7yu4V4iDxdUncEn/TYeplhz1MncjsuNULTwTpSw/jVqQ00jqWvRM1pJ1RHL/Kup3oJsi5ocgAAAEX0j72+IeQyfAxUAWloA3zG8jl/A1WAAAADrV9fS22imrK2dkFPC1XySPXJGoUhiLqi4aeqkgw/avpDGrklRVOVqO86NTdy41PMtvVIXFtS3spZKeSBV3VppFa5OfNFLrwpjKzYxtv0y01PXMtySJ6ZPiXvOQkAAAK+02b1V244v7jTIYBdnU2/vPeuRt+c0iAAAAAAAAAVfp+3sJuVw/FTKQAABK9Ge+Zh3lrDaQAAAAAAAAB0L5+wLjyWX5FMI8IBOdD2+rY/6j/kcbEAABWWm3F8+GMHpT0Uix1lxesLHtXdYxEzcqefUnpMoKqqqqqquZwfSGeWnmZLDI+ORi7Jr2OyVq99FLlwRp8r7akdDiWN9dTJuJVM/zWp9pNTviX3YMU2XE1GlTaLhFVM+s1q90z+Zq7qHsIuZyAAARfSPvb4h5DJ8DFQBaWgDfMbyOX8DVYAAAGo8PEmLbLhSgdV3euZA3LuGZ5vkXvNbrUzDpH0q3DHEq0kLXUlojdmyDPupFTU56/hqQrxVz1glWj7FlRhHF1HXxyOSne9IqmPPcfGq7ufFrTiNoscj2I5FzRyZovmP0AAV9ps3qrtxxf3GmQwC7Opt/ee9cjb85pEAAAAAAAAAq/T9vYTcrh+KmUgAACV6M98zDvLWG0gAAAAAAAADoXz9gXHksvyKYR4QCc6Ht9Wx/wBR/wAjjYgAAKB6pSnlVLBUIi9ZTr0arwI5divwQoAAHat9yrbVWMq6Crmpqhi5pJE9Wr7i28L9UHebcjIL/SsuUKbnXo8o5U/BfcXHhzSrhHErWMproynqHf6FV+jf79xfQpM2va9EVq5oupU4T9AAEX0j72+IeQyfAxUAWloA3zG8jl/A1WAADhXI3PPgIniLSVhPDTXNrrvC6dP9CBeuScyavSU7inqhrjVo+nw5RJRRrufSajJ8nGjdSe8p25XWvvFY+ruNXNVVD9ckr1cp0wD6QxPmnjjjTN73I1qJwqq7hvC3xvhttLFJ+uyFjXcaIiHZAAK+02b1V244v7jTIYBdnU2/vPeuRt+c0iAAAAAAAAAVfp+3sJuVw/FTKQAABK9Ge+Zh3lrDaQAAAAAAAAB0L5+wLjyWX5FMI8IBOdD2+rY/6j/kcbEAABFdIGD4sa4VqLW9zWToqSU0q/UkTVn5l1LxmPb3ZLhh+5zW+50r6eoiXJWuTWnfReFPOecAAMyR2LHeJ8OK3sZeaqKNP9Jz9mz/AGuzQsezdUZeqZGsvFrpqxqa5IVWJ/NuoTy1af8ACFdsUrPptA9dfXYtm1PS3P4Ezt2P8JXVE+h4goHquprpkYvM7JT34qmCdqOhmjkavCxyKnuPpmRjSPvb4h5DJ8DFQBaWgDfMbyOX8DVWZw57Wpm5yInnXI8+rxDZaBFWru1FBlr65O1PxI5X6WcD29F65iCnkcn1YEdIv3UIlcuqIwzS7JKChuFa7gVWpG33rn7iFXbqi7/Uo5trttHRNXU6TOV34J7ivr3pAxViHZJcb3VyMX/SY/rbP9rckI3mqrmq7pwAAW/oV0c1F6vMGIrjCrLZSP2cKOT/AD5E1ZfZRd3M08AACvtNm9VduOL+40yGAXZ1Nv7z3rkbfnNIgAAAAAAAAFX6ft7CblcPxUykAAASvRnvmYd5aw2kAAAAAAAAAdC+fsC48ll+RTCPCATnQ9vq2P8AqP8AkcbEAAAyzI9irBdlxjQLSXakbJkn6OZu5JGvfa78NRnDG+he/YWWSqoGOudtTNeuRN/SRp9pv4oVmqKi5KhwAAADsQV9ZSuRaernhVNSxyK34KezS47xZRplBiK5sTvfSHL8VO3VaS8YV1uqLfWX6pnpZ2LHJHIjV2TV1pnlmRMA71pvNysVb9MtdZLSVOxVnXIlyXJdaHpT46xZU/52I7m7/wD0uT4KeZPd7nVf/wAi41cuf/Unc74qdNVVy5uVVXznAAAAP0yN8j0Yxqucq5IiJmqqXXo50G1VydDdcURup6RMnMol3JJf5/BTza+I0TS0sNHTR09PEyKGJqNYxiZI1E4EQ+4AAK+02b1V244v7jTIYBdnU2/vPeuRt+c0iAAAAAAAAAVfp+3sJuVw/FTKQAABK9Ge+Zh3lrDaQAAAAAAAAB0L5+wLjyWX5FMI8IBOdD2+rY/6j/kcbEAAABwrUXWhAcYaIsNYtV86030Gudu/SaZEbmv2m6nfEofFmhfFOG1fNBT9k6Nu712lRVcifaZrT0ZldvjfG9WParXNXJUcmSofkAAAAAAAAAAHKIrlRETNV1IT/COh/E+KXMldSrb6J279IqkVuafZbrX4GgcFaKMPYNRk0cH0y4Jrq6hEVU/lTU34k8RMtQAAAK+02b1V244v7jTIYBdnU2/vPeuRt+c0iAAAAAAAAAVfp+3sJuVw/FTKQAABK9Ge+Zh3lrDaQAAAAAAAAB0L5+wLjyWX5FMI8IBOdD2+rY/6j/kcbEAAAABxkirmRjEmj/DOKWu7J2qF8q6p402Eif8Acmv0lSYh6nKZivlw9dWvbrSCsTJeJHp+KFW33R5ivDznLX2WpSJv+tE3rjOduZGFarVVFTJU4FOAAAAAAAAcoiquSJmq8CEksmAMVYgc3sfZKt8a/wCq9nW2f7nZIWdYOpyrpthLf7rHTt4YaVNm7/cu4nvLawzoywrhVGPobXHJUN/9xUfpJPQq6vQS9GompDkAAAAr7TZvVXbji/uNMhgF2dTb+8965G35zSIAAAAAAAABV+n7ewm5XD8VMpAAAEr0Z75mHeWsNpAAAAAAAAAHQvn7AuPJZfkUwjwgE50Pb6tj/qP+RxsQAAAAAA42Kbu5rI9ecCYXv+yW42Ojmev+okexf/uTJSA3XqeMMVeydb6uuoHLqTZJK3mXd95Dbl1OF7hzW23iiqW8DZWujX8UIpX6FsdUGf8A9H+kNThp5mv92eZHavBOKKFV+k4fuUeXD9Hcqc6IeTLQVkC5TUk8apwPjcnxQ+Ctci5KiocAHKNVy5NRVXzH3joauZcoqWd6/ZjVfwPQp8J4iq1T6PYrlJn4NK/oPapNFOOKzLreHKtqLwy5M+KoSCi0A41qslnjoaRF/wCrUZqnoaikmt/U2VDsluWIY2Jwtp4Fd73KnwJdbOp/wfRKjqta2vcnBLLsGr6GonxJxacE4ZsaJ2OsdFA5PrpEjnf7lzU97Yp3tRyAAAAACvtNm9VduOL+40yGAXZ1Nv7z3rkbfnNIgAAAAAAAAFX6ft7CblcPxUykAAASvRnvmYd5aw2kAAAAAAAAAdC+fsC48ll+RTCPCATnQ9vq2P8AqP8AkcbEAAAAAAAACpmMj8PijkTu42O/mRFIhpGtlAmj2/ypRUySNopFa/rTc0XLWi5GNAC0NAkUcukprZGNe36HKuTkzTgNVMhjZ+pG1vEmR+zjJDkAAAAAAAAr7TZvVXbji/uNMhgF2dTb+8965G35zSIAAAAAAAABV+n7ewm5XD8VMpAAAEr0Z75mHeWsNpAAAAAAAAAHQvn7AuPJZfkUwjwgE50Pb6tj/qP+RxsQAAA4zQ5zOM0OQAAAARfSPvb4h5DJ8DFQBaWgDfMbyOX8DVYAAAABxmnfOc0AAABX2mzequ3HF/caZDALs6m39571yNvzmkQAAAAAAAACr9P29hNyuH4qZSAAAJXoz3zMO8tYbSAAAAAAAAAOhfP2BceSy/IphHhAJzoe31bH/Uf8jjYgAAPxLI2KJ0j3I1jUVznOXJEROFTPOPtPNY+slt+E1ZDBGqtdWubsnSL9hF3ETzlZrpGxmtR1/wDxLctnnn/nLlzaixMFafrhRyspcUs+mU67n0qNqJIzzqibjk95oCzX22YgoGVtrrYaqB31o3Z5eZU1ovmU9EAAAAi+kfe3xDyGT4GKgC0tAG+Y3kcv4GqwAAABmQfSLpIt+BLbmuwqblKn6ClR27/M7vN+Jmu+aUMYX2pfJNeqiCNVzbDSuWJjfNua/Sfiy6TsYWOoZJT3uplYi7sVS9ZWO40d+BpHRvpLo8eUL2OY2mukCIs9Oi5oqeE3zfAnwAAK+02b1V244v7jTIYBdnU2/vPeuRt+c0iAAAAAAAAAVfp+3sJuVw/FTKQAABK9Ge+Zh3lrDaQAAAAAAAAB0L5+wLjyWX5FMI8IBOdD2+rY/wCo/wCRxsQAAFZadL9NZdHksNO9WS18zabZIu6jFRVdzomXpMn6wD07LiK7YdrUq7TXzUkya1jduO8ypqVOMu7CXVDsVI6bFFFsV1fS6VM043M6OYuax4nsuI6ZJ7TcqerautI390nG3Wh62ad8AAAi+kfe3xDyGT4GKgC0tAG+Y3kcv4GqwAABmh5t5xBacP0jqq63CnpIk4ZXoirxJrX0FI406oPZMko8KU6oq5t+nVDfexn4rzFF19xrLpWy1ldUyVFTKub5JHZqqnWBKdHN7msGPbRWROVGuqGwyoi/rMeuxVPf7jaaLmcgAFfabN6q7ccX9xpkMAuzqbf3nvXI2/OaRAAAAAAAAAKv0/b2E3K4fiplIAAAlejPfMw7y1htIAAAAAAAAA6F8/YFx5LL8imEeEAnOh7fVsf9R/yONiAAAqvT7aJrlo++kwsVy0FS2Z6In1FRWqvvQysusAA+9JW1VBUNqKSolgmaubZInq1yelCyMPadcW2bYR1skN0gbwVKZPy/nTd58y0LJ1QmGa9GsulPVW2Vdblb11nOm77ixLTi7D99YjrbeaKpVfqslTZf7V3T2c075zmARfSPvb4h5DJ8DFQBaWgDfMbyOX8DVYAzQ4VURM1VETvqeFdcaYbsqL2QvdDAqfVdMiu5k3SBXrqgsLUCOZboaq5SJqVjOts53bvuKzxBp8xVdUdHbm09rhXcziTZyf7nfghWlwudfdal1TcKyeqmdrfM9XL7zqAAk2j2zTX3HlmoomKqfSWSyKn1WNXZKvMhtZDkAAr7TZvVXbji/uNMhgF2dTb+8965G35zSIAAAAAAAABV+n7ewm5XD8VMpAAAEr0Z75mHeWsNpAAAAAAAAAHQvn7AuPJZfkUwjwgE50Pb6tj/AKj/AJHGxAAAfGrpoayklpqiNskMrVZIxyZo5q7ioZd0i6GrnhqonuNnikrbQqq7JiZyQJ3nJwonf5yq1TJTgAAHLXuY5HNcrVTUqLkSC2Y6xVZ9ilDfq6JqamLKrm8y5oS+36fMa0eSTyUVY1P+tAiKvpbkSai6pOtbklbh6nf31hnVvuVFPbp+qRsr0/8AU2OviX7EjH9B18VaccL3/B91tcEFwjqaqmfFH1yJuxzVNzNUcZ2AJnoxxbRYKxcl2r4ZpYUp3xbGFEV2a5Za1TvFvTdUjZW59YsVe/8AmkY3pPLqOqVcuf0XDaJ3llquhp4lZ1ReJps/ottttP3lVrnr71I7Xaasd1uaJd206LwU8LW+/LMi9wxViC6qv0+9V9Qi60fO5U5s8jyFVVVVVc1XhOAAAdq3W6rutfDQ0NPJUVMztiyONuaqpqrRToxiwRQOrK5Wy3mpaiSuTdbE3XsG/ipZIAAK+02b1V244v7jTIYBdnU2/vPeuRt+c0iAAAAAAAAAVfp+3sJuVw/FTKQAABK9Ge+Zh3lrDaQAAAAAAAAB0L5+wLjyWX5FMI8IBOdD2+rY/wCo/wCRxsQAAA4ciORUXUpWuNdDGH8UrJVUbexlxdu9dhb3D1+0z8UyM+4s0Z4lwg97q2hdNSIu5V06K+NePhb6SHgAAAAAAAAAAAHOROcGaKsRYxkZNFTrR29V3auoaqNVPsprd8POaVwTo7seCaTY0EKyVjkylq5URZH8XeTzIS4AAAr7TZvVXbji/uNMhgF2dTb+8965G35zSIAAAAAAAABV+n7ewm5XD8VMpAAAEr0Z75mHeWsNpAAAAAAAAAHQvn7AuPJZfkUwjwgE50Pb6tj/AKj/AJHGxAAAAD8vjbI1WvRHNVMlRUzRSvMU6F8KYj65PFTuttY7d67SZI1V87NS+4pnEmgjFVmV8tvSO606bqLB3MmXnYv4KpWtZQ1duqHU9ZTTU8zdxWSsVqp6FOuAAAAAAAAAD7UtJUVtQ2CmglmlcuSMiYrnL6ELGw3oOxbfFZLVwMtdMu6r6n9fLzMTd58i6cJ6FsL4b2E9RCtzrG7vXapEVrV+yzVz5ljMY2NqNaiI1NSIm4h+gAAAV9ps3qrtxxf3GmQwC7Opt/ee9cjb85pEAAAAAAAAAq/T9vYTcrh+KmUgAACV6M98zDvLWG0gAAAAAAAADoXz9gXHksvyKYR4QCc6Ht9Wx/1H/I42IAAAAAF3UPPuditV6gWC52+mq414Jo0dlxd4ri+aAcJ3LZyW91TbJV1JE7Zs/wBrukrq8dTviOk2TrZX0dexNTXKsT/fmnvINdNHWLrNmtZYK5GJrfHH1xvO3MjUsUkL1ZLG+Nya0e1UU/AAAAAAOzS2+trno2ko6idy6kiiV3wQlNt0VY1uqt6xYKqNq/XqESJPvKhNLT1Ot/qFa66XOjo2cLY0WV34J7ywLJoAwnb9i+vkq7lImtJX7Bn+1vSWJasO2exxJHa7bS0jU/6MSNVeNdanpgAAAAFfabN6q7ccX9xpkMAuzqbf3nvXI2/OaRAAAAAAAAAKv0/b2E3K4fiplIAAAlejPfMw7y1htIAAAAAAAAA6F8/YFx5LL8imEeEAnOh7fVsf9R/yONiAAAAAAAA6VZZ7bcGq2tt9LUov/Vha74oRmu0UYHuGay4fpWOXhhzjX7qoR+r0AYKqM1hbX06//HUZp95FPHqOpvsT1VYL3cI/M5jHfghG8UaAobDh24XaK/ySpSQOm62+nRNllwZo4pEAlujnB8OOMVJZ56t9KxYHy9cYxHL3OW5kvGXND1N9hav6a93GT+VrG/gp6dP1PeDYsllkuU3806J8EPYpdC2A6VUXsL15U/60z3fie9RYEwrb8vouH7dGqal+jtVedT3IaaGnajYYo42pwMYjU9x9QAAAAAACvtNm9VduOL+40yGAXZ1Nv7z3rkbfnNIgAAAAAAAAFX6ft7CblcPxUykAAASvRnvmYd5aw2kAAAAAAAAAdC+fsC48ll+RTCPCATnQ9vq2P+o/5HGxAAAAAAAAAARfSPvb4h5DJ8DFQBaWgDfMbyOX8DVYAAAAAAAAAK+02b1V244v7jTIYBdnU2/vPeuRt+c0iAAAAAAAAAVfp+3sJuVw/FTKQAABK9Ge+Zh3lrDaQAAAAAAAAB0b0iusdwa1M1WmkRE/7VMILuKoBO9DjHP0q2TYoq5Peq8WwcbCAAAAAAAAABF9I+9viHkMnwMVAFpaAN8xvI5fwNVgAAAAAAAAAr/TUxz9FV32KZ5daVeLrjTIQBdvU2sd/iO9PRF2KUjEVfPs/wDg0gAAAAAAAAAVfp+3sJuVw/FTKQAABK9Ge+Zh3lrDaQAAAAAAAABw5qORUVM0VMlQxzpOwVU4PxZUR9bd2PqXulpJctxWquex401EJBfugDBNQyplxXWxLHGsaxUaOTJXZ/rP4uBPSaAAAAAAAAAABF9I+9viHkMnwMVAFpaAN8xvI5fwNVgAAAAAAAAA8zEFohv9hrbTUf5VXC6JV72abi+hclMU4hsFdhm9VFruMSxzwuVNW49OByd9FPLOWtV7ka1FVV3EROE1boSwXPhbCz6uvjWO4XFUkexybsbE/Vavn3VX0lngAAAAAAAAFX6ft7CblcPxUykAAASvRnvmYd5aw2kAAAAAAAAADzL5YLZiS3PoLrSR1NM76r03UXvoutF86FSXLqb7TPUOfbr3VUsarn1uWNJMuJc0PUw7oBw3aKllTcaie6yMXNGSojI8/O1NfpUteKGOCNscTGsjYiNa1qZIid5EP2AAAAAAAAACL6R97fEPIZPgYqALS0Ab5jeRy/garAAAAAAAAAAI3ivA1ixlSpDd6RHvYn6OdncyR8Tvw1FX1HU2ULqhXU+IqhkKr+rJTtcqJxoqfAl+EtDOGcK1LKxWyXCuZutmqclRi99rU3EXz7pYiJkhyAAAAAAAAAVfp+3sJuVw/FTKQAABK9Ge+Zh3lrDaQAAAAAAAAAAAAAABw5UamalWYx042DDlVJR2+J91q41yf1p6NiYveV3CvEQdeqTuma7HD1HlnuZzu6DjbJ3Xyeo/Xu6Btk7r5PUfr3dA2yd18nqP17ugbZO6+T1H693QNsndfJ6j9e7oG2Tuvk9R+vd0DbJ3Xyeo/Xu6Btk7r5PUfr3dA2yd18nqP17ugbZO6+T1H693Qedf9Plyv9grrTLY6WJlXC6JZGzOVWovDkVAASTA+L5sEYhS709LHUvSF0XW5HK1O6y3c04izNsndfJ6j9e7oG2Tuvk9R+vd0DbJ3Xyeo/Xu6Btk7r5PUfr3dA2yd18nqP17ugbZO6+T1H693QNsndfJ6j9e7oG2Tuvk9R+vd0DbJ3Xyeo/Xu6Btk7r5PUfr3dA2yd18nqP17ug7lu6pJ7qhrbnh9rYVXddTTqrk9Dk3ecuXDGLbPi62pXWiqSaNFyexdx8a95ycB7gAAAAAAAAAAAAAABV+n7ewm5XD8VMpAAAEr0Z75mHeWsNpAAAAAAAAAAAAAAAFVadMYVGG8LRW+hlWOrubljV7V3WRIndKnnXNE9KmWFXNTgAAAAAAAAAAAAAEpwBi+pwbimlr4ZH9Yc9I6mPPcfGq7ufnTWnEbRie2WJsjFza5Ec1U4UU/YAAAAAAAAAAAAAAKv0/b2E3K4fiplIAAAlejPfMw7y1htIAAAAAAAAAAAAAAAzt1ScEqXWxVCovWVgkYi8Gy2SL8FKLAAAAAAAAAAAAAAOWtVzka1M3KuSIhuyxxSQWC3QzZ9cZTRtfn30amZ6AAAAAAAAAAAAAAAKv0/b2E3K4fiplIAAAlejPfMw7y1htIAAAAAAAAAESxvpBs+B6Bs1e90lTKi9ZpY17uTz+ZPOUbcuqGxTU1CrQUtDRw57jVjWR3pVV/A9PDvVFXFlSyLENuhmp1XJ01Lmx7fPsVXJfcX7ZrzQX+1w3G21DZ6WZubHt+C95fMd8AAAhWlDBqYzwhPSxIn02n/T0qrwvRP1fSm5zGOpo3wzPikarHscrXNVMlRU1ofgAAAAAAAAAAAAAFg6HsILirG0D5o9lQUCpUTqupVRe5b6V9yKa7RMkOQAACuNIWl204KetDBGtfdcs1gY7Jsfe2a8HFrKgqOqDxlLOr4mW+GPPcjSBXe9VzJhg/qg4q2rjo8TUbKXZrklZBnsEX7TV3UTzoXnDNHPEyWJ7XxvajmuauaKi6lRT9gAAAAAAAAFX6ft7CblcPxUykAAASvRnvmYd5aw2kAAAAAAAAAfiWVsMT5XrkxjVcq95EMS4zxLVYqxVXXWokcqSSKkLc9xkaL3LU9BHwXJ1P2KJ6LE8uHpJHLS10bnsaq7jZWpnmnGmfMhpkAAA4VM0Mz6eMDdh7y3EdDFlR17sqhGpuRzd/idr48ymwD0LLNb6e8Ukl0pVqaFJE6/EjlarmcOSpw8JqCi0M6O7jRQ1lLb5JKediSRvbVPyc1UzRdZ9+0bgP+Fy+0v6R2jcB/wuX2l/SO0bgP8AhcvtL+kdo3Af8Ll9pf0jtG4D/hcvtL+kdo3Af8Ll9pf0jtG4D/hcvtL+kdo3Af8AC5faX9I7RuA/4XL7S/pHaNwH/C5faX9I7RuA/wCFy+0v6R2jcB/wuX2l/SO0bgP+Fy+0v6R2jcB/wuX2l/SO0bgP+Fy+0v6R2jcB/wALl9pf0jtG4D/hcvtL+kdo3Af8Ll9pf0nj4p0XaOsL4brrvU2yXYU0aua36U/u3amt18K5GYnqjpHK1uxRVzRqcHmPyAiZrkms19oiwh/hPBNOk0aNrq3Koqe+mady30J78yfgAAHg4zvv+GcIXO7pkr6aFXMReF67jfeqGJ6urqK+smq6qV0s8z1fI9y5q5yrmqnwCKqajS3U94onudgrLHVSOe+3K10CuXd627Pc9Cp7y5wAAAAAAAACr9P29hNyuH4qZSAAAJXoz3zMO8tYbSAAAAAAAAAOrcoHVVsqqdn60sL2Jxq1UMI1EElNUy08rVbJE9WOautFRclPkCw9CdDLV6Uba+NF2NO2SaRU4ERqp8VQ10AAADysR2GjxLYKy01rEWGpj2KrlutXgcnnRd0xXiGxVmHL7WWquZsZqaRWqvA5OByeZU3TywDQmgHHPXoX4Trpe6jzlonOXW3W5no1p6S+QAAAAAAABqM59UJjD6XcafDFJJnFTZTVWS65FTuWrxJu+ko4AsHQ9hD/ABVjWB08eyoKDKonzTcVUXuW+lfcimu2pkmRyAAAQfS9RS1+i+9RQoqvZG2XJOFGuRy+5FMdAF7dTZRSrcr5X5L1lsMcOffcqqvwT3mhwAAAAAAAACr9P29hNyuH4qZSAAAJXoz3zMO8tYbSAAAAAAAAABnjTFonrFuU+JLDTOninXZ1dNEmbmu4XtThReFCintcxyte1WuRclRUyVDtW21114rGUdupJaqoeuTY4mq5TVWiXRx/gi1SVNejX3aranXVauaRNTUxF+JZAAAABTGnnA/ZaztxJQxZ1dC3Y1CNTdfD3+NvwVTNOoA7drudVZ7nTXCilWOop5EkjcnfQ2lg3FFNi7DFJd6dURZW5Sx8McifrN5/cSAAAAAAAAHjYqxBTYXw1XXepVNjTxq5rfDdqa30rkYmudwqLtdKq4VT1fPUyulkcvCqrmdQBEzVERM1NfaIsH/4TwTTpNHsa+tyqKnPWmady30J78yfgAAA+c8LKiF8MrEfG9qtc1dSou4qGT9JWiu5YSuM1ZQU0lTZZHK5kjE2Swov1X8XfK3y3T2sNYUvGK7iyjtVG+Zyr3cmWTI077nakNeYEwhTYKwzBaqdUe9O7nmyyWSRda8XAnmQkwAAAAAAAABV+n7ewm5XD8VMpAAAEr0Z75mHeWsNpAAAAAAAAAA4VEU8i4YTw9dZeu19koKiThfJTtVy+nI7VustrtEfW7db6WkautIImsz5jvAAAAA+c0Mc8L4pGI9j2q1zXalRdaGO9J+C5MF4tnpmNX6BUZzUj/sL9XjRdzmIUAWloTxyuGsTJa62XK23FyMVXLuRy/Vd6dS+g1Ui56jkAAAAAAAzl1QeMEq7lT4YpJM4qXKaqyXXIqdy1eJN30lHgFg6HsIf4qxtA6eLZUFBlUT56lVF7lvpX3IprtqZJkcgAAAH5cxrkVHNRUXWi8J4dRgnC1VP1+fD1tfKq5q5aZuarzHrUlDSUECQUdLDTxJqZExGpzIdgAAAAAAAAAFX6ft7CblcPxUykAAASvRnvmYd5aw2kAAAAAAAAAAAAAAAACEaUMEsxrhOanjYn0+mzmpH/aRN1vEqbnMY8mifBM+KRisexVa5qpkqKmtFPwDlFVFRUXJU4TWuh3HLcWYUbTVUuyudvRIps9b2/Vf6dS+dCxwAAAAAAeNirEFNhfDVdd6lU2NNGrmt8N2prfSuRiW5XCoutzqa+qer56iR0kjl4VVczqg5RM1RETNTXuiLCH+E8FU6TR7Gurcqipz1oqp3LfQnvzJ+AAAAAAAAAAAAAAAAVfp+3sJuVw/FTKQAABKtGio3SVh5VXJPprDaYAAAAAAAAAAAAAAAAOF3UM0aeMC9iLw3ElFFlR1zsqhGpuRzd/id8cymgCT4CxbPgzFdLdY1VYc+t1EafXjXWnGmtOI2dQ1kFwooaymlSWCdiSRvbqc1UzRTsAAAAAAajOXVCYvSrudPhilkzipcpqrJdcip3LV4k3fSUeAWDoewh/irG0Dp49lQUGVRPnqVUXuW+lfcimu2pkmRyAAAAAAAAAAAAAAAAVdp+VE0YSpnurVw5c6mUwAd680L7Zeq6hkTJ1PO+JU4nKh0Qdm31s1uuFPW079hPTyNljd3nIuaGucE6UrBi23xK+tgo7ijUSWlmejV2XCrVXWhMuyFF45T+tb0jshReOU/rW9I7IUXjlP61vSOyFF45T+tb0jshReOU/rW9I7IUXjlP61vSOyFF45T+tb0jshReOU/rW9I7IUXjlP61vSOyFF45T+tb0jshReOU/rW9I7IUXjlP61vSOyFF45T+tb0jshReOU/rW9I7IUXjlP61vSOyFF45T+tb0jshReOU/rW9I7IUXjlP61vSOyFF45T+tb0jshReOU/rW9I7IUXjlP61vSOyFF45T+tb0jshReOU/rW9I7IUXjlP61vSOyFF45T+tb0jshReOU/rW9I7IUXjlP61vSOyFF45T+tb0jshReOU/rW9I7IUXjlP61vSOyFF45T+tb0jshReOU/rW9I7IUXjlP61vSOyFF45T+tb0nl4iobPiWw1lpramndDUxq3Prjc2rwOTd1ouSmML9Z6iwXurtdSrVkp5FZsmrmjk4HIveVN084A0FoEx61aaTCtxna3rWctG+R2SbH6zM172tPSXl2QovHKf1rekdkKLxyn9a3pHZCi8cp/Wt6R2QovHKf1rekdkKLxyn9a3pHZCi8cp/Wt6R2QovHKf1rekdkKLxyn9a3pHZCi8cp/Wt6R2QovHKf1rekdkKLxyn9a3pHZCi8cp/Wt6TycTYqt2HsOV11kqYXpTxK5rGyIqvdqaica5GK7lcKi63Opr6t6vqKiR0sjl4VVczqgJuqa20R4fosJYKp2zz07K+tyqKnORuaKqdy3XwJ78yfdkKLxyn9a3pHZCi8cp/Wt6R2QovHKf1rekdkKLxyn9a3pHZCi8cp/Wt6R2QovHKf1rekdkKLxyn9a3pHZCi8cp/Wt6R2QovHKf1rekdkKLxyn9a3pHZCi8cp/Wt6R2QovHKf1rekdkKLxyn9a3pHZCi8cp/Wt6R2QovHKf1rekdkKLxyn9a3pHZCi8cp/Wt6R2QovHKf1rekdkKLxyn9a3pHZCi8cp/Wt6R2QovHKf1rekdkKLxyn9a3pHZCi8cp/Wt6R2QovHKf1rekdkKLxyn9a3pHZCi8cp/Wt6R2QovHKf1rekdkKLxyn9a3pHZCi8cp/Wt6R2QovHKf1rekdkKLxyn9a3pHZCi8cp/Wt6R2QovHKf1rek+FXfbTQwOnqrnRwxNTNXPmaifEzbpm0mU2LZoLPaHrJbaWTrj5sskmfqTLzJu8eZUgBMMLYFq8S2t9bA12wbMsW4nCiIv4nv6c8Nvs+PZK+ONUprmzr7VRNzZpuPT4L6SsADnNTnZu8JecbN3hLzjZu8JecbN3hLzjZu8JecbN3hLzjZu8JecbN3hLzjZu8JecbN3hLzjZu8JecbN3hLzjZu8JecbN3hLzjZu8JecbN3hLzjZu8JecbN3hLzjZu8JecbN3hLzjZu8JecbN3hLzjZu8JecbN3hLzjZu8JecbN3hLzjZu8JecbN3hLzjZu8JecbN3hLzjZu8JecbN3hLzjZu8JecbN3hLzjZv8J3OcKqquarmcAHKOVupcjnZu8JecbN3hLzjZu8JecbN3hLzjZu8JecbN3hLzjZu8JecbN3hLzjZu8JecbN3hLzjZu8JecbN3hLznGycutyr6TgAIuS5n62b/CXnGzd4S842bvCXnGzd4S842bvCXnGzd4S842bvCXnGzd4S842bvCXnGzd4S842bvCXnGzd4S842bvCXnGzd4S842bvCXnGzd4S842bvCXnGzd4S842bvCXnGzd4S842bvCXnGzd4S842bvCXnGzd4S842bvCXnGzd4S842bvCXnGzd4S842bvCXnGzd4S842bvCXnGzd4S842bvCXnGzd4S85wrnLrVV4zjMA5RFVckTNTYui/DK4b0f22jnhT6TK1aiZF1o5+7l6EyT0H00l4KZjXCktFGjUrof0tK9eB6J+rxKm4Y7q6WehqpaWpidFPE9WSMemStcmtFPiAAAAAAAAAAAAAAAAAAAAAAAAAAAAAAAAAAAAAAAAAAAAAAAACz9DeAZMU4iZc6yFVtVA9HvVU3JZE3Ws8/fX/k1aiZIiHJVOlTRJFi6N12tCMhvLG901dxtQicC953eXnMx3G2VlprpaKvppaapiXJ8cjclQ6gAAAAAAAAAAAAAAAAAAAAAAAAAAAAAAAAAAAAAAAAAAAAAAALA0e6LbrjWqZUPY+ktDV/SVTm/rp3mJwr59SGrbLZaDD9qgtttgbBSwt2LWJw99V76r3z0ACPYnwTYcXUvWbvQMlciZMmb3MjOJyfApe/8AU5Vsb3SWC7RzM1pDVpsHJ5tkm4vMhCKvQ1jukerewb5kT60MrHIvvOp2p8deTdZ93pHanx15N1n3ekdqfHXk3Wfd6R2p8deTdZ93pHanx15N1n3ekdqfHXk3Wfd6R2p8deTdZ93pHanx15N1n3ekdqfHXk3Wfd6R2p8deTdZ93pHanx15N1n3ekdqfHXk3Wfd6R2p8deTdZ93pHanx15N1n3ekdqfHXk3Wfd6R2p8deTdZ93pHanx15N1n3ekdqfHXk3Wfd6R2p8deTdZ93pHanx15N1n3ekdqfHXk3Wfd6R2p8deTdZ93pHanx15N1n3ekdqfHXk3Wfd6R2p8deTdZ93pHanx15N1n3ekdqfHXk3Wfd6R2p8deTdZ93pHanx15N1n3ekdqfHXk3Wfd6R2p8deTdZ93pHanx15N1n3ekdqfHXk3Wfd6R2p8deTdZ93pHanx15N1n3ekdqfHXk3Wfd6R2p8deTdZ93pHanx15N1n3ek57U+OvJus+70kPmifBM+KRqtexytc1eBU3FQ/APvSUs1dVw0tPGsk8z0jjYmtzlXJEJZ2p8deTdZ93pOO1PjrybrPu9I7U+OvJus+70jtT468m6z7vSO1PjrybrPu9J5t7wRiXDdG2svFonpKdz0jbJJlkrl3ctxfMpHwD3LFg+/4nimkstsmrGwuRsix5dyq6tanrdqfHXk3Wfd6R2p8deTdZ93pHanx15N1n3ekdqfHXk3Wfd6R2p8deTdZ93pHanx15N1n3ekdqfHXk3Wfd6R2p8deTdZ93pHanx15N1n3ekdqfHXk3Wfd6R2p8deTdZ93pHanx15N1n3ekdqfHXk3Wfd6R2p8deTdZ93pHanx15N1n3ekdqfHXk3Wfd6R2p8deTdZ93pHanx15N1n3ekdqfHXk3Wfd6R2p8deTdZ93pHanx15N1n3ekdqfHXk3Wfd6R2p8deTdZ93pHanx15N1n3ekdqfHXk3Wfd6R2p8deTdZ93pHanx15N1n3ekdqfHXk3Wfd6R2p8deTdZ93pHanx15N1n3ekdqfHXk3Wfd6R2p8deTdZ93pHanx15N1n3ekdqfHXk3Wfd6R2p8deTdZ93pHanx15N1n3ekdqfHXk3Wfd6R2p8deTdZ93pP03RLjp7skw5VIvnVqJ8T3bVoDxnXvb9KjpKCNdbppkcqehuZaWFNAmHrLIypu8r7rUt3Ua9NjEi/y8PpUtaGCKnibFCxscbEyaxqZI1O8iH0AAAAAAAAAAAAAAAAAAAAAAHAYQvP7duHKZPmU6IPdwX+/Fi5fD86G4AACoeqJ/cCk/8AuDPlcZgANEdTV+y7/wD14vlcXqAAAAAAAAAAAAAAAAAAAAAAAAAAAAAAAAAAAAAAAAAAAOAwhef27cOUyfMp0Qe7gv8Afixcvh+dDcAABUPVE/uBSf8A3BnyuMwAGiOpq/Zd/wD68XyuL1AAAAAAAAAAAAAAAAAAAAAAAAAAAAAAAAAAAAAAB4WIcYWLCsKSXm5Q02y/VYq5vdxNTdUhT9P+CGuVEkuDkThSm3F95xtgcE+FcfZv+RtgcE+FcfZv+RtgcE+FcfZv+RtgcE+FcfZv+RtgcE+FcfZv+RtgcE+FcfZv+RtgcE+FcfZv+RtgcE+FcfZv+TL9ymZU3SrqI89hLM97c9eSuVUOqD1MN10NsxNbK+pV3WKaqjlk2KZrsWuRVyT0GltsDgnwrj7N/wAjbA4J8K4+zf8AI2wOCfCuPs3/ACNsDgnwrj7N/wAjbA4J8K4+zf8AJANLmlHDmNcKQW60rV/SGVTZV69DsU2KNcmvPzoUoAW5oc0i2LA1DdYrwtTsqqRjo+sxbPcRFRc93zlnbYHBPhXH2b/kbYHBPhXH2b/kbYHBPhXH2b/kbYHBPhXH2b/kbYHBPhXH2b/kbYHBPhXH2b/kbYHBPhXH2b/kbYHBPhXH2b/k9C1aa8EXWdsKXJ9K9y5N+lRKxq+ndRCwIpWTxNlje17HJm1zVzRU76KfsAAAAAAAAAAAAAAAAAAAAAAAAAAAAAAAAAiukHF0WDMJVV0c1r59yOnjXU+RdXoTdX0GOrvd6++XOavuVQ+oqZXZue9c/QneTzHRAAAAAAAAAAAAAAAHCXBoU0iVVpvkGHbhM6S21j9hDs1z6xIurLzLqyNOgAAAAAAAAAAAAAAAAAAAAAAAAAAAAAAAAFFdUnJKlqsUSZ9ZdPK53e2SNTL4qZ3AAAAAAAAAAAAAAAAOzb5JIrlSyQ5pI2ZitVNeeyTI3jCqrE1XfrKiZ8Z+wAAAAAAAAAAAAAAAAAAAAAAAAAAAAAAAAQTSzg6TGOC5qelbsq6ld9Ip08JUTdb6U9+RkCaJ8E74pGOY9jla5rkyVFTWiofgAAAAAAAAAAAAAAAFh6IsF1GKcXU1TJE7sZQSNmneqbjlRc2sTvqq+41yiZHIAAAAAAAAAAAAAAAAAAAAAAAAAAAAAAAAOHais9JWjfDd7t9TeJqV8FwjaqrNTuRiv/mTJUXj1mVayJsFXJE1VVrXZJnrPiAAAAAAAAAAAAAACxNFmC7Vi68JDdFqOtN3djE9G7Lj3MzVNms9vsVtjoLZSR01NH+qxiZele+vnU9AAAAAAAAAAAAAAAAAH//Z;direction=west;" vertex="1" parent="1">
          <mxGeometry x="608.75" y="297.22999999999996" width="29.24" height="35.28" as="geometry" />
        </mxCell>
        <mxCell id="2IUhI4EKlEKc684zUrsK-168" value="" style="verticalLabelPosition=bottom;html=1;verticalAlign=top;align=center;shape=mxgraph.floorplan.couch;direction=north;" vertex="1" parent="1">
          <mxGeometry x="540.9100000000001" y="270" width="27.4" height="63.5" as="geometry" />
        </mxCell>
        <mxCell id="2IUhI4EKlEKc684zUrsK-170" value="" style="verticalLabelPosition=bottom;html=1;verticalAlign=top;align=center;shape=mxgraph.floorplan.chair;shadow=0;direction=east;" vertex="1" parent="1">
          <mxGeometry x="601.51" y="210.02" width="20" height="24.98" as="geometry" />
        </mxCell>
        <mxCell id="2IUhI4EKlEKc684zUrsK-169" value="" style="shape=rect;shadow=0;html=1;" vertex="1" parent="1">
          <mxGeometry x="583.02" y="228.58" width="61.69" height="20" as="geometry" />
        </mxCell>
        <mxCell id="2IUhI4EKlEKc684zUrsK-171" value="" style="fontColor=#0066CC;verticalAlign=top;verticalLabelPosition=bottom;labelPosition=center;align=center;html=1;outlineConnect=0;fillColor=#FFFFFF;strokeColor=#000000;gradientColor=none;gradientDirection=north;strokeWidth=2;shape=mxgraph.networks.desktop_pc;direction=west;" vertex="1" parent="1">
          <mxGeometry x="590" y="233.03" width="14.43" height="33.94" as="geometry" />
        </mxCell>
        <mxCell id="2IUhI4EKlEKc684zUrsK-172" value="" style="fontColor=#0066CC;verticalAlign=top;verticalLabelPosition=bottom;labelPosition=center;align=center;html=1;outlineConnect=0;fillColor=#FFFFFF;strokeColor=#000000;gradientColor=none;gradientDirection=north;strokeWidth=2;shape=mxgraph.networks.monitor;direction=west;" vertex="1" parent="1">
          <mxGeometry x="611.5050000000001" y="234.995" width="27.91" height="25" as="geometry" />
        </mxCell>
        <mxCell id="16Sd2fHhPqfst8UMEHQm-2" value="" style="shape=image;verticalLabelPosition=bottom;labelBackgroundColor=default;verticalAlign=top;aspect=fixed;imageAspect=0;image=data:image/jpeg,/9j/4AAQSkZJRgABAQAAAQABAAD/2wBDAAsJCQcJCQcJCQkJCwkJCQkJCQsJCwsMCwsLDA0QDBEODQ4MEhkSJRodJR0ZHxwpKRYlNzU2GioyPi0pMBk7IRP/2wBDAQcICAsJCxULCxUsHRkdLCwsLCwsLCwsLCwsLCwsLCwsLCwsLCwsLCwsLCwsLCwsLCwsLCwsLCwsLCwsLCwsLCz/wAARCAD+AP4DASIAAhEBAxEB/8QAHAABAAIDAQEBAAAAAAAAAAAAAAcIAQUGBAMC/8QAQhAAAQQBAQUGAwUFBgUFAAAAAQACAwQFEQYSITFBBxNRYXGRFCKBMkJSYqEVI3KisSQzgpKT8ENjc7LDJTSzxOH/xAAUAQEAAAAAAAAAAAAAAAAAAAAA/8QAFBEBAAAAAAAAAAAAAAAAAAAAAP/aAAwDAQACEQMRAD8AltERAREQEREBERAREQEREBERAREQEREBERAREQEREBERAREQEREBERAREQEREBERAREQEREBERAREQEREBERAREQEREBERAREQEREBERAREQEREBERAREQEREBERAREQEREBERAREQEREBERAREQEREBERAREQEREBERAREQEREBERARFoM3tds1gN5l62HWgNRTq6TWjyI3mAgN8i5zUG/Xzmnr1o3TWJYoYmcXSTPbGxvq55AUM5ftS2gtl8eKghx0J4CRwbZtkctd547of5D6rh7l/I5GTvr9uzbl6OtTPlI8mh5IA9AEE8Xu0DYmiXtOTbakadNzHxyWdfSRg7r+dc7a7XMWwkUsNdmHQ2p4K/6R96VECwgkqbtbzRJ7jEY+MdO+msTH+XcXmPavtYeVPCgf9C2f/sKPllBII7V9qhpvUcM4eUNtp/8AnP8AReyDtcyLdPicJUkHX4e1LEfpvxvUYrKCZanazgJNBcxuSrOPWLubLB6kOa/+VdNQ2z2NyJDa+YqtkOn7u2XVZNT0AsBup9NVXNPI6EeB5ILVgggEEEEAgjiCD1BWVWbGZ3P4dzTjclarNDg7umSF1dx/NBJrGf8AKu+w3avOzciztASN4A2sd8sg8315Hbp89Hj0QS2i1uKzeEzcJnxl2GywAd41hLZYieksT9Hj6hbJAREQEREBERAREQEREBERAREQF4cplsVhqr7uStR14GndaXnV8j+jImN+Zzj4Af0Wl2r2wxmzMAYdLGUmZrWpNdoQDw72dw+yzw6nkORLYMy+Zy2cuPu5Kw6aY6tjaBuxQM6RwxjgG/qeZJPFB1u0faTmcmZa2H7zG0Tq3vQR8fM3Xm6RpIYPJp1/Nx0XBEklxJJLiXOJOpJPMknjqiICLB0GmvXgPM+AXU4jYPbDMBkjKXwVZ3ET5MugBHiyEAynXp8oHmg5ZZ5cSQPU6KYsd2TYaINdlMjctvHEx1g2pBx6H7Uh/wAwXVU9jdi6Ab8Pg6BI5Osx/FP18d+yXn9UFcgQ4hrSXOPIMBcfZq9LaOReNWUrrh4trWCP0YrPxQV4G7sMUUTRwDYmNYNPRoC+n++qCrT6l2IayVbbB+evO3+rV8N5n4gD4E6H9Vaz/fVeexRx9tpbaqVbDTzbYgilB9Q9pQVcRWEu7BbEXt4uxEEDzro+g6SqRr+WEhnu0rkcn2SM0c/DZZ4IB3YMmwPaT4d/AAR/plBFCyt1mNl9psHvOyOPlZXadPioP39UjXQEyx8tfzALS/0Qfatat0547NSeavYiOsc1eR0cjfIObx08QpP2a7UDrFU2kYOOjW5KuzQetqFn/c0f4eqipEFp4Z4LMUU9eWOWGVgkilhe18cjDycxzSQQvoq77M7XZjZqYCBxsY+R+9YoyuIjcTzfCTruv8wND1B01E64XOYnP0mXsdNvxn5ZY3gNmgk01MczNTo4ex5gkHVBs0REBERAREQEREBERAXIbZ7Y19m64r1tybL2Yy6vEeLK8Z1HfzAdPwjqR4Ake/araSrs1jH23hkluYmHH1nHTvptNS52nHcbzcfQc3DWvl25cyFqzduTPntWZDLPK/TVzjw4AcABwAA4AAAcAg/Nq1auWJ7VqaSezYeZJpZTq97j1J/QeHLkF8FlACSAASSQAANSSeAAA4oHj5Lp9m9ic9tHuzRtFPG68b1pji2QDgfhouBefPUDgeOvBdfsf2cN0gye0kOriWyVsW8ataBxD7o6n8nIddeLWyo1rWNa1oDWtaGtDQAABwAAHBBzmB2M2a2fEclasJ7rRxu3N2Wxr/y+G60fwgepXSLS53afAbPRh2RtATObvQ1YAJLUw5atjB4DzJA81Fea7Ttob5kixbGYysdQHs3Zrjhy4yuG43/C3UfiKCZLmQxuOi76/cq1YuOj7U0cLSRx0bvkalcpd7TNi6hLYZ7d1w1B+CrO3df47Bjb7EqDbFi1alfYtTzTzvOr5bEj5ZXHzfIS79V8+KCWJ+16AFwq4KVw+66zdZGfq2ON/wD3Lwv7W8wT8mHoNHg+xO4+4aP6KNFlBJkfa5lAR3uFpPHXu7UzD/NG5bKt2uY1zgLmFuQt6uq2IbH6SCP+qiFEE/0O0HYm+WN/aXwkrjoI8jE+vp6yEGL+ddRDNBYjZNBLFLC8askhe18bh4hzCR+qqxxXsx+Ty2Kl77G3bNSTUFxryFrX6HXR7PsEeoKCzxAIIIBBBBBHAg9CFxG0HZxs9lu8noAYu8dXb1Zg+Fldz/e1xoB6tI+q5vB9qtqMxwbQVBMzg03KLQyYectcndPnukfwlSfjspi8tWbbx1uGzXcdN+J3Fp/C9h0cD5EAoK7ZvZ/N7P2BXyVYsDiRBYjJfVsAdYpdBx8iAfJapWiu0aGRrTU71aGxVmG7JFM0OafAjqCOhHEKFNsNg7mAMmQx/eWcOXav3vmno69JtObPB3TkfxODiFtMHncps/ejvUJNHDRs8Lye5sxa6mOUDp4HmOY89WiCyuAz2N2hoR3qTtOIjsQPI72tMBqY5APcHqOPptlW7ZvaG/s3kor1bV8TtI7tYu0ZZg14tPQOHNh6HyJBsNjshSylKpkKUolq2oxJE8cDproWuHRwOocOhHkg9aIiAiIgIiICIsEAggjgQQfQ8EFcdqc9Y2hzFu69x+GY51fHx9IqrHEN4eLvtO8z4AaaJe7LYy1h8jfxtlpbLUmfGCQQHx6kxyN16OGhHr5LxIMEgAk8AOZUy7BbDtx7IM1mIdci8CSlWlH/ALJhGofI0/8AFP8AL6/Z0fZvsm29M3aHIRB1OtLpi4njUT2GHQ2Drw3WHg3xPH7nzTFyQOCjHa3tJZXM2O2cfHJMCWT5LRskMZHAiq06tcfzHUeAdrq3UbdbdPyL7GGw0xbjml0V21ETrdPJ0cbh/wALoSPtfw/3kdIPpPPYsyyz2JZZp5nF8ssz3SSSOPV73Ek+6+aLBIA1J0CAsrrMJ2f7V5kRzOgbj6btCJ8iHNke3XnFXA7w+I13QfFSDjeyzZeqGOyElzJS6DeEkhrVyfFsVch3vIUEIktHAkD1ICxvs/EPpx/orL1Nm9l6IHwuGxsThye2rCZPrI8F36rZsjijAayNjQOjWtaPYBBVXfZ+Jv1On9VkaHkQfTirTy160w3ZoIZGnmJI2PHs4LT3NkNjr4cLGDx+rub4IRWkPn3lfdd+qCuOiwphynZPipQ9+IyFmpJxIhtj4mufBodwlA+rlHeb2U2k2f3nZCmfht7dbcqkzVDrwGrwAW69A5rUGiXvxeWyuGtNuY21JXnGgeWcWSs57k0Z+VzfIj2PEeBZQTzslt1jtogynaEdPLhv9xvHubO6NS6q53HzLSdR5gajsHNZI1zHta5jmlrmuALXNcNCCDw0Kquxz43skY5zJI3tfG9ji17HtOoc1w4gjoVNOwu3AzAZics9oyzGH4eY6NbfYwangOHeAcSOo4jkQA5PbvYk4V8mWxcZ/ZEjx38I1PwEjzoNOvdOPAeBOnIhcCrTzQwWIZoJ42SwzRviljkaHMkjeN1zXA8NCOar7tjsxLs1kzFGHuxtvelx0r9SQ0fage78TP1BB6nQOaUhdmOenqZX9hyuLqeT72Su08obkTDISPJ7QQfMDx4x6uz7N8XZvbS1LjWH4XEsls2ZNDu95JE+GKMHxJJPo0oJ4REQEREBERAREQaXO7MYDaJjG5KsTNE0thswOMVmIHU6NkbzHkQR5LnqfZbshWnbNO/JXWtIIhtzxiE6HUbwrxscf8y7tEH4iiigjjhhYyOKJjI4o42tYyNjRuhrWt4ADooz7SdrDAx+zmOlImmjH7WlYdDHDINRWaRx1eOL/Igff+Xtdp85Fs9h7mScGumaBDTidrpLak1EbTp0HFzuPJpVcp557M09ixI6WeeWSaaR5+aSSRxc5x9Sg+SIvficVkM1fq42hHv2LBPzO1EUMTeL5pXDk1vX2GpOhBisTlM1cioY2u6axJ8zukcMYOhlmfyDR/8Ag1J0M2bMbBYXACGzOG3sqPmNmZn7uB3hVidqBp+I6nzGug3GzuzuM2boMp0270j919yy9oEtqYD7b9OQHHdGvAeZJdufdARc3m9tdlcG6SGzc7+4wkOqUQJ52kcCJCCI2nyc4LgMj2sZiUvZi8dUqsPASW3PszfxBrdyMH/MgmNPdV1tbbbbXCTLm7jB0FTuqrQPL4drT+q1z83tDISX5jLOJ4/Nftn/AMiCzfuirNHn9pYTrFm8uw/lv2v6F+i21Tb7binugZZ9hgOpZdhgnDvIuLRJ/OgsGvy5jXtcx7Q5j2lrmuALXNI0IIPDRRVjO1l+rWZnFDd+9PjHnUD/AKE5/wDJ9FIOI2i2fzrN7GX4Z3taHSQEmOzGOH24ZAH6eemnmg4rans1q2Wy3dnGMr2vme/HkhlWc8/7OTwY7y13f4eZiKaGevLLBPFJFPC90c0UrSySN7eBa9ruIKtQuL212Mg2hgdcpNZHmoI/3bjo1txjeUExPDX8DunI8DwCB1+45JYpIpYnvjlieyWKSNxa+ORhDmvY4cQQeIR8ckT5I5GPZLG90cjJGlr2PYS1zXNPEEHUFflBYDYralm0mNPfljcpS3Ir8bQGiTX7FhgHDdfx18CCOWmu/wAljMZl6stLI1o7FaQglkgOrXAEB7HNIcHDjoQQVXbZ7N2dn8tTycO85kZ7u3E0/wB/UeR3kfhrwBb5gKyFaxXt161qvIJILMMc8MjeT45Gh7XD1BQcIeyjZPvu8+KzAj3t7uRZh3P4d/ue80/xfVdnjMXi8PUjpY2rHWrMJcGR6kucdAXve4lxcepJJ9l7UQEREBERAREQEREBERBG3a3HYdisJK3XuIsk9s2nIPfA4Rk+zh9fNQ6rP5PG0cvRtY69H3layzckbro4EEOa9h6OaQCD5KIch2V7SwTvGOsUrlUuPdulkNedrfCRpaWa+Yd9ByQR6SACTyCnvYLZgYDFtntR6ZXItZNbLvtQR846w8N3m7zJ57o00Wy/Zm+jbr5HOzV5pK72zV6VUufCJG8WvnkeBruniGgaagcSOB7nO5zHbP4+bIXXHRpDIIWEd7YmIJbFHr1PMnoAT0QfbLZfF4WnLeyNhsEDPlbrxklkPKOJg4lx8B68ANRDG0vaFm806atRdJjsYS5vdwv0tTs5fv5mcQD+Fp046EuXP57PZXaG8+7fk103m14GE9zWiJ13Imn6anmfpoNUgcOQ5IiwdBpqeJ5DqfQICLe0dktsciA6phLpY7QtkstbVjcD1a6yW6j0W6j7MdtngF0eNiP4ZLhJH+nG4fqg4hF2c3ZrtzECWVaVgjpBcjBPp3wYP1XP5DA7RYredkcVerxt5yviLoP9aLej/mQa1fuKWaGSKaGSSKaJwfFLC90ckbhyLHsIcD9V8+mo4jyWUEnbMdptiExU9oyZoPlYzIxt/fRjl/aY2D5h+YDXhxDtdRLMM9ezFFPXljmgmY2SKWJzXxyMcNQ5jm8CCqsLrdjtsruzdhtecvnw00mtiDiXVy48Zq48erm8j68UHT9p2zDWabSUowAXMhyzGDhqfkjtacvBj/8ACfEqK1aD/wBOy9A6GG3j79Yjgd6KeCVunMeI/wB8FE2X7KsxFYkfhbNazUc4mOK5IYbMQP3XODSx2njw9EEcDQcT04qxOxEViHZPZpljUSfAtkAdzEcj3SR/ylq4fAdllsWYrG0M9b4aNwf8FTe97p9OO7NKWtAb4hoOviFLLQGta0AANAAAAAAA0AACDKIiAiIgIiICIiAiIgIiICIiD5zzQ1oZ7E8jY4K8Uk00j/sxxxtL3OPkAFXjavaSztLk5LTi9lKAvix0DuHdQE/bcBw336Au+g5NUudo77LNkst3IOj5aMc5HSF1lgd9DwB9VAaDCymi7rYLYwZ6b9p5KN37HrSljIzq346dnNo69237x6nh0O6Hg2X2HzG0m5ZcTSxW9obcrCXz7p4tqxnTXwLidOfMjRTFhNktmcA1ho0mGyAA65Z0mtvOmhPeOHDXqGho8lvGRxxsZHGxrI42tYxjAGta1o0DWtHDQdF+kBET6ICwQCCCAQeBB5EeayiDjs92fbM5kSywQtx15wJFikxrY3O/51caMd56bp81Due2czWzloV8jCNyTX4azFq6tYA57jjxBHVpAI9OJsmvHksZj8vTsUL8DZq07dHNdwLXDk9jhxDh0IQVgWFv9qNm7mzORdTmJkrTB0tCzpoJ4QdCHacA9vAOHmDyctCgkLs42qdjbjMFdlP7PvzaU3PPCrbf93j9yQ8PJ2h+8SppVUyS1rnAkEAlpB0IcOIIIVpKTrD6dJ9huk7q1d04PAiUxtLx76oPQiIgIiICIiAiIgIiICIiAiIgIiIPPdp1MhUt0bcYkrWoZIJmHqx40Oh5g9Qen0UHZvs72oxk8nwNaTJ0SSYZau6bAb0bNASHb3m3UemugnlEECYTs92pyliIXKs2MohwNie2Gsm3OrYYdd4uPQkAD9DOdGnUx9SpSqRCKtVhZDDG37rGDQak8STzJ6k69V6EQFhzmMa573Na1rS5znEBrWgakknhosqOO1HPSU6NXCVpC2XJtfLcLTo4Uozu936PdwPHk0j7yDWbT9pth0ktLZstjiYSx+RkY175Ty/s0bxuhv5iDr0A01dHFvJZW+8yXr1yy89bNiWT6AOdoB6BeVEHrp5PLY94ko37tZ4617ErNfVoO6fqFJGy3abMZYaO0hYWSEMjyTGNj3HHgPi2N0bp+YAadRp8wixEFqmkOAIIIIBBHEEHjqFlR52YZ6W/jbGHsyF8+JEZrOcdXOoyahrOPH5CC30LR0UhoNHtPs9U2kxctGYiOZrhNTsBu86Cdo0B06tPJw6g+IBEJXNiNtKU7oXYe1Y0cQ2agBYgePxNc06gerQVYlEEQbJ9nGRdbrZHaGFsFavIyaGiXNkmsSNO83v9wloYOBI1JOmhA6y+iICIiAiIgIiICIiB7p7oiB7p7oiB7p7oiB7p7oiB7p7oiB7p7oiB7qCO0yWSTau0xxJbBRoRReTCx0p0+rip3UN9q+MfDlMZlWt/c3anwkjhyFis5zhvHza7h/AUEbosogwiyiDuOy+R8e1Ia0nSbF3Y5PNrXRSD9QFOfuoe7JsbJJkMvl3NPc1qwx0LiPldPM5s0m6fFoa3X+NTCge6e6Ige6e6Ige6e6Ige6e6Ige6e6Ige6e6IgIiICIiAiIgIiICIiAiIgLV53C0s/jbWNt6tZKA+KVoBfBOziyVmvUdfEEjqtoiCs+aweWwFx1LIw7jvmMErNTBZjB034XnmPEcx1C1itDex+OyVd9W/Vr2a7+LorDGvbr0cNeRHQjiuMt9leyM7y+vLkqYPKOCwySIegsMe7+ZBCK2uCwOV2hutp4+IkAj4mw4H4eqwnTeld489BzOntLNTsr2QrvD7EmSujrHYsMjiPqKzGO/mXaUqOPx1eOrRrQVq8epbFXjbGwE8zo3qepQebCYejgsbTxlMHuq7TvSP07yaVx3nyyHxcfbgOQWyREBERAREQEREBERAREQEREBERAREQEREBERAREQEREBERAREQEREBERAREQEREBERAREQEREBERAREQEREBERAREQEREBERAREQEREBERAREQEREBERAREQEREBERAREQEREBERAREQEREBERAREQEREBERAREQEREBERAREQEREBERAREQEREH/9k=;" vertex="1" parent="1">
          <mxGeometry x="513.65" y="214.58000000000004" width="14" height="14" as="geometry" />
        </mxCell>
        <mxCell id="16Sd2fHhPqfst8UMEHQm-3" value="" style="shape=image;verticalLabelPosition=bottom;labelBackgroundColor=default;verticalAlign=top;aspect=fixed;imageAspect=0;image=data:image/jpeg,/9j/4AAQSkZJRgABAQAAAQABAAD/2wBDAAsJCQcJCQcJCQkJCwkJCQkJCQsJCwsMCwsLDA0QDBEODQ4MEhkSJRodJR0ZHxwpKRYlNzU2GioyPi0pMBk7IRP/2wBDAQcICAsJCxULCxUsHRkdLCwsLCwsLCwsLCwsLCwsLCwsLCwsLCwsLCwsLCwsLCwsLCwsLCwsLCwsLCwsLCwsLCz/wAARCADqAWQDASIAAhEBAxEB/8QAFwABAQEBAAAAAAAAAAAAAAAAAAECB//EABQQAQAAAAAAAAAAAAAAAAAAAAD/xAAUAQEAAAAAAAAAAAAAAAAAAAAA/8QAFBEBAAAAAAAAAAAAAAAAAAAAAP/aAAwDAQACEQMRAD8A62AAAAAAAAAAAAAAAAAAAAAAAAAAAAAAAAAAAAAAAAAAAAAAAAAAAAAAAAAAAAAAAAAAAAAAAAAAAAAAAAAAAAAAAAAAAAAAAAAAAAAAAAAAAAAAAAAAAAAAAAAAqAAAAAAAAAAAAAAAAAAAAAAAAAAAAAAAAAAAAAAAAAAAAAAAAAAAAAAAAAAAAAAAAAAAAAAAAAAAAAAAAAAAAAAAAAAAAAAAAAAAAAAAAAAAAAAAAAAAAAAAAAAAAAAAAAAAAAAAAAAKCAAAAAAAAAAAAAAAAAAAAAAAAAAAAAAAAAAAAAAAAAAAAAAAAAAAAAAAAAAAAAAAAAAAAAAAAAAAAAAAAAAAAAAAAAAAoIAAAAAAAAAAAAAAAAAAAAAAAAAAAAAAAAAAAAAAAAAAAAAAAAAAAAAAAAAAAAAAAAAAAAAAAAAAAAAAAAAAAAAAAAAAqAAAAAAAAAAAAAAAAAAAAAAAAAAAAAAAAAAAAAAAAAAAAAAAAAAAAAAAAAAAAAAAAAAAAAAAAAAAAAAAAAAAAAAAAAAAAKCAAAAAAAAAAAAAAAAAAAAAAAAAAAAAAAAAAAAAAAAAAAAKgAAAqAAAAAAAAAAAAAAAAAAAAAAAAAAAAAAAAAAAAAAAAACoAAAAAAAAAAAAAAACKAIoAICiKAAAIAoAAgCiKACAoICiKAIAoICiKArKgCAKAAIAogCggKAAIA//2Q==;" vertex="1" parent="1">
          <mxGeometry x="142.94" y="240" width="44.12" height="29" as="geometry" />
        </mxCell>
        <mxCell id="2IUhI4EKlEKc684zUrsK-100" value="" style="verticalLabelPosition=bottom;html=1;verticalAlign=top;align=center;shape=mxgraph.floorplan.floor_lamp;" vertex="1" parent="1">
          <mxGeometry x="140" y="229.5" width="50" height="50" as="geometry" />
        </mxCell>
        <mxCell id="n8K9JNLE61OcUpPLXm8b-1" value="P1" style="ellipse;whiteSpace=wrap;html=1;" vertex="1" parent="1">
          <mxGeometry x="60" y="241" width="16.99" height="17" as="geometry" />
        </mxCell>
        <mxCell id="n8K9JNLE61OcUpPLXm8b-2" value="P2" style="ellipse;whiteSpace=wrap;html=1;" vertex="1" parent="1">
          <mxGeometry x="100" y="183.34" width="16.99" height="17" as="geometry" />
        </mxCell>
        <mxCell id="n8K9JNLE61OcUpPLXm8b-3" value="P3" style="ellipse;whiteSpace=wrap;html=1;" vertex="1" parent="1">
          <mxGeometry x="174.88" y="59.39" width="15.99" height="13.63" as="geometry" />
        </mxCell>
        <mxCell id="n8K9JNLE61OcUpPLXm8b-4" value="P4" style="ellipse;whiteSpace=wrap;html=1;" vertex="1" parent="1">
          <mxGeometry x="274.01" y="55.09" width="15.99" height="15.63" as="geometry" />
        </mxCell>
        <mxCell id="n8K9JNLE61OcUpPLXm8b-5" value="P5" style="ellipse;whiteSpace=wrap;html=1;" vertex="1" parent="1">
          <mxGeometry x="376" y="56.3" width="15.99" height="14.63" as="geometry" />
        </mxCell>
        <mxCell id="n8K9JNLE61OcUpPLXm8b-7" value="P7" style="ellipse;whiteSpace=wrap;html=1;" vertex="1" parent="1">
          <mxGeometry x="270" y="340.72" width="15" height="14.1" as="geometry" />
        </mxCell>
        <mxCell id="n8K9JNLE61OcUpPLXm8b-8" value="P6" style="ellipse;whiteSpace=wrap;html=1;" vertex="1" parent="1">
          <mxGeometry x="171.06" y="334.6" width="16" height="16" as="geometry" />
        </mxCell>
        <mxCell id="n8K9JNLE61OcUpPLXm8b-9" value="P8" style="ellipse;whiteSpace=wrap;html=1;" vertex="1" parent="1">
          <mxGeometry x="370" y="340.72" width="15" height="14.1" as="geometry" />
        </mxCell>
        <mxCell id="n8K9JNLE61OcUpPLXm8b-10" value="P9" style="ellipse;whiteSpace=wrap;html=1;" vertex="1" parent="1">
          <mxGeometry x="572.26" y="76.37" width="15.99" height="13.63" as="geometry" />
        </mxCell>
        <mxCell id="n8K9JNLE61OcUpPLXm8b-13" value="P10" style="ellipse;whiteSpace=wrap;html=1;" vertex="1" parent="1">
          <mxGeometry x="554.5" y="219" width="24.5" height="21" as="geometry" />
        </mxCell>
        <mxCell id="n8K9JNLE61OcUpPLXm8b-14" value="P11" style="ellipse;whiteSpace=wrap;html=1;" vertex="1" parent="1">
          <mxGeometry x="104.13" y="110" width="20" height="19.12" as="geometry" />
        </mxCell>
        <mxCell id="n8K9JNLE61OcUpPLXm8b-16" value="" style="verticalAlign=top;verticalLabelPosition=bottom;labelPosition=center;align=center;html=1;outlineConnect=0;gradientDirection=north;strokeWidth=2;shape=mxgraph.networks.printer;shadow=1;direction=west;" vertex="1" parent="1">
          <mxGeometry x="227.945" y="55.125" width="18.11" height="16.98" as="geometry" />
        </mxCell>
        <mxCell id="n8K9JNLE61OcUpPLXm8b-19" value="" style="verticalAlign=top;verticalLabelPosition=bottom;labelPosition=center;align=center;html=1;outlineConnect=0;gradientDirection=north;strokeWidth=2;shape=mxgraph.networks.printer;shadow=1;direction=west;" vertex="1" parent="1">
          <mxGeometry x="329.005" y="59.39499999999999" width="18.11" height="16.98" as="geometry" />
        </mxCell>
        <mxCell id="n8K9JNLE61OcUpPLXm8b-20" value="" style="verticalAlign=top;verticalLabelPosition=bottom;labelPosition=center;align=center;html=1;outlineConnect=0;gradientDirection=north;strokeWidth=2;shape=mxgraph.networks.printer;shadow=1;direction=west;" vertex="1" parent="1">
          <mxGeometry x="425.815" y="57.715" width="18.11" height="16.98" as="geometry" />
        </mxCell>
        <mxCell id="n8K9JNLE61OcUpPLXm8b-21" value="" style="verticalAlign=top;verticalLabelPosition=bottom;labelPosition=center;align=center;html=1;outlineConnect=0;gradientDirection=north;strokeWidth=2;shape=mxgraph.networks.printer;shadow=1;direction=east;" vertex="1" parent="1">
          <mxGeometry x="227.935" y="316.025" width="18.11" height="16.98" as="geometry" />
        </mxCell>
        <mxCell id="n8K9JNLE61OcUpPLXm8b-22" value="" style="verticalAlign=top;verticalLabelPosition=bottom;labelPosition=center;align=center;html=1;outlineConnect=0;gradientDirection=north;strokeWidth=2;shape=mxgraph.networks.printer;shadow=1;direction=east;" vertex="1" parent="1">
          <mxGeometry x="326.505" y="315.52500000000003" width="18.11" height="16.98" as="geometry" />
        </mxCell>
        <mxCell id="n8K9JNLE61OcUpPLXm8b-23" value="" style="verticalAlign=top;verticalLabelPosition=bottom;labelPosition=center;align=center;html=1;outlineConnect=0;gradientDirection=north;strokeWidth=2;shape=mxgraph.networks.printer;shadow=1;direction=east;" vertex="1" parent="1">
          <mxGeometry x="427.635" y="315.52500000000003" width="18.11" height="16.98" as="geometry" />
        </mxCell>
        <mxCell id="n8K9JNLE61OcUpPLXm8b-24" value="" style="verticalAlign=top;verticalLabelPosition=bottom;labelPosition=center;align=center;html=1;outlineConnect=0;gradientDirection=north;strokeWidth=2;shape=mxgraph.networks.printer;shadow=1;direction=south;" vertex="1" parent="1">
          <mxGeometry x="545.66" y="337.44000000000005" width="16.98" height="18.11" as="geometry" />
        </mxCell>
        <mxCell id="n8K9JNLE61OcUpPLXm8b-25" value="P12" style="ellipse;whiteSpace=wrap;html=1;" vertex="1" parent="1">
          <mxGeometry x="227.93" y="76.88" width="21.5" height="13.12" as="geometry" />
        </mxCell>
        <mxCell id="n8K9JNLE61OcUpPLXm8b-26" value="P13" style="ellipse;whiteSpace=wrap;html=1;" vertex="1" parent="1">
          <mxGeometry x="327.31" y="83.5" width="21.5" height="13.12" as="geometry" />
        </mxCell>
        <mxCell id="n8K9JNLE61OcUpPLXm8b-28" value="P14" style="ellipse;whiteSpace=wrap;html=1;" vertex="1" parent="1">
          <mxGeometry x="424" y="80" width="21.5" height="13.12" as="geometry" />
        </mxCell>
        <mxCell id="n8K9JNLE61OcUpPLXm8b-29" value="P15" style="ellipse;whiteSpace=wrap;html=1;" vertex="1" parent="1">
          <mxGeometry x="224.54000000000002" y="295.18999999999994" width="21.5" height="13.12" as="geometry" />
        </mxCell>
        <mxCell id="n8K9JNLE61OcUpPLXm8b-31" value="P16" style="ellipse;whiteSpace=wrap;html=1;" vertex="1" parent="1">
          <mxGeometry x="324.81" y="296.16999999999996" width="21.5" height="13.12" as="geometry" />
        </mxCell>
        <mxCell id="n8K9JNLE61OcUpPLXm8b-33" value="P17" style="ellipse;whiteSpace=wrap;html=1;" vertex="1" parent="1">
          <mxGeometry x="425.82" y="295.18999999999994" width="21.5" height="13.12" as="geometry" />
        </mxCell>
        <mxCell id="n8K9JNLE61OcUpPLXm8b-34" value="P18" style="ellipse;whiteSpace=wrap;html=1;" vertex="1" parent="1">
          <mxGeometry x="568.31" y="337.47999999999996" width="21.5" height="13.12" as="geometry" />
        </mxCell>
      </root>
    </mxGraphModel>
  </diagram>
</mxfile>
